<?xml version="1.0" standalone="no"?>
<!DOCTYPE svg PUBLIC "-//W3C//DTD SVG 20010904//EN"
 "http://www.w3.org/TR/2001/REC-SVG-20010904/DTD/svg10.dtd">
<svg version="1.0" xmlns="http://www.w3.org/2000/svg"
 width="1418.000000pt" height="1418.000000pt" viewBox="0 0 1418.000000 1418.000000"
 preserveAspectRatio="xMidYMid meet">
<metadata>
Created by potrace 1.14, written by Peter Selinger 2001-2017
</metadata>
<g transform="translate(0.000000,1418.000000) scale(0.100000,-0.100000)"
fill="#000000" stroke="none">
<path d="M2836 13490 c5 -4 29 -15 54 -23 25 -8 72 -27 105 -42 33 -14 68 -27
78 -28 9 -1 17 -4 17 -8 0 -12 50 -28 67 -22 9 4 14 2 10 -3 -6 -10 140 -82
155 -76 5 1 8 -1 8 -6 0 -12 59 -34 71 -26 8 4 9 3 5 -4 -7 -12 27 -35 38 -25
3 3 6 2 6 -4 0 -5 23 -20 50 -32 43 -20 53 -21 68 -9 15 12 16 11 4 -4 -11
-14 -10 -18 8 -28 11 -6 26 -8 32 -4 6 4 8 3 5 -3 -5 -8 121 -79 132 -73 2 1
7 -2 10 -7 12 -18 81 -54 91 -48 6 4 9 1 8 -6 -2 -7 6 -15 16 -17 11 -2 26
-10 34 -18 7 -8 20 -14 28 -14 8 0 14 -4 14 -8 0 -5 17 -17 38 -27 55 -28 55
-29 47 -15 -5 9 -4 11 3 6 7 -4 12 -14 12 -22 0 -8 4 -13 9 -10 5 4 12 0 14
-6 4 -10 8 -9 17 2 10 13 11 12 6 -3 -4 -13 0 -20 14 -24 11 -3 20 -10 20 -16
0 -7 4 -7 12 1 7 7 17 12 23 12 5 0 3 -5 -5 -11 -9 -6 -11 -12 -4 -15 5 -2 47
-29 93 -59 45 -30 86 -55 91 -55 6 0 10 -5 10 -11 0 -5 4 -8 9 -5 5 3 11 -1
15 -9 3 -8 12 -15 19 -15 8 0 22 -9 32 -20 10 -11 24 -20 32 -20 7 0 13 -4 13
-8 0 -5 11 -14 24 -20 14 -6 33 -18 43 -26 18 -15 170 -126 213 -156 13 -8 29
-21 36 -28 8 -7 14 -11 14 -8 0 3 11 -6 25 -20 14 -14 30 -22 37 -18 7 4 8 3
4 -4 -7 -11 32 -38 47 -34 5 1 6 -2 2 -7 -3 -6 5 -15 17 -22 13 -7 28 -17 33
-24 6 -6 44 -38 85 -70 41 -33 83 -68 92 -78 10 -11 22 -16 29 -11 7 4 9 3 5
-4 -3 -6 10 -23 31 -39 21 -15 46 -38 56 -51 10 -12 23 -19 29 -16 7 4 8 2 4
-4 -3 -6 2 -16 13 -22 11 -5 50 -40 86 -76 38 -39 70 -62 77 -58 7 5 8 3 4 -5
-9 -13 23 -43 37 -34 4 2 6 1 5 -4 -3 -11 25 -53 35 -53 12 0 37 -27 37 -40 0
-7 9 -9 23 -5 13 4 17 3 10 -2 -14 -10 72 -107 86 -98 6 3 13 0 17 -6 4 -8 3
-9 -4 -5 -7 4 -12 3 -12 -1 0 -12 43 -48 53 -45 5 1 6 -1 3 -6 -2 -4 24 -38
58 -75 35 -37 62 -67 60 -67 -2 0 4 -8 14 -18 27 -29 63 -73 117 -142 27 -36
52 -67 55 -70 3 -3 16 -22 29 -43 13 -21 25 -36 28 -34 8 9 -92 157 -107 157
-13 0 -13 1 0 10 8 5 10 10 5 10 -6 0 -21 18 -35 40 -14 22 -28 40 -32 40 -5
0 -8 4 -8 10 0 18 -83 120 -93 113 -5 -3 -7 -2 -4 4 3 5 -2 21 -13 34 -10 13
-32 41 -48 61 -16 21 -32 35 -36 31 -3 -3 -6 0 -6 8 0 17 -60 85 -72 81 -4 -1
-8 4 -8 12 0 8 -81 96 -180 197 -99 100 -180 179 -180 175 0 -3 -16 10 -35 30
-19 19 -39 33 -45 29 -5 -3 -7 0 -4 9 6 17 -23 36 -46 29 -11 -3 -12 -2 -2 5
10 6 2 17 -29 43 -24 19 -50 42 -58 52 -9 9 -18 17 -22 17 -4 0 -28 20 -55 44
-27 25 -50 43 -53 41 -2 -3 -14 7 -26 21 -13 15 -28 23 -34 20 -6 -4 -11 -1
-11 6 0 8 -30 36 -67 63 -38 27 -74 56 -82 63 -7 7 -20 11 -28 8 -8 -3 -12 -2
-9 3 6 10 -140 114 -160 114 -7 0 -11 4 -9 8 7 11 -44 41 -57 33 -6 -4 -8 -3
-5 3 8 13 -120 96 -135 87 -7 -5 -8 -3 -4 5 5 8 0 14 -13 18 -12 3 -21 10 -21
15 0 6 -7 8 -15 4 -8 -3 -14 -2 -12 2 1 4 -2 8 -7 9 -5 1 -12 5 -15 10 -8 11
-93 61 -105 61 -5 0 -13 7 -18 16 -5 9 -13 14 -19 11 -5 -4 -9 -2 -9 3 0 6
-14 15 -30 21 -17 5 -38 17 -46 26 -10 10 -24 13 -38 10 -14 -4 -17 -3 -8 3
11 7 10 10 -3 16 -9 3 -22 3 -28 -1 -7 -3 -9 -3 -5 2 9 9 4 12 -120 76 -67 35
-93 44 -102 35 -8 -8 -10 -7 -5 5 4 12 -3 20 -27 30 -18 8 -36 13 -40 11 -5
-1 -8 2 -8 6 0 8 -74 39 -76 31 0 -2 -8 4 -18 13 -10 10 -29 21 -44 24 -15 4
-35 14 -44 22 -10 8 -18 12 -18 7 0 -4 -7 -2 -15 5 -8 6 -19 9 -25 5 -5 -3
-10 -1 -10 5 0 7 -7 9 -16 6 -8 -3 -12 -2 -9 4 3 6 1 11 -4 11 -18 2 -25 5
-66 23 -22 10 -50 19 -62 19 -11 1 -19 5 -17 8 3 5 -67 31 -91 33 -5 1 -16 7
-24 14 -7 7 -19 11 -27 8 -7 -3 -14 -1 -16 4 -2 5 -12 11 -23 13 -11 2 -27 7
-35 10 -40 17 -172 55 -164 47z m994 -450 c0 -5 -5 -10 -11 -10 -5 0 -7 5 -4
10 3 6 8 10 11 10 2 0 4 -4 4 -10z m491 -307 c13 -16 12 -17 -3 -4 -10 7 -18
15 -18 17 0 8 8 3 21 -13z m124 -32 c-9 -8 -36 -10 -30 -2 2 4 11 8 20 8 8 0
13 -3 10 -6z m45 -35 c0 -2 -7 -7 -16 -10 -8 -3 -12 -2 -9 4 6 10 25 14 25 6z
m195 -174 c-3 -3 -11 0 -18 7 -9 10 -8 11 6 5 10 -3 15 -9 12 -12z m660 -511
c-9 -8 -36 -10 -30 -2 2 4 11 8 20 8 8 0 13 -3 10 -6z m59 -39 c3 -5 -1 -9 -9
-9 -8 0 -12 4 -9 9 3 4 7 8 9 8 2 0 6 -4 9 -8z m7 -39 c13 -16 12 -17 -3 -4
-17 13 -22 21 -14 21 2 0 10 -8 17 -17z m37 -48 c-3 -3 -9 2 -12 12 -6 14 -5
15 5 6 7 -7 10 -15 7 -18z m37 5 c3 -5 1 -10 -4 -10 -6 0 -11 5 -11 10 0 6 2
10 4 10 3 0 8 -4 11 -10z m239 -246 c3 -8 2 -12 -4 -9 -6 3 -10 10 -10 16 0
14 7 11 14 -7z m46 -54 c0 -5 -5 -10 -11 -10 -5 0 -7 5 -4 10 3 6 8 10 11 10
2 0 4 -4 4 -10z"/>
<path d="M1680 13250 c-59 -20 -85 -42 -110 -91 -41 -79 -46 -236 -14 -404 2
-11 7 -36 10 -55 14 -81 69 -298 153 -607 76 -277 143 -533 156 -593 2 -8 17
-76 33 -150 41 -182 72 -354 87 -470 3 -25 10 -70 15 -100 5 -30 12 -77 15
-105 4 -27 10 -77 15 -110 5 -33 12 -87 15 -120 4 -33 8 -67 11 -75 2 -8 6
-44 9 -80 3 -36 7 -76 10 -90 2 -14 7 -61 10 -105 4 -44 9 -87 10 -96 2 -9 6
-67 10 -130 4 -63 9 -123 11 -134 3 -11 7 -151 10 -310 6 -254 4 -300 -11
-365 -9 -41 -19 -86 -21 -100 -21 -114 -133 -461 -192 -597 -89 -200 -213
-400 -362 -581 -126 -153 -191 -218 -420 -422 -114 -101 -431 -417 -511 -509
-35 -41 -74 -86 -87 -100 -122 -140 -283 -380 -367 -546 -77 -152 -135 -322
-149 -437 -54 -426 228 -790 864 -1114 74 -38 182 -89 240 -113 58 -25 109
-48 114 -52 5 -5 1 -24 -9 -46 -36 -75 -66 -160 -90 -253 -100 -385 -51 -814
144 -1273 l42 -97 -6 -103 c-3 -56 -8 -142 -10 -192 -27 -471 -18 -1030 20
-1330 8 -62 27 -188 31 -210 78 -408 184 -651 354 -812 122 -116 252 -167 425
-167 110 0 126 2 220 23 234 54 540 217 893 478 62 46 117 83 123 83 6 0 54
-13 107 -30 406 -123 803 -94 1172 86 178 87 316 187 474 342 250 245 453 567
625 992 40 96 76 184 80 195 5 11 20 45 34 76 l24 56 79 16 c113 24 224 34
344 31 95 -2 130 -5 225 -18 26 -4 151 -30 195 -41 107 -27 317 -110 456 -181
286 -146 433 -244 1042 -689 400 -292 622 -431 874 -544 111 -50 283 -102 383
-117 67 -10 287 -11 350 -2 215 31 401 198 490 438 9 25 21 54 26 65 9 22 55
202 63 249 3 16 8 50 12 75 4 25 8 55 10 66 13 67 19 223 19 455 0 298 -6 398
-36 645 -6 44 -12 94 -13 110 -11 88 -35 253 -46 305 -6 25 -12 61 -14 80 -3
19 -10 60 -16 90 -6 30 -14 69 -17 85 -14 86 -109 491 -149 635 -24 91 -47
174 -49 185 -12 55 -154 499 -210 660 -98 280 -244 653 -343 876 -28 63 -95
213 -132 293 -87 192 -362 726 -392 764 -22 26 2 23 46 -7 24 -17 47 -31 50
-31 3 0 24 -13 48 -29 98 -66 321 -167 457 -207 208 -61 496 -68 736 -19 370
75 715 339 915 700 18 33 47 78 65 100 228 289 445 667 554 966 66 182 83 251
87 349 6 168 -34 284 -176 507 -13 19 -11 24 20 50 18 15 49 38 69 50 54 33
158 95 200 119 l36 22 135 -54 c74 -30 168 -68 208 -83 l72 -29 108 130 c135
164 269 327 291 353 9 11 70 85 136 165 198 241 248 300 255 300 4 0 15 -10
26 -21 59 -66 186 -120 298 -125 177 -9 327 60 415 191 138 203 103 540 -72
701 -44 41 -125 80 -189 92 -88 17 -249 0 -346 -35 -24 -8 -45 -13 -48 -10 -2
2 23 14 56 26 46 17 64 29 76 53 29 57 -6 167 -60 188 -29 11 -47 8 -132 -20
-93 -31 -112 -71 -80 -167 13 -40 24 -55 51 -67 18 -9 44 -16 57 -17 22 0 22
-1 3 -9 -11 -5 -87 -34 -170 -65 -82 -31 -159 -60 -170 -65 -11 -5 -141 -57
-290 -115 -148 -58 -279 -110 -290 -114 -11 -5 -166 -66 -345 -136 -179 -70
-338 -133 -355 -139 -16 -7 -91 -37 -165 -66 -74 -29 -138 -56 -143 -60 -4 -3
7 -35 25 -71 45 -88 45 -158 1 -249 -26 -53 -44 -74 -100 -117 -123 -93 -178
-135 -213 -163 -19 -15 -102 -80 -185 -144 -82 -64 -158 -123 -168 -131 -22
-19 -31 -19 -105 0 -66 17 -152 15 -220 -5 -100 -31 -176 -142 -179 -265 -1
-38 3 -78 9 -89 8 -15 7 -22 -8 -33 -33 -24 -76 -57 -134 -103 -106 -84 -481
-375 -509 -395 -35 -26 -562 -437 -578 -450 -6 -5 -24 -20 -40 -31 -15 -12
-124 -97 -242 -188 l-214 -167 -25 23 c-51 46 -74 75 -174 223 -125 186 -189
278 -292 423 -45 63 -88 124 -96 135 -8 12 -23 34 -35 48 -11 14 -27 36 -35
49 -36 53 -277 371 -412 542 -82 103 -146 193 -143 200 12 36 17 96 21 233 3
123 0 167 -17 245 -11 52 -22 105 -25 118 -10 47 -56 159 -96 232 -81 150
-249 348 -403 477 -197 165 -443 289 -695 352 -85 21 -121 27 -215 37 -27 3
-59 7 -70 9 -11 2 -39 4 -62 4 -39 1 -51 9 -145 93 -57 51 -112 100 -123 110
-11 9 -33 29 -50 43 -350 306 -700 571 -1100 831 -156 102 -500 314 -509 314
-2 0 -33 17 -67 38 -172 104 -687 373 -924 482 -38 18 -108 51 -155 73 -387
180 -701 287 -925 313 -98 11 -117 10 -165 -6z m9799 -4405 c17 -19 37 -48 45
-63 33 -65 52 -256 34 -352 -5 -25 -11 -61 -14 -80 -3 -19 -10 -43 -15 -52 -5
-10 -7 -18 -5 -18 7 0 -25 -76 -66 -157 -17 -35 -34 -61 -36 -58 -3 3 -4 35
-2 73 10 237 -11 492 -52 635 -12 38 -11 40 28 73 21 18 42 33 45 34 4 0 21
-16 38 -35z m-435 -445 c29 -78 45 -149 52 -244 3 -39 7 -77 9 -83 3 -7 1 -13
-4 -13 -5 0 -12 12 -16 27 -14 57 -89 212 -138 288 l-39 59 44 37 c43 37 43
37 55 16 7 -12 23 -51 37 -87z m-409 -249 c66 -41 109 -100 188 -257 73 -145
91 -217 91 -364 -1 -116 -2 -129 -28 -180 -95 -189 -276 -358 -470 -439 -76
-32 -201 -64 -291 -76 -84 -11 -246 -7 -327 9 -157 30 -392 126 -506 207 l-23
16 73 59 c40 32 75 62 78 65 3 3 208 174 455 380 248 205 452 376 455 379 18
20 263 220 268 220 4 0 21 -9 37 -19z m-8791 -772 c24 -11 52 -60 62 -109 2
-14 9 -47 15 -75 10 -50 13 -182 6 -220 -3 -11 -8 -42 -11 -70 -10 -69 -16
-106 -21 -135 -3 -14 -7 -38 -9 -55 -3 -16 -17 -100 -31 -185 -14 -85 -28
-171 -31 -190 -3 -19 -7 -42 -9 -50 -3 -8 -14 -69 -25 -135 -12 -66 -23 -131
-25 -145 -10 -53 -17 -89 -36 -200 -11 -63 -22 -126 -25 -140 -16 -84 -61
-336 -93 -522 l-38 -217 -39 -45 c-21 -24 -45 -46 -51 -49 -7 -4 -61 12 -119
34 -379 142 -644 291 -814 458 -165 162 -206 290 -157 482 59 226 231 513 482
804 117 135 401 414 570 559 151 130 235 182 332 205 21 5 39 9 40 10 1 1 13
-4 27 -10z"/>
<path d="M4597 13239 c7 -7 15 -10 18 -7 3 3 -2 9 -12 12 -14 6 -15 5 -6 -5z"/>
<path d="M4630 13221 c0 -4 12 -14 28 -22 15 -8 30 -18 34 -24 5 -6 8 -6 8 2
0 6 -16 20 -35 32 -19 11 -35 17 -35 12z"/>
<path d="M4710 13171 c0 -5 17 -20 38 -32 44 -28 58 -38 79 -61 9 -9 20 -15
25 -12 4 3 8 0 8 -5 0 -6 7 -11 15 -11 8 0 15 -4 15 -10 0 -5 9 -10 20 -10 14
0 20 -7 20 -22 0 -18 2 -20 9 -9 11 18 -5 55 -20 46 -5 -4 -12 1 -15 9 -3 9
-10 13 -15 10 -5 -3 -9 0 -9 7 0 7 -3 10 -6 7 -3 -3 -16 5 -29 18 -13 13 -35
26 -49 30 -14 3 -26 10 -26 15 0 5 -7 9 -15 9 -9 0 -18 7 -21 15 -7 16 -24 21
-24 6z m138 -96 c-3 -3 -9 2 -12 12 -6 14 -5 15 5 6 7 -7 10 -15 7 -18z"/>
<path d="M4952 13005 c-1 -17 6 -27 27 -36 16 -7 28 -16 25 -20 -6 -11 42 -38
65 -36 25 2 27 10 6 27 -8 7 -15 9 -15 5 0 -4 -9 3 -21 16 -11 13 -18 18 -14
12 3 -7 1 -13 -4 -13 -6 0 -11 6 -12 13 0 6 -12 22 -27 34 l-28 21 -2 -23z
m48 -31 c0 -2 -9 0 -20 6 -11 6 -20 13 -20 16 0 2 9 0 20 -6 11 -6 20 -13 20
-16z m50 -44 c0 -5 -2 -10 -4 -10 -3 0 -8 5 -11 10 -3 6 -1 10 4 10 6 0 11 -4
11 -10z"/>
<path d="M5095 12910 c-4 -6 -11 -8 -16 -5 -23 15 -6 -15 19 -30 15 -10 31
-24 35 -32 11 -19 41 -17 33 3 -3 9 -2 12 5 9 6 -4 8 -14 5 -22 -6 -16 50 -83
69 -83 6 0 16 -9 23 -20 7 -11 19 -20 28 -20 8 0 13 -4 10 -9 -3 -4 3 -16 13
-25 13 -11 21 -14 26 -7 9 16 -5 33 -22 27 -8 -3 -11 -1 -8 4 10 15 50 5 47
-13 -1 -9 5 -14 15 -13 12 1 17 -5 15 -17 -2 -9 2 -16 9 -15 6 2 14 -4 16 -12
4 -12 3 -12 -5 -2 -5 8 -12 13 -16 13 -24 -3 -28 0 -16 13 9 12 8 15 -9 13
-12 -1 -21 -3 -21 -5 0 -12 95 -100 102 -96 13 8 9 24 -4 20 -7 -1 -10 -1 -5
1 4 3 7 9 7 15 0 6 -7 4 -17 -3 -15 -13 -15 -12 -3 11 l13 24 15 -32 c9 -17
20 -32 24 -32 5 0 6 5 2 12 -5 7 -3 8 5 4 7 -5 10 -10 7 -14 -3 -3 1 -10 9
-16 11 -8 12 -15 4 -26 -9 -13 -10 -13 -6 1 4 11 -3 20 -19 28 -13 6 -24 7
-24 3 0 -9 20 -39 20 -30 0 4 19 -13 43 -37 23 -25 48 -45 55 -45 6 0 11 -3
10 -8 -2 -4 29 -39 69 -79 39 -39 69 -74 65 -77 -3 -4 4 -9 16 -13 12 -3 20
-9 17 -13 -2 -3 13 -24 34 -44 24 -24 41 -34 45 -27 9 14 -1 31 -17 27 -7 -1
-9 -1 -4 2 4 2 12 13 18 25 7 12 8 19 4 15 -5 -5 -17 6 -27 23 -11 17 -22 28
-25 25 -4 -4 -12 6 -19 21 l-12 28 2 -25 c3 -36 15 -52 33 -45 13 5 14 3 3
-10 -12 -15 -14 -15 -22 -1 -5 9 -16 13 -26 10 -10 -4 -13 -3 -6 3 6 4 10 21
8 36 -3 35 -92 130 -113 122 -8 -3 -22 2 -32 11 -10 9 -23 13 -31 9 -10 -6
-10 -5 -1 5 10 11 16 10 33 -5 11 -10 23 -15 26 -12 8 8 -21 37 -37 37 -7 0
-9 3 -6 7 9 8 -43 64 -54 57 -4 -2 -10 5 -14 16 -3 11 -11 20 -16 20 -5 0 -19
11 -31 25 -11 13 -25 22 -29 20 -4 -3 -10 3 -14 12 -3 10 -33 40 -67 68 -47
38 -69 49 -97 50 -33 0 -36 3 -36 28 -1 30 -56 84 -75 72 -5 -3 -8 0 -5 7 6
16 -41 52 -50 38z m10 -10 c-3 -5 1 -10 9 -10 9 0 16 -5 16 -10 0 -7 -7 -7
-20 0 -17 9 -20 30 -4 30 3 0 2 -4 -1 -10z m105 -91 c0 -6 -4 -7 -10 -4 -5 3
-10 11 -10 16 0 6 5 7 10 4 6 -3 10 -11 10 -16z m80 -74 c0 -8 -2 -15 -4 -15
-2 0 -6 7 -10 15 -3 8 -1 15 4 15 6 0 10 -7 10 -15z m35 -14 c-6 -5 -25 10
-25 20 0 5 6 4 14 -3 8 -7 12 -15 11 -17z m212 -200 c0 -22 -3 -26 -12 -18 -9
9 -9 16 -1 29 6 10 11 18 12 18 0 0 1 -13 1 -29z m33 -16 c0 -25 -15 -24 -16
1 -1 13 2 21 7 18 5 -3 9 -11 9 -19z m45 -83 c-3 -3 -11 0 -18 7 -9 10 -8 11
6 5 10 -3 15 -9 12 -12z m40 -22 c2 -21 1 -22 -12 -5 -16 23 -17 38 -1 33 6
-2 12 -15 13 -28z m28 -24 c-4 -5 1 -7 10 -3 11 4 14 2 11 -8 -9 -22 -31 -6
-31 22 0 17 2 21 8 12 4 -7 5 -17 2 -23z m43 -41 c1 -14 -2 -22 -7 -19 -11 6
-12 44 -1 44 4 0 8 -11 8 -25z m76 -77 c-19 -19 -14 -32 6 -17 15 13 16 12 3
-3 -17 -22 -14 -22 -36 2 -15 17 -16 20 -3 15 9 -4 19 -2 23 4 3 6 9 11 13 11
3 0 1 -5 -6 -12z"/>
<path d="M5233 12792 c0 -10 9 -19 19 -19 22 -2 23 4 4 23 -19 19 -25 18 -23
-4z"/>
<path d="M5835 12220 c4 -6 10 -8 14 -6 3 3 7 -4 7 -14 0 -10 -3 -17 -7 -14
-4 2 -9 -2 -11 -9 -2 -6 9 -25 25 -42 19 -20 26 -23 19 -10 -5 11 -7 26 -5 33
3 8 -2 10 -14 6 -14 -5 -15 -4 -3 4 8 6 18 8 22 6 4 -3 8 2 8 11 0 9 -4 14 -9
11 -5 -3 -11 3 -14 14 -3 11 -13 20 -22 20 -9 0 -13 -5 -10 -10z"/>
<path d="M1115 12175 c4 -11 10 -28 12 -37 3 -10 10 -18 15 -18 5 0 7 -4 3 -9
-3 -5 1 -16 9 -24 8 -8 12 -17 9 -21 -4 -3 -1 -6 5 -6 6 0 9 -7 6 -15 -4 -8
-1 -15 5 -15 6 0 11 -8 11 -19 0 -10 6 -24 14 -31 8 -6 12 -18 9 -26 -3 -7 2
-16 10 -20 9 -3 13 -12 11 -19 -3 -7 -1 -16 5 -20 7 -4 9 1 5 12 -4 14 -4 15
4 4 5 -7 7 -22 4 -34 -3 -12 -1 -18 5 -14 6 4 14 0 17 -9 3 -8 2 -12 -4 -9
-15 9 -12 -7 5 -31 8 -12 11 -24 7 -28 -3 -4 2 -4 13 0 18 7 18 6 6 -9 -12
-16 -12 -17 5 -10 17 6 17 5 5 -10 -8 -10 -11 -21 -7 -24 4 -4 11 -1 16 7 6 8
10 10 10 4 0 -5 -6 -16 -12 -23 -11 -11 -8 -12 12 -7 21 6 22 5 8 -4 -15 -9
-15 -15 -6 -38 14 -33 37 -54 51 -45 6 4 7 1 3 -6 -5 -7 -14 -10 -22 -7 -12 5
-12 2 -1 -22 8 -15 17 -39 21 -54 6 -26 26 -40 26 -18 0 6 -4 10 -9 10 -5 0
-8 12 -8 26 0 15 -7 30 -14 35 -11 7 -11 9 -1 9 7 0 17 -11 22 -25 9 -24 30
-35 30 -15 0 6 -4 10 -9 10 -7 0 -14 14 -25 50 -8 30 -30 70 -38 70 -5 0 -7 4
-4 9 3 5 -5 28 -18 52 -24 46 -26 52 -26 70 0 6 -6 9 -14 6 -9 -4 -12 2 -10
19 1 13 -2 24 -7 24 -5 0 -9 6 -9 14 0 14 -40 97 -51 106 -4 3 -19 32 -34 64
-31 66 -81 152 -70 121z m258 -519 c3 -7 -1 -13 -9 -13 -8 0 -12 3 -9 5 3 3 0
11 -7 19 -8 11 -7 12 5 7 8 -3 18 -11 20 -18z"/>
<path d="M5891 12162 c-6 -10 -6 -24 -1 -32 5 -8 6 -18 3 -23 -2 -4 10 -22 29
-40 18 -18 32 -34 31 -37 -1 -3 6 -14 15 -25 10 -11 30 -37 46 -57 15 -21 31
-36 35 -33 4 2 17 -2 29 -11 15 -10 20 -23 18 -42 -4 -29 26 -77 39 -64 5 4 5
-1 2 -11 -4 -11 -3 -16 3 -12 6 3 10 -1 10 -9 0 -10 8 -14 25 -12 29 3 46 16
21 16 -9 0 -15 4 -12 8 3 5 -4 23 -15 41 -19 32 -39 37 -47 13 -2 -7 2 -10 11
-6 8 3 18 1 22 -5 4 -7 -2 -10 -17 -8 -17 3 -23 11 -25 33 -2 21 0 25 7 14 8
-13 10 -12 10 3 0 9 -4 17 -10 17 -5 0 -10 7 -10 15 0 8 -4 15 -10 15 -5 0 -9
6 -7 12 1 8 -9 12 -31 11 -18 -1 -30 2 -26 8 3 5 12 8 19 7 8 -2 14 0 15 5 1
15 -33 57 -47 57 -8 0 -11 4 -8 10 3 5 -3 17 -14 27 -11 9 -18 20 -16 23 2 4
-9 7 -25 7 -17 0 -27 -5 -23 -10 3 -6 1 -7 -6 -3 -9 6 -9 11 0 22 10 12 14 12
20 2 4 -7 11 -9 15 -5 4 4 2 13 -4 19 -10 10 -17 10 -32 0 -11 -7 -20 -8 -20
-3 0 5 9 13 21 16 20 7 20 7 -3 27 -13 11 -22 24 -20 29 4 16 -7 10 -17 -9z
m34 -32 c3 -5 1 -10 -4 -10 -6 0 -11 5 -11 10 0 6 2 10 4 10 3 0 8 -4 11 -10z
m53 -98 c-11 -13 -9 -14 12 -8 16 5 20 4 12 -2 -17 -12 11 -37 30 -26 8 5 8 1
-2 -11 -14 -17 -13 -18 2 -12 10 3 22 -1 29 -11 11 -14 11 -15 -1 -5 -10 9
-17 10 -27 2 -10 -9 -13 -8 -13 1 0 7 -17 28 -37 48 -21 19 -32 31 -24 27 11
-6 13 -4 8 8 -4 11 -2 14 9 10 12 -4 12 -8 2 -21z m192 -247 c0 -8 -2 -15 -4
-15 -2 0 -6 7 -10 15 -3 8 -1 15 4 15 6 0 10 -7 10 -15z"/>
<path d="M6050 11900 c0 -5 5 -10 10 -10 6 0 9 -4 8 -9 -4 -13 16 -15 20 -2 2
5 -6 15 -17 21 -14 7 -21 7 -21 0z"/>
<path d="M6170 11737 c0 -8 10 -22 22 -33 19 -15 20 -16 9 -1 -9 11 -10 17 -2
17 10 0 15 -14 12 -33 -2 -10 28 -67 35 -67 3 0 3 4 0 8 -2 4 3 8 13 8 10 0
18 -6 18 -13 0 -7 -4 -10 -8 -7 -4 2 -11 -1 -15 -7 -4 -8 -3 -9 4 -5 8 5 12 0
12 -13 0 -12 3 -21 8 -21 4 0 15 -14 24 -30 11 -19 22 -28 31 -24 8 3 18 1 22
-5 3 -7 0 -8 -9 -5 -9 3 -16 1 -16 -5 0 -6 5 -11 10 -11 6 0 23 -12 37 -27 28
-30 28 -28 -2 30 -10 20 -23 37 -27 37 -5 0 -7 4 -4 9 8 12 -22 23 -37 14 -7
-3 -9 -2 -4 2 4 5 0 17 -10 27 -20 22 -11 24 12 2 23 -23 29 -12 6 12 -10 12
-22 30 -26 43 -3 12 -18 33 -32 47 -14 14 -26 32 -27 41 -2 10 -9 19 -16 21
-8 3 -10 0 -5 -9 6 -11 5 -12 -6 -1 -17 16 -29 15 -29 -1z m100 -84 c0 -1 -8
-1 -18 0 -10 0 -19 9 -19 18 -2 16 0 17 18 1 10 -9 19 -17 19 -19z m55 -113
c3 -5 1 -10 -4 -10 -6 0 -11 5 -11 10 0 6 2 10 4 10 3 0 8 -4 11 -10z"/>
<path d="M1409 11537 c10 -12 10 -21 3 -30 -7 -8 -7 -18 -2 -27 5 -8 6 -18 3
-23 -3 -5 3 -6 14 -3 12 4 25 1 33 -9 8 -10 9 -15 1 -15 -6 0 -11 5 -11 10 0
6 -4 10 -9 10 -14 0 -10 -51 5 -57 8 -3 11 -9 8 -14 -3 -5 -2 -18 1 -30 5 -14
12 -18 25 -14 20 6 36 -10 20 -20 -6 -4 -8 -11 -5 -16 4 -5 1 -9 -4 -9 -14 0
-14 13 1 28 9 9 9 12 1 12 -7 0 -15 -4 -18 -10 -9 -15 36 -130 50 -130 7 0 15
-7 19 -15 3 -8 13 -15 23 -15 15 0 15 2 -3 16 -10 8 -13 12 -5 8 9 -4 12 -2 9
7 -3 8 -11 14 -19 14 -8 0 -14 3 -14 6 0 3 -8 13 -18 23 -9 10 -15 21 -12 26
3 5 0 11 -5 13 -7 4 -6 5 1 4 6 -2 11 -7 12 -12 0 -6 7 -16 14 -23 7 -8 11
-18 8 -23 -4 -5 -2 -9 4 -9 14 0 23 18 12 25 -6 3 -8 13 -5 23 5 14 4 15 -5 2
-9 -12 -11 -10 -11 13 0 15 -7 41 -15 57 -9 17 -15 31 -14 32 1 2 -1 13 -5 26
-6 16 -13 21 -26 17 -10 -3 -21 -2 -24 3 -3 6 2 9 12 8 12 -1 16 5 14 23 -3
30 -4 32 -30 34 -11 0 -19 5 -16 9 3 4 12 5 22 2 16 -5 16 -5 0 6 -10 6 -18
16 -18 23 0 8 4 6 11 -3 8 -12 10 -12 7 -1 -2 8 -15 21 -29 30 -23 15 -23 15
-10 -2z m84 -161 c3 -8 3 -17 0 -20 -10 -10 -33 -7 -33 4 0 5 8 6 18 3 15 -6
15 -5 3 10 -7 9 -9 17 -3 17 5 0 12 -6 15 -14z"/>
<path d="M6367 11437 c15 -23 28 -44 30 -46 2 -2 6 -1 10 3 4 4 1 12 -7 17
-13 9 -13 10 0 6 8 -2 15 -12 15 -23 1 -27 15 -64 25 -64 13 0 19 26 9 41 -5
8 -9 10 -9 4 -1 -5 -6 6 -13 25 -7 19 -18 36 -24 36 -7 1 -17 2 -23 3 -5 0
-10 7 -10 15 0 8 -7 16 -15 20 -10 3 -5 -9 12 -37z"/>
<path d="M6454 11325 c-6 -15 64 -135 79 -135 5 0 5 -4 2 -10 -3 -5 -1 -10 5
-10 6 0 9 -4 5 -9 -5 -10 13 -27 21 -19 6 6 -19 58 -28 58 -5 0 -8 7 -8 15 0
8 -4 15 -10 15 -5 0 -10 8 -10 19 0 10 -7 24 -15 31 -8 7 -12 17 -8 23 4 6 0
8 -9 4 -12 -4 -14 -1 -11 14 6 22 -5 26 -13 4z"/>
<path d="M1519 11166 c7 -8 13 -25 15 -38 1 -13 6 -29 10 -36 4 -7 4 -12 0
-12 -3 0 -1 -7 6 -15 7 -8 9 -15 4 -16 -5 0 2 -5 16 -11 14 -6 29 -10 33 -9 5
1 5 -4 2 -10 -5 -8 -10 -8 -18 0 -6 6 -15 11 -21 11 -6 0 -5 -5 1 -11 6 -6 9
-17 6 -24 -2 -8 1 -23 7 -35 7 -13 14 -32 15 -44 11 -63 17 -92 24 -99 5 -5 7
2 6 15 -1 13 -4 24 -5 26 -1 1 -3 12 -3 25 -1 12 -6 26 -11 30 -7 5 -5 7 4 4
8 -2 14 -10 13 -16 -2 -6 2 -11 9 -11 9 0 9 -3 0 -12 -9 -9 -5 -17 13 -34 25
-23 33 -44 17 -44 -4 0 -8 -9 -8 -20 0 -12 5 -19 12 -16 7 3 10 -3 7 -15 -3
-10 0 -19 6 -19 6 0 11 -4 11 -10 0 -5 -5 -9 -11 -7 -6 1 -14 -4 -16 -11 -3
-8 1 -10 11 -6 9 3 16 1 16 -6 0 -6 -4 -8 -10 -5 -5 3 -10 2 -10 -3 0 -6 7
-13 16 -16 8 -3 12 -11 9 -16 -9 -14 -27 -8 -31 11 -2 7 -6 24 -10 37 -4 14
-2 22 5 22 9 0 9 5 1 20 -13 24 -27 26 -27 5 0 -8 4 -15 9 -15 5 0 6 -4 3 -10
-3 -5 0 -29 6 -52 7 -24 14 -49 15 -57 2 -8 6 -26 10 -40 4 -14 8 -29 9 -33 2
-5 3 -22 4 -39 1 -20 5 -29 14 -26 6 2 20 0 30 -5 12 -6 17 -5 17 7 0 13 -18
20 -42 16 -5 0 -8 4 -8 10 0 6 8 8 18 5 22 -7 25 11 9 69 -13 50 -16 63 -21
100 -2 17 -10 50 -17 75 -6 25 -13 52 -14 60 -4 35 -17 60 -28 54 -8 -5 -8 -2
1 7 14 15 16 33 3 24 -6 -3 -8 7 -7 22 2 16 -3 40 -10 55 -8 15 -14 30 -14 33
1 21 -3 27 -25 37 -21 9 -23 14 -13 26 11 13 9 14 -12 8 -14 -4 -20 -4 -15 1
17 14 36 53 30 63 -4 6 -14 10 -25 10 -10 0 -20 7 -24 15 -3 8 -11 15 -17 15
-8 0 -8 -4 0 -14z m52 -40 c-4 -6 -11 -18 -14 -26 -3 -8 -5 -3 -4 11 1 14 7
26 14 26 8 0 9 -5 4 -11z m41 -128 c-9 -9 -7 -15 6 -25 15 -13 15 -13 -4 -4
-12 6 -24 7 -28 4 -3 -3 -6 -4 -6 0 0 8 30 37 38 37 3 0 1 -5 -6 -12z m20 -53
c3 3 5 -2 5 -9 0 -11 -5 -12 -18 -5 -10 5 -21 14 -25 20 -5 8 -1 8 13 0 11 -6
22 -8 25 -6z m68 -325 c0 -5 -8 -10 -17 -10 -15 0 -16 2 -3 10 19 12 20 12 20
0z m16 -31 c10 -17 -13 -36 -27 -22 -12 12 -4 33 11 33 5 0 12 -5 16 -11z m14
-43 c0 -2 -9 -6 -20 -9 -11 -3 -18 -1 -14 4 5 9 34 13 34 5z"/>
<path d="M1690 10580 c0 -5 5 -10 10 -10 6 0 10 5 10 10 0 6 -4 10 -10 10 -5
0 -10 -4 -10 -10z"/>
<path d="M13055 11124 c-67 -23 -88 -38 -101 -71 -11 -26 -11 -39 2 -83 28
-95 68 -115 167 -85 78 23 102 62 86 136 -22 96 -73 130 -154 103z"/>
<path d="M6572 11110 c7 -11 16 -20 21 -20 4 0 3 9 -3 20 -6 11 -15 20 -20 20
-6 0 -5 -9 2 -20z"/>
<path d="M1580 11101 c0 -6 4 -12 10 -16 5 -3 7 -12 3 -20 -3 -10 1 -15 11
-15 15 0 15 3 1 30 -16 30 -25 38 -25 21z"/>
<path d="M6602 11060 c7 -10 14 -18 15 -16 6 6 -9 36 -18 36 -5 0 -4 -9 3 -20z"/>
<path d="M6630 11010 c6 -11 13 -20 16 -20 2 0 0 9 -6 20 -6 11 -13 20 -16 20
-2 0 0 -9 6 -20z"/>
<path d="M12738 11005 c-56 -14 -73 -27 -86 -63 -10 -30 -9 -38 7 -98 21 -80
87 -107 164 -70 65 32 77 84 39 170 -27 61 -61 78 -124 61z"/>
<path d="M12392 10887 c-18 -6 -47 -23 -64 -39 -28 -26 -30 -32 -25 -78 8 -66
31 -108 71 -127 31 -14 38 -14 89 2 94 29 120 71 98 154 -22 86 -81 117 -169
88z"/>
<path d="M1639 10838 c-1 -5 -2 -11 -3 -15 -1 -5 -5 -14 -9 -20 -9 -15 -1 -33
15 -33 5 0 8 6 5 14 -3 7 -1 18 3 22 5 5 5 15 0 24 -5 8 -10 12 -11 8z"/>
<path d="M12090 10774 c-113 -40 -129 -74 -90 -188 21 -61 52 -95 86 -96 47 0
121 32 137 60 20 34 21 55 5 115 -21 79 -83 128 -138 109z"/>
<path d="M11748 10631 c-85 -30 -111 -75 -88 -157 25 -88 93 -115 190 -73 73
31 90 86 52 171 -31 71 -73 87 -154 59z"/>
<path d="M1705 10461 c-2 -5 7 -12 22 -16 21 -5 24 -8 12 -16 -12 -8 -12 -10
1 -20 13 -9 12 -10 -3 -5 -21 7 -36 -22 -17 -34 7 -4 9 -13 5 -20 -4 -6 1 -20
11 -31 9 -10 14 -22 11 -26 -4 -3 -7 -1 -7 5 0 7 -5 12 -11 12 -8 0 -8 -4 -2
-12 10 -12 13 -28 14 -70 0 -10 4 -18 9 -18 5 0 7 -6 4 -13 -3 -8 5 -18 17
-23 19 -9 20 -11 5 -23 -14 -12 -16 -12 -10 3 3 9 1 16 -4 16 -6 0 -9 -10 -6
-22 7 -32 12 -52 14 -58 1 -3 2 -13 1 -22 -1 -10 3 -18 8 -18 6 0 11 7 11 15
0 8 5 15 11 15 7 0 5 -9 -4 -24 -17 -25 -21 -98 -5 -74 6 8 7 1 3 -21 -6 -27
-4 -32 6 -25 10 6 10 3 -1 -11 -9 -11 -10 -16 -3 -11 10 5 12 -4 9 -38 -3 -27
-1 -46 5 -46 6 0 7 5 4 10 -3 6 -1 10 5 10 7 0 9 -7 6 -16 -3 -9 -6 -18 -6
-20 0 -3 -5 -2 -12 2 -6 4 -8 3 -5 -3 4 -6 9 -30 12 -54 3 -24 10 -45 15 -47
6 -2 10 -8 10 -13 0 -6 -4 -8 -9 -4 -6 3 -8 -5 -6 -17 6 -37 16 -139 18 -185
1 -23 4 -44 7 -47 3 -3 4 32 3 77 -2 45 -3 97 -3 115 0 19 -4 32 -12 32 -9 0
-10 2 -2 8 13 8 16 64 3 57 -4 -3 -11 -1 -14 5 -4 6 -3 10 2 9 22 -4 25 2 7
16 -19 15 -19 15 1 9 18 -5 18 -4 3 6 -10 6 -18 16 -18 23 0 8 3 8 9 -2 6 -9
11 -10 15 -2 4 6 4 11 -1 11 -7 0 -10 24 -13 122 -1 20 -5 26 -18 22 -15 -5
-15 -4 1 9 17 14 24 33 9 23 -4 -2 -8 17 -9 42 -1 75 -2 82 -14 82 -5 0 -7 -4
-4 -10 4 -6 -1 -7 -11 -3 -15 5 -14 7 3 17 13 7 19 19 16 31 -2 11 -5 36 -7
55 -4 38 -23 141 -32 180 -4 14 -6 35 -6 46 0 23 -43 51 -53 35z m49 -103 c-1
-15 1 -28 6 -28 6 0 10 -5 10 -10 0 -6 -8 -5 -19 2 -16 10 -17 15 -8 26 9 11
7 17 -7 28 -18 12 -17 13 2 11 16 -1 19 -7 16 -29z m15 -75 c0 -10 1 -27 3
-37 2 -10 -3 -20 -10 -22 -7 -1 -8 0 -2 3 5 2 10 9 10 14 0 6 -4 7 -10 4 -6
-4 -7 1 -3 11 4 12 3 15 -6 10 -9 -6 -9 -3 1 13 16 25 17 26 17 4z m18 -84 c2
-16 -1 -19 -9 -11 -5 5 -7 15 -4 21 10 15 12 14 13 -10z m13 -53 c0 -2 -8 -10
-17 -17 -16 -13 -17 -12 -4 4 13 16 21 21 21 13z m6 -126 c0 -12 -4 -16 -9
-11 -5 5 -6 14 -3 20 10 15 12 14 12 -9z"/>
<path d="M1703 10425 c0 -8 4 -15 8 -15 4 0 9 7 13 15 3 9 0 15 -8 15 -7 0
-13 -7 -13 -15z"/>
<path d="M10988 9844 c-4 -3 -21 -8 -40 -11 -18 -3 -36 -10 -40 -16 -4 -7 -8
-8 -8 -3 0 5 -8 2 -17 -5 -11 -9 -14 -10 -9 -2 8 14 -19 8 -40 -8 -6 -5 -14
-6 -17 -3 -3 3 -12 2 -19 -2 -7 -5 -19 -9 -26 -10 -8 -2 -21 -6 -30 -10 -9 -4
-25 -9 -35 -11 -48 -9 -317 -127 -327 -144 -3 -4 -18 -13 -34 -19 -20 -7 -26
-15 -22 -27 5 -13 4 -14 -9 -3 -9 8 -15 8 -15 2 0 -6 -8 -13 -19 -17 -10 -3
-42 -27 -71 -54 -37 -34 -50 -53 -44 -62 7 -12 5 -12 -9 0 -9 7 -17 9 -17 4 0
-5 -24 -34 -52 -64 -59 -61 -91 -99 -82 -99 2 0 -7 -12 -21 -26 -15 -14 -24
-32 -21 -40 3 -8 2 -13 -2 -13 -20 3 -32 -2 -32 -15 0 -8 -6 -21 -13 -28 -26
-28 -48 -69 -41 -80 4 -6 3 -8 -2 -5 -8 5 -74 -101 -74 -118 0 -17 23 3 61 53
52 69 51 68 89 112 17 19 45 52 63 74 18 21 49 54 70 74 35 33 51 62 25 46 -7
-4 -8 -3 -4 5 4 6 12 9 17 5 13 -8 100 77 92 90 -3 5 -1 6 4 3 6 -4 21 3 34
14 13 12 34 28 46 36 13 8 20 19 17 24 -3 5 -2 8 3 7 4 -2 26 8 48 22 22 13
48 28 58 32 10 4 16 12 12 18 -3 5 0 7 9 4 8 -3 24 4 35 15 12 12 24 21 29 20
16 -1 101 45 96 52 -3 5 1 6 9 3 8 -3 18 -1 22 5 3 6 15 11 26 11 10 0 19 5
19 10 0 6 5 10 11 10 6 0 40 14 76 30 35 17 66 30 68 30 2 0 34 14 72 31 88
39 105 47 123 52 8 3 3 6 -11 6 -14 1 -28 -2 -31 -5z m-565 -219 c-3 -9 -8
-14 -10 -11 -3 3 -2 9 2 15 9 16 15 13 8 -4z m47 -25 c0 -5 -2 -10 -4 -10 -3
0 -8 5 -11 10 -3 6 -1 10 4 10 6 0 11 -4 11 -10z m-190 -80 c-8 -5 -19 -10
-25 -10 -5 0 -3 5 5 10 8 5 20 10 25 10 6 0 3 -5 -5 -10z m-10 -40 c0 -5 -2
-10 -4 -10 -3 0 -8 5 -11 10 -3 6 -1 10 4 10 6 0 11 -4 11 -10z m-305 -299 c3
-5 2 -12 -3 -15 -5 -3 -9 1 -9 9 0 17 3 19 12 6z"/>
<path d="M13469 9714 c-19 -26 -33 -50 -31 -55 1 -5 -2 -8 -7 -6 -14 3 -62
-56 -56 -71 3 -8 0 -10 -6 -6 -17 10 -30 -18 -16 -36 10 -13 10 -13 -4 -3 -13
11 -19 10 -33 -6 -10 -11 -15 -24 -11 -30 3 -6 0 -9 -8 -5 -8 3 -21 -5 -29
-18 -9 -13 -48 -55 -87 -94 -39 -39 -71 -77 -71 -83 0 -7 -4 -10 -9 -7 -10 6
-54 -38 -45 -46 3 -3 -2 -5 -12 -4 -9 0 -19 -5 -22 -13 -3 -9 0 -11 8 -6 9 5
11 4 6 -4 -4 -6 -11 -9 -16 -6 -9 6 -72 -33 -78 -47 -2 -5 -10 -8 -18 -8 -8 0
-14 -4 -14 -8 0 -4 -20 -18 -45 -30 -24 -12 -43 -27 -41 -34 1 -7 1 -10 -1 -5
-8 13 -33 7 -45 -12 -6 -11 -18 -17 -26 -13 -10 3 -13 1 -8 -6 5 -8 2 -10 -8
-6 -9 3 -16 1 -16 -5 0 -6 -3 -10 -7 -10 -23 4 -35 -3 -30 -16 4 -8 2 -17 -4
-20 -5 -4 -8 -3 -7 2 3 8 -5 13 -23 13 -5 0 -7 -5 -3 -12 4 -6 3 -8 -4 -4 -6
3 -45 -7 -87 -24 -41 -16 -82 -30 -90 -30 -8 0 -15 -4 -15 -8 0 -4 -14 -9 -32
-10 -18 -2 -34 -5 -37 -9 -19 -20 269 26 289 47 3 3 12 6 20 8 8 1 24 7 35 12
11 5 37 14 58 20 20 6 37 16 37 21 0 5 3 8 8 8 24 -4 34 2 27 19 -5 13 -4 14
6 5 15 -15 73 12 63 29 -4 7 -3 8 4 4 13 -8 52 10 69 33 7 9 13 12 13 7 0 -5
9 -1 20 9 11 10 17 22 13 28 -3 6 -1 7 6 3 6 -4 24 6 42 23 17 17 35 31 40 31
6 0 7 5 4 10 -3 6 0 10 8 10 16 0 74 70 69 83 -1 5 1 6 6 3 4 -2 17 7 28 21
10 14 34 42 51 62 18 20 33 40 33 44 0 5 7 15 15 24 8 8 13 19 10 24 -4 5 1 9
9 9 9 0 16 5 16 12 0 6 7 19 16 29 8 9 16 26 17 37 0 11 5 18 9 16 4 -3 13 8
20 23 7 15 22 44 33 63 21 35 37 70 32 70 -2 0 -19 -21 -38 -46z m-141 -219
c-3 -3 -9 2 -12 12 -6 14 -5 15 5 6 7 -7 10 -15 7 -18z m-38 -71 c0 -8 -19
-13 -24 -6 -3 5 1 9 9 9 8 0 15 -2 15 -3z m-120 -148 c0 -2 -8 -10 -17 -17
-16 -13 -17 -12 -4 4 13 16 21 21 21 13z m-636 -334 c3 -5 -1 -9 -9 -9 -8 0
-12 4 -9 9 3 4 7 8 9 8 2 0 6 -4 9 -8z"/>
<path d="M1843 9409 c-2 -23 3 -25 10 -4 4 8 3 16 -1 19 -4 3 -9 -4 -9 -15z"/>
<path d="M13472 9218 c-7 -7 -12 -18 -12 -26 0 -7 -4 -10 -10 -7 -6 4 -7 -1
-3 -12 3 -10 3 -15 -1 -11 -9 7 -76 -61 -76 -77 0 -19 17 -38 24 -27 3 6 2 13
-4 17 -15 9 -2 25 15 19 9 -4 16 3 20 19 4 14 15 33 26 43 10 9 19 25 19 34 0
9 5 21 12 28 7 7 10 12 7 12 -3 0 -10 -5 -17 -12z m-52 -98 c0 -5 -5 -10 -11
-10 -5 0 -7 5 -4 10 3 6 8 10 11 10 2 0 4 -4 4 -10z"/>
<path d="M13353 9067 c3 -9 3 -16 -1 -15 -14 4 -52 -13 -52 -23 0 -6 9 -5 21
2 16 8 24 8 33 -2 8 -9 8 -10 -1 -5 -15 8 -44 -4 -37 -15 3 -5 10 -6 16 -3 7
5 8 2 3 -5 -5 -9 -10 -10 -18 -2 -14 14 -37 14 -37 1 0 -5 5 -9 11 -7 6 1 13
-4 15 -11 1 -7 0 -8 -3 -2 -3 7 -10 7 -21 -2 -12 -10 -14 -10 -8 0 11 18 -2
15 -35 -9 -16 -11 -27 -24 -24 -28 2 -5 -8 -14 -23 -22 -39 -19 -62 -40 -56
-50 9 -15 24 -10 18 5 -3 8 0 17 7 22 9 5 10 2 6 -9 -3 -9 -2 -19 4 -22 5 -4
7 -11 3 -16 -3 -6 -15 -4 -30 5 -29 20 -34 20 -34 1 0 -8 3 -14 8 -14 20 3 32
-2 26 -12 -5 -8 -9 -8 -14 1 -4 6 -10 11 -14 11 -20 -3 -26 0 -20 12 5 8 2 8
-9 -2 -19 -15 -23 -41 -6 -41 6 0 8 7 4 18 -4 12 -3 14 5 6 6 -6 8 -18 4 -28
-5 -14 -9 -14 -22 -4 -13 11 -15 10 -9 -4 3 -10 1 -20 -5 -24 -6 -4 -8 -3 -5
3 11 18 -21 23 -35 6 -11 -15 -11 -16 5 -10 11 4 16 3 12 -4 -4 -6 -13 -8 -21
-5 -7 3 -17 -2 -22 -10 -7 -13 -10 -13 -21 -1 -9 12 -9 17 0 23 8 4 9 3 5 -4
-4 -7 -3 -12 3 -12 15 0 23 18 11 25 -5 3 -19 0 -31 -8 -12 -9 -16 -18 -10
-21 5 -4 8 -13 4 -21 -3 -8 0 -15 6 -15 6 0 11 5 11 10 0 6 3 9 8 9 4 -1 10 0
15 1 4 1 10 3 15 4 19 4 88 41 94 50 4 6 11 11 16 11 5 0 25 11 45 25 28 19
33 28 25 38 -15 18 26 62 42 46 8 -8 5 -15 -7 -25 -16 -13 -17 -12 -4 4 15 19
2 24 -17 5 -28 -28 -2 -38 32 -13 13 10 16 20 11 32 -14 31 -13 41 1 47 11 4
12 1 5 -13 -7 -12 -7 -21 0 -28 8 -8 27 6 65 46 52 55 67 92 42 107 -8 5 -9 2
-5 -9z m-53 -100 c0 -2 -9 -12 -20 -22 -24 -21 -27 -14 -4 9 15 15 24 20 24
13z"/>
<path d="M9786 8924 c-5 -14 -4 -15 9 -4 17 14 19 20 6 20 -5 0 -12 -7 -15
-16z"/>
<path d="M13028 8812 c-16 -9 -28 -21 -28 -26 0 -5 9 -1 21 10 12 10 24 18 27
16 4 -2 8 1 10 7 5 14 2 14 -30 -7z"/>
<path d="M12906 8747 c-9 -7 -18 -22 -20 -33 -4 -20 -2 -21 24 -11 16 6 27 13
25 16 -3 2 0 10 5 16 15 18 -13 27 -34 12z m12 -17 c-7 -10 -14 -17 -17 -15
-4 4 18 35 25 35 2 0 -1 -9 -8 -20z"/>
<path d="M12845 8717 c-11 -7 -23 -16 -27 -22 -4 -5 -8 -6 -8 -2 0 4 -10 2
-22 -5 -13 -7 -26 -11 -30 -10 -5 1 -8 -3 -8 -9 0 -5 -4 -8 -8 -5 -4 2 -14 0
-22 -5 -10 -6 -4 -7 20 -3 19 3 40 7 47 7 7 0 10 4 7 8 -2 4 5 8 16 8 11 1 29
1 40 2 11 0 20 3 21 7 0 4 2 15 4 25 4 20 -2 21 -30 4z"/>
<path d="M12205 8103 c-5 -15 -9 -30 -10 -33 0 -3 -11 -36 -23 -73 -12 -37
-20 -73 -16 -79 4 -6 3 -8 -3 -5 -6 4 -14 -5 -19 -21 -10 -35 -9 -33 -21 -62
-52 -123 -60 -149 -50 -154 7 -2 5 -5 -3 -5 -14 -1 -47 -65 -42 -83 1 -3 -5
-12 -13 -18 -8 -7 -15 -16 -15 -21 0 -12 -69 -156 -102 -212 -16 -27 -26 -52
-23 -57 3 -4 -2 -11 -11 -14 -8 -3 -12 -10 -9 -16 3 -5 2 -10 -3 -10 -5 0 -17
-17 -28 -37 -10 -21 -23 -41 -29 -45 -7 -5 -7 -8 0 -8 6 0 6 -3 -1 -8 -6 -4
-35 -43 -64 -87 -29 -44 -64 -93 -77 -109 -13 -16 -22 -35 -19 -42 3 -7 0 -11
-7 -8 -7 2 -21 -9 -32 -26 -11 -16 -23 -30 -27 -30 -5 0 -8 -4 -8 -10 0 -5
-15 -24 -32 -41 -18 -17 -32 -36 -30 -41 1 -5 -1 -7 -6 -4 -5 3 -29 -16 -54
-43 -24 -26 -52 -50 -62 -54 -9 -4 -14 -12 -11 -17 4 -6 3 -9 -2 -8 -13 4 -83
-46 -83 -59 0 -7 -7 -10 -17 -6 -12 5 -15 2 -11 -9 4 -9 1 -15 -5 -15 -21 2
-87 -36 -87 -50 0 -7 -6 -10 -15 -7 -8 4 -15 1 -15 -5 0 -6 -3 -10 -7 -9 -17
4 -73 -33 -67 -44 5 -7 3 -8 -5 -4 -7 5 -51 -11 -104 -37 -82 -40 -122 -58
-137 -61 -3 -1 -16 -8 -30 -16 -14 -7 -26 -13 -27 -12 -2 1 -16 -1 -33 -4 -18
-4 -30 -13 -30 -23 0 -14 -2 -14 -11 -1 -7 11 -12 12 -15 3 -3 -7 -12 -9 -20
-6 -8 3 -14 0 -14 -7 0 -6 -4 -8 -10 -5 -5 3 -15 3 -22 -1 -7 -4 -23 -9 -36
-10 -29 -3 -54 -23 -45 -37 3 -6 1 -7 -6 -3 -6 4 -8 12 -5 18 4 7 -5 8 -27 3
-19 -4 -35 -11 -37 -15 -1 -4 -16 -6 -32 -4 -21 3 -30 -1 -30 -11 0 -7 -4 -17
-10 -20 -6 -3 -7 1 -4 10 5 13 1 15 -22 10 -55 -11 -141 -22 -187 -24 -16 -1
-26 -5 -22 -10 3 -5 1 -13 -5 -16 -6 -4 -9 -1 -8 6 2 10 -7 12 -32 10 -19 -2
-74 -4 -122 -5 -49 0 -88 -4 -88 -8 0 -10 10 -10 215 -14 88 -1 164 0 169 3 5
3 30 7 55 8 25 2 48 4 51 5 3 1 16 1 29 0 13 -1 21 2 18 7 -3 5 10 7 29 5 19
-2 34 0 34 4 0 5 10 9 23 10 25 0 80 10 117 19 14 4 34 8 45 10 11 2 61 18
110 35 50 17 96 32 103 34 8 1 17 7 20 13 4 5 15 9 25 7 9 -1 17 2 17 7 0 5 6
8 13 7 6 -2 11 3 9 11 -2 9 3 11 13 7 18 -6 67 13 60 25 -3 4 3 6 12 5 10 -2
20 0 23 3 3 3 26 17 52 30 26 13 45 28 41 34 -3 6 -1 7 5 3 15 -9 183 104 175
117 -3 6 -1 7 6 3 15 -10 43 13 34 28 -3 6 -3 8 2 4 11 -11 47 11 39 24 -4 7
-3 8 5 4 6 -4 14 0 17 8 3 9 9 14 13 12 8 -4 90 82 83 89 -3 3 2 5 11 5 9 0
17 3 17 8 0 4 14 21 30 39 17 18 30 37 30 44 0 7 3 10 6 6 9 -9 96 112 89 123
-4 6 0 10 7 10 7 1 33 32 56 71 38 61 42 72 30 87 -11 15 -11 16 3 4 15 -11
20 -7 43 33 15 25 24 50 20 57 -4 6 -3 8 3 5 10 -6 40 50 35 66 -1 4 2 7 6 7
5 0 14 12 21 26 9 21 9 30 -1 43 -11 14 -11 14 3 3 14 -10 18 -10 22 2 3 8 1
17 -6 20 -8 3 -6 5 3 5 12 1 74 125 75 151 0 3 3 10 7 16 9 13 30 72 78 219
47 147 71 236 64 247 -3 4 -1 8 4 8 5 0 9 6 9 13 0 6 6 32 12 56 7 23 10 45 8
47 -3 3 -8 -8 -12 -23z m-135 -467 c0 -2 -8 -10 -17 -17 -16 -13 -17 -12 -4 4
13 16 21 21 21 13z m-20 -56 c0 -5 -5 -10 -11 -10 -5 0 -7 5 -4 10 3 6 8 10
11 10 2 0 4 -4 4 -10z m-36 -82 c-3 -4 -9 -8 -15 -8 -5 0 -9 4 -9 8 0 5 7 9
15 9 8 0 12 -4 9 -9z m-24 -58 c0 -5 -5 -10 -11 -10 -5 0 -7 5 -4 10 3 6 8 10
11 10 2 0 4 -4 4 -10z m-305 -508 c-3 -3 -11 0 -18 7 -9 10 -8 11 6 5 10 -3
15 -9 12 -12z m-195 -256 c0 -2 -8 -10 -17 -17 -16 -13 -17 -12 -4 4 13 16 21
21 21 13z m-320 -236 c0 -5 -2 -10 -4 -10 -3 0 -8 5 -11 10 -3 6 -1 10 4 10 6
0 11 -4 11 -10z m-86 -26 c3 -8 2 -12 -4 -9 -6 3 -10 10 -10 16 0 14 7 11 14
-7z m-74 -58 c0 -2 -8 -10 -17 -17 -16 -13 -17 -12 -4 4 13 16 21 21 21 13z
m-380 -136 c0 -5 -5 -10 -11 -10 -5 0 -7 5 -4 10 3 6 8 10 11 10 2 0 4 -4 4
-10z"/>
<path d="M12142 6876 c-29 -40 -32 -56 -10 -56 5 0 6 5 3 10 -3 6 2 22 13 38
25 36 34 52 29 52 -2 0 -18 -20 -35 -44z"/>
<path d="M12086 6796 c-12 -19 -13 -26 -4 -26 7 0 2 -6 -11 -13 -13 -6 -22
-14 -20 -17 2 -3 -10 -19 -26 -36 -68 -71 -80 -91 -65 -109 8 -10 8 -15 -1
-21 -7 -4 -9 -3 -6 3 4 6 1 16 -6 22 -11 8 -17 5 -27 -14 -7 -14 -18 -25 -23
-25 -5 0 -4 -7 3 -15 11 -13 11 -18 0 -28 -10 -10 -12 -8 -6 6 4 12 2 17 -6
15 -16 -6 -19 -20 -8 -38 7 -12 13 -10 32 11 67 71 71 78 59 93 -9 11 -9 16 0
22 8 4 9 3 5 -4 -4 -7 -1 -12 7 -12 9 0 13 9 11 25 -1 18 4 28 19 36 19 8 20
8 7 -3 -8 -7 -16 -20 -18 -28 -2 -8 8 -1 22 15 14 17 25 35 26 42 0 6 3 13 8
15 4 2 18 18 31 37 13 19 19 31 12 27 -6 -4 -11 -3 -11 3 0 5 7 11 15 13 9 2
12 8 6 16 -6 10 -12 7 -25 -12z m-16 -56 c0 -5 -5 -10 -11 -10 -5 0 -7 5 -4
10 3 6 8 10 11 10 2 0 4 -4 4 -10z m-135 -160 c-3 -5 -1 -10 6 -10 7 0 10 -3
6 -6 -9 -9 -28 6 -22 17 4 5 8 9 11 9 3 0 2 -4 -1 -10z m-7 -45 c-3 -3 -9 2
-12 12 -6 14 -5 15 5 6 7 -7 10 -15 7 -18z"/>
<path d="M11849 6498 c-2 -37 -4 -43 -11 -43 -4 0 -14 -9 -23 -20 -9 -12 -7
-1 6 25 16 34 18 42 6 32 -9 -8 -19 -22 -22 -33 -4 -11 -11 -16 -17 -13 -6 4
-8 -1 -4 -12 8 -26 -6 -45 -24 -34 -13 8 -12 10 3 10 9 0 17 5 17 10 0 14 -11
12 -33 -4 -12 -9 -14 -16 -7 -21 5 -3 8 -11 5 -16 -4 -5 -1 -9 5 -9 6 0 8 -5
4 -11 -4 -8 -9 -7 -15 2 -4 7 -5 17 -3 21 3 4 0 8 -5 8 -6 0 -11 -5 -11 -12 0
-6 -3 -9 -6 -5 -3 3 -14 -2 -24 -11 -34 -31 -54 -47 -60 -47 -3 -1 -15 -7 -27
-15 -15 -10 -19 -18 -13 -30 13 -24 -3 -45 -20 -25 -11 13 -10 15 6 9 16 -6
17 -5 7 7 -10 10 -16 10 -25 1 -9 -9 -9 -15 0 -24 7 -7 12 -17 12 -22 0 -6 -7
0 -16 12 -19 27 -22 27 -54 1 -25 -20 -25 -20 -1 -9 16 8 21 9 17 1 -4 -6 -2
-11 4 -11 7 0 10 7 6 15 -9 24 2 17 16 -10 l14 -25 32 30 c28 25 31 33 22 50
-8 16 -8 18 4 14 8 -3 13 -15 11 -27 -4 -22 -4 -22 11 -2 8 11 18 19 22 18 4
-1 22 10 40 25 31 25 43 52 22 52 -5 0 -9 -4 -7 -8 1 -5 -12 -22 -30 -39 -25
-24 -34 -27 -47 -17 -20 14 -20 21 -1 21 8 0 11 -5 8 -10 -3 -5 0 -7 8 -5 8 3
13 12 11 21 -1 8 2 18 8 22 6 4 7 -1 3 -10 -5 -15 -3 -15 15 -4 11 7 19 16 16
20 -8 14 17 21 31 9 12 -10 19 -8 35 11 10 13 19 28 20 32 0 5 5 5 12 1 7 -4
8 -3 4 4 -4 7 -3 12 3 12 6 0 27 16 47 37 20 20 30 33 21 30 -10 -4 -13 0 -10
13 3 10 0 21 -6 24 -7 5 -11 -2 -12 -16z"/>
<path d="M11460 6199 c0 -9 12 -12 40 -10 10 0 11 -1 2 -5 -7 -3 -17 -15 -23
-26 -9 -17 -5 -16 25 7 20 15 36 30 36 34 0 3 -18 7 -40 7 -22 1 -40 -2 -40
-7z"/>
<path d="M11402 6171 c-40 -25 -48 -41 -25 -48 6 -2 10 2 9 9 0 7 3 14 8 15 5
1 13 7 18 15 7 9 8 8 4 -5 -4 -12 -2 -17 6 -14 7 2 12 12 10 22 -2 11 1 14 8
10 6 -4 9 -13 6 -21 -10 -26 11 -23 23 4 7 15 9 24 5 20 -4 -4 -12 -2 -18 6
-9 11 -18 9 -54 -13z"/>
<path d="M9813 6143 c9 -8 47 -11 47 -4 0 5 -11 9 -25 9 -14 0 -24 -2 -22 -5z"/>
<path d="M11390 6141 c0 -6 5 -11 12 -11 6 0 3 -6 -7 -14 -16 -12 -21 -11 -34
5 -15 17 -18 17 -58 -7 -24 -15 -43 -31 -43 -36 0 -6 10 -4 23 4 23 16 47 13
47 -4 0 -6 -7 -4 -17 3 -15 12 -16 12 -10 -3 4 -13 2 -15 -10 -11 -8 3 -19 0
-23 -7 -6 -9 -10 -7 -15 9 -3 12 -11 19 -16 15 -5 -3 -7 -10 -4 -15 3 -5 0 -6
-8 -4 -7 3 -31 -2 -53 -12 -21 -9 -43 -17 -49 -17 -5 -1 -11 -9 -13 -19 -2
-10 0 -17 5 -16 4 1 16 -1 25 -5 19 -9 61 11 53 25 -9 13 -25 11 -22 -3 1 -7
-5 -13 -13 -13 -8 0 -15 7 -15 15 0 8 5 15 12 15 6 0 15 3 18 7 4 4 16 -3 26
-15 10 -12 18 -17 19 -11 0 5 -5 15 -11 21 -8 8 -7 13 2 18 7 5 10 4 6 -2 -4
-6 8 -9 31 -8 44 2 92 14 93 24 0 3 2 14 4 24 2 13 -1 17 -11 13 -9 -3 -12 -1
-9 5 9 13 30 6 30 -9 0 -7 4 -13 8 -13 13 -2 77 35 77 44 0 4 -5 5 -10 2 -6
-4 -17 -1 -25 5 -11 9 -15 9 -15 1z"/>
<path d="M11230 6030 c0 -5 5 -10 10 -10 6 0 10 5 10 10 0 6 -4 10 -10 10 -5
0 -10 -4 -10 -10z"/>
<path d="M11085 6020 c-3 -5 -4 -14 -1 -18 2 -4 0 -14 -6 -22 -8 -12 -9 -12
-4 2 3 10 1 20 -3 23 -12 7 -71 -15 -71 -27 0 -6 6 -5 15 2 12 10 15 10 15 -1
0 -8 4 -7 13 5 12 16 13 16 13 -2 0 -15 -6 -18 -36 -15 -19 2 -39 4 -45 4 -18
1 -68 -12 -85 -21 -10 -5 -21 -6 -25 -2 -5 4 -5 1 -1 -6 4 -7 12 -10 17 -6 17
10 59 15 59 6 0 -4 -10 -9 -22 -9 -13 -1 -39 -4 -58 -7 -24 -4 -30 -3 -20 4 9
6 10 10 3 10 -6 0 -14 -4 -18 -9 -3 -6 -15 -8 -27 -6 -12 3 -27 0 -34 -6 -10
-8 -58 -17 -111 -21 -7 -1 -10 -5 -7 -10 3 -5 9 -6 13 -3 5 2 36 6 70 7 33 1
61 5 61 9 0 3 10 6 23 5 12 -1 40 2 62 7 76 17 90 19 103 20 6 0 12 4 12 9 0
5 -10 7 -22 3 -21 -5 -21 -5 -5 6 13 7 22 8 29 1 7 -7 19 -7 34 -2 13 5 24 7
24 4 0 -2 13 2 30 11 16 8 33 15 37 14 4 0 9 4 11 11 2 6 0 10 -5 9 -21 -4
-32 2 -27 16 7 17 -1 20 -11 5z"/>
<path d="M11150 6020 c0 -5 5 -10 11 -10 5 0 7 5 4 10 -3 6 -8 10 -11 10 -2 0
-4 -4 -4 -10z"/>
<path d="M10615 5890 c-3 -5 -1 -10 4 -10 6 0 11 5 11 10 0 6 -2 10 -4 10 -3
0 -8 -4 -11 -10z"/>
<path d="M10045 5405 c25 -81 31 -95 38 -95 5 0 5 -5 2 -10 -4 -6 -1 -18 7
-27 7 -9 12 -18 11 -20 -9 -11 -1 -33 9 -27 7 4 8 3 4 -5 -4 -6 9 -60 30 -119
20 -59 37 -113 37 -119 0 -7 6 -13 14 -13 7 0 13 -5 13 -11 0 -5 -4 -7 -10 -4
-5 3 -10 -1 -10 -9 0 -9 5 -16 10 -16 6 0 10 -13 10 -30 0 -16 5 -30 11 -30 5
0 7 -4 4 -10 -3 -5 1 -10 9 -10 9 0 16 -5 16 -11 0 -5 -4 -7 -10 -4 -13 8 -13
3 1 -32 6 -15 12 -35 14 -43 14 -55 49 -166 54 -170 4 -3 7 -12 7 -20 0 -8 6
-35 14 -60 7 -25 13 -48 12 -52 -1 -5 5 -8 13 -8 8 0 15 -5 15 -11 0 -5 -5 -7
-11 -3 -8 4 -9 -1 -3 -17 4 -13 7 -30 7 -37 0 -7 6 -11 14 -8 11 4 11 1 3 -14
-6 -11 -7 -20 -2 -20 5 0 9 -6 9 -12 0 -26 25 -118 34 -123 4 -3 6 -12 3 -19
-3 -8 2 -31 12 -52 9 -22 16 -49 15 -61 0 -13 3 -23 8 -23 4 0 9 -15 10 -32 2
-18 3 -41 4 -50 1 -10 4 -18 7 -18 3 0 12 -33 19 -72 7 -40 17 -77 21 -83 8
-10 10 -16 10 -36 0 -5 6 -7 13 -3 8 6 8 3 -1 -9 -8 -9 -11 -20 -8 -25 3 -6 8
-27 11 -47 2 -21 12 -44 22 -51 10 -8 14 -13 8 -12 -11 3 -15 -4 -15 -28 0 -9
5 -12 13 -8 9 6 9 5 0 -7 -7 -9 -8 -20 -3 -29 5 -8 6 -18 4 -22 -3 -4 0 -8 7
-8 8 0 9 -3 0 -13 -6 -8 -9 -16 -6 -19 5 -4 17 -72 18 -95 0 -7 5 -13 11 -13
6 0 4 -5 -4 -10 -9 -6 -11 -10 -3 -10 7 0 10 -7 7 -15 -4 -9 0 -15 7 -15 9 0
10 -3 4 -8 -13 -10 -14 -63 -1 -59 6 2 10 11 10 20 -1 9 4 13 13 10 7 -3 11
-8 9 -11 -3 -3 2 -11 12 -19 15 -13 15 -13 -4 -4 -30 15 -53 -11 -33 -36 12
-14 12 -15 0 -9 -10 7 -11 3 -5 -15 4 -13 8 -46 9 -74 0 -37 4 -49 14 -47 11
2 12 0 4 -10 -6 -7 -10 -31 -8 -53 2 -22 4 -46 4 -53 1 -7 6 -10 12 -6 8 4 8
1 2 -12 -5 -11 -8 -26 -7 -34 1 -8 2 -28 3 -43 0 -16 5 -26 9 -23 5 3 9 -1 9
-9 0 -8 -4 -12 -9 -9 -4 3 -8 0 -8 -5 0 -6 5 -11 10 -11 6 0 10 -5 10 -11 0
-5 -4 -7 -10 -4 -5 3 -10 1 -10 -4 0 -6 6 -11 13 -11 8 0 7 -4 -3 -10 -11 -7
-11 -10 -2 -10 7 0 11 -4 8 -9 -4 -5 0 -12 6 -14 8 -3 6 -6 -5 -6 -11 -1 -15
-6 -11 -12 7 -12 11 -54 13 -122 1 -26 5 -36 13 -31 7 5 8 3 2 -7 -12 -20 -14
-39 -3 -39 5 0 9 -5 9 -11 0 -5 -4 -8 -9 -4 -6 3 -7 -6 -2 -22 5 -16 7 -39 6
-53 -1 -14 2 -33 7 -43 6 -12 5 -17 -4 -18 -7 0 -4 -4 7 -9 11 -5 14 -9 7 -9
-16 -1 -14 -91 2 -91 7 0 8 -3 1 -8 -5 -4 -9 -14 -9 -22 1 -8 2 -44 3 -79 0
-35 3 -62 6 -60 8 9 12 199 4 193 -5 -3 -9 -1 -9 5 0 5 6 12 13 15 10 5 10 7
0 12 -7 3 -13 10 -13 15 0 6 4 8 9 4 6 -3 10 12 9 35 0 23 -4 37 -10 34 -7 -4
-7 0 0 12 5 11 10 31 10 47 0 22 -3 25 -14 16 -12 -10 -13 -9 -8 5 3 9 10 16
15 16 5 0 9 5 9 11 0 5 -6 7 -12 3 -10 -6 -10 -4 0 7 17 19 15 34 -3 19 -13
-11 -14 -10 -9 4 3 9 10 16 15 16 5 0 9 5 9 11 0 5 -6 7 -12 3 -10 -6 -10 -4
0 7 21 23 13 33 -10 13 -22 -19 -23 -19 -8 1 8 11 17 22 20 25 9 9 5 35 -5 43
-6 4 -5 10 4 16 11 7 11 9 0 14 -8 3 -9 6 -4 6 6 1 9 34 7 86 -2 49 -7 83 -13
80 -5 -4 -9 -1 -9 4 0 6 4 11 8 11 18 0 9 38 -11 47 -14 6 -17 12 -9 17 7 4
12 2 12 -4 0 -6 5 -8 10 -5 6 4 7 13 2 23 -4 9 -7 35 -6 57 1 22 -4 43 -10 47
-8 6 -8 8 1 8 14 0 5 40 -11 41 -6 0 -2 4 9 9 11 5 15 9 8 9 -6 1 -9 10 -5 23
4 16 2 19 -9 13 -11 -7 -12 -6 -3 6 6 8 9 34 6 59 -2 25 -5 60 -6 77 0 18 -3
33 -6 33 -3 0 -5 18 -3 40 1 22 -2 40 -6 40 -4 0 -7 17 -6 38 3 48 -1 54 -28
41 -20 -9 -20 -9 2 9 36 29 12 52 -29 27 -13 -7 -13 -6 -2 7 7 9 22 15 33 13
22 -4 22 -4 10 27 -5 13 -11 42 -15 66 -3 23 -11 52 -17 63 -9 17 -8 20 2 14
9 -6 10 -3 5 11 -10 24 -14 44 -15 67 -1 11 -6 15 -13 11 -7 -5 -8 -3 -3 5 4
7 2 31 -4 54 -6 23 -13 52 -14 65 -2 13 -10 28 -18 33 -11 7 -11 9 -1 9 8 0
10 5 5 13 -4 6 -6 19 -5 29 2 9 -2 19 -8 23 -5 3 -10 15 -10 26 0 13 -4 18
-12 13 -10 -5 -10 -4 -1 6 8 9 9 19 3 30 -5 10 -12 32 -15 51 -7 39 -23 61
-38 52 -6 -3 -7 -1 -3 6 4 6 12 9 17 6 5 -4 9 -1 9 4 0 6 -4 11 -8 11 -4 0 -8
8 -8 18 -1 29 -8 46 -24 60 -10 9 -10 11 -1 6 10 -5 11 -1 6 17 -4 13 -11 26
-14 29 -4 3 -7 12 -7 20 -1 34 -17 69 -32 73 -15 4 -15 5 0 6 17 1 17 3 1 36
-9 19 -21 31 -27 28 -7 -4 -6 -1 1 7 12 13 1 61 -20 88 -5 6 -7 12 -4 12 2 0
-1 17 -8 38 -8 22 -20 36 -29 36 -8 -1 -12 4 -9 12 3 8 9 11 15 8 6 -4 6 1 0
12 -15 27 -72 177 -72 188 0 5 -8 18 -17 29 -10 11 -12 17 -6 13 9 -5 11 -2 7
8 -3 9 -10 13 -16 10 -5 -3 -8 0 -7 7 5 24 -12 79 -22 73 -5 -3 -6 -10 -3 -16
4 -7 2 -8 -4 -4 -9 5 -9 13 -2 27 8 13 7 19 0 19 -6 0 -9 4 -6 8 2 4 -1 21 -9
37 -7 17 -19 45 -26 63 -8 17 -17 32 -21 32 -4 0 -5 6 -2 14 3 7 -1 20 -8 27
-7 8 -14 21 -16 30 -1 8 -13 38 -28 65 -14 27 -22 40 -19 29z m182 -517 c-3
-7 -5 -2 -5 12 0 14 2 19 5 13 2 -7 2 -19 0 -25z m45 -75 c-6 -2 -9 -10 -6
-15 4 -7 2 -8 -5 -4 -13 9 -5 26 12 25 9 0 8 -2 -1 -6z m18 -33 c0 -5 -5 -10
-11 -10 -5 0 -7 5 -4 10 3 6 8 10 11 10 2 0 4 -4 4 -10z m15 -88 c-3 -3 -11 0
-18 7 -9 10 -8 11 6 5 10 -3 15 -9 12 -12z m27 -50 c-7 -2 -10 -8 -7 -12 3 -5
0 -12 -6 -16 -8 -4 -9 -3 -5 4 4 7 1 12 -6 13 -10 0 -10 2 0 6 6 2 10 9 7 14
-4 5 2 6 11 2 11 -4 13 -8 6 -11z m32 -72 c-6 -6 -10 -3 -10 10 0 13 4 16 10
10 7 -7 7 -13 0 -20z m-9 -30 c-3 -5 -12 -10 -18 -10 -7 0 -6 4 3 10 19 12 23
12 15 0z m12 -45 c0 -8 -4 -12 -9 -9 -4 3 -8 9 -8 15 0 5 4 9 8 9 5 0 9 -7 9
-15z m17 -91 c3 -8 2 -12 -4 -9 -6 3 -10 10 -10 16 0 14 7 11 14 -7z m42 -66
c5 -7 3 -8 -6 -3 -10 6 -12 4 -6 -11 5 -14 4 -16 -5 -7 -6 6 -8 16 -5 22 9 14
13 14 22 -1z m28 -57 c4 -5 -3 -7 -14 -4 -23 6 -26 13 -6 13 8 0 17 -4 20 -9z
m-22 -43 c-6 -6 -12 -6 -17 3 -5 8 -4 10 3 5 7 -4 12 0 13 11 0 12 2 13 6 5 3
-8 1 -18 -5 -24z m9 -71 c-10 -9 -11 -8 -5 6 3 10 9 15 12 12 3 -3 0 -11 -7
-18z m40 -25 c-7 -2 -18 1 -23 6 -8 8 -4 9 13 5 13 -4 18 -8 10 -11z m29 -44
c0 -6 -3 -8 -7 -5 -3 4 -13 1 -22 -6 -14 -11 -14 -10 -2 6 15 20 31 22 31 5z
m10 -123 c11 -13 10 -14 -5 -9 -14 6 -16 4 -10 -6 5 -8 4 -11 -3 -6 -6 4 -9
13 -5 21 7 19 8 19 23 0z m27 -39 c0 -8 -6 -12 -15 -8 -11 4 -13 1 -7 -8 5 -9
4 -11 -4 -6 -9 6 -9 11 0 22 15 18 26 18 26 0z m-23 -58 c-5 -7 -2 -9 9 -5 10
4 14 2 11 -7 -7 -18 -32 -16 -29 3 5 22 4 21 11 21 3 0 2 -5 -2 -12z m43 -46
c0 -10 -7 -19 -14 -19 -9 0 -10 4 -3 12 5 7 7 15 3 18 -3 4 -1 7 5 7 6 0 10
-8 9 -18z m-2 -61 c-6 -5 -25 10 -25 20 0 5 6 4 14 -3 8 -7 12 -15 11 -17z
m35 -26 c0 -12 -19 -12 -23 0 -4 9 -1 12 9 8 7 -3 14 -7 14 -8z m-33 -37 c4
-28 -6 -18 -12 12 -2 12 -1 20 2 16 4 -4 8 -16 10 -28z m43 -43 c0 -11 -29
-11 -33 -1 -4 10 1 12 14 9 10 -3 19 -7 19 -8z m-7 -89 c3 -8 0 -17 -7 -19
-10 -4 -12 1 -9 14 6 23 9 24 16 5z m7 -116 c0 -5 -2 -10 -4 -10 -3 0 -8 5
-11 10 -3 6 -1 10 4 10 6 0 11 -4 11 -10z m47 -146 c-3 -3 -12 -4 -19 -1 -8 3
-5 6 6 6 11 1 17 -2 13 -5z m-16 -127 c-10 -9 -11 -8 -5 6 3 10 9 15 12 12 3
-3 0 -11 -7 -18z m4 -56 c3 -5 2 -12 -3 -15 -5 -3 -9 1 -9 9 0 17 3 19 12 6z
m12 -47 c-3 -3 -12 -4 -19 -1 -8 3 -5 6 6 6 11 1 17 -2 13 -5z m13 -64 c0 -5
-4 -10 -10 -10 -5 0 -10 5 -10 10 0 6 5 10 10 10 6 0 10 -4 10 -10z m15 -128
c-3 -3 -11 0 -18 7 -9 10 -8 11 6 5 10 -3 15 -9 12 -12z m12 -74 c-3 -8 -6 -5
-6 6 -1 11 2 17 5 13 3 -3 4 -12 1 -19z m-6 -41 c-10 -9 -11 -8 -5 6 3 10 9
15 12 12 3 -3 0 -11 -7 -18z m-5 -93 c1 -9 0 -13 -4 -10 -3 4 -7 14 -8 22 -1
9 0 13 4 10 3 -4 7 -14 8 -22z m7 -37 c3 -8 -1 -14 -8 -14 -7 0 -11 6 -8 14 3
7 6 13 8 13 2 0 5 -6 8 -13z"/>
<path d="M765 4410 c-3 -5 -17 -46 -29 -90 -16 -55 -20 -81 -12 -84 7 -3 6 -5
-3 -5 -11 -1 -11 -4 -1 -16 11 -13 10 -14 -3 -9 -11 4 -16 0 -15 -13 0 -10 -4
-37 -9 -60 -8 -29 -7 -45 1 -54 8 -9 8 -10 -1 -5 -8 5 -13 1 -14 -11 0 -10 -2
-29 -4 -43 -16 -117 -24 -330 -13 -330 4 0 3 -11 -2 -25 -5 -14 -8 -30 -5 -37
2 -7 6 -49 10 -93 3 -44 11 -83 18 -87 9 -6 9 -8 -1 -8 -7 0 -11 -4 -8 -9 3
-4 8 -28 11 -51 5 -41 20 -106 33 -140 8 -22 9 -28 11 -46 0 -8 4 -13 9 -11 4
3 8 -8 8 -25 1 -17 7 -34 13 -38 7 -4 12 -10 12 -14 -4 -29 1 -46 11 -40 6 4
8 3 4 -4 -8 -13 14 -63 25 -57 4 3 5 -5 1 -17 -3 -14 -1 -19 6 -14 8 5 10 2 6
-8 -3 -9 -1 -16 5 -16 6 0 10 -3 10 -7 -4 -18 24 -73 36 -73 8 0 17 -4 20 -10
3 -6 -1 -7 -10 -4 -10 4 -3 -15 21 -55 20 -33 40 -59 44 -56 5 3 12 0 16 -6 4
-8 3 -9 -4 -5 -19 12 -14 -8 8 -32 11 -12 20 -24 20 -27 0 -8 109 -145 115
-145 2 0 -6 15 -18 33 -12 18 -31 52 -42 75 -11 23 -25 40 -31 38 -6 -2 -10 6
-10 18 1 12 -4 20 -12 18 -8 -1 -11 2 -7 9 4 6 -2 29 -13 52 -36 74 -79 171
-92 209 -8 20 -16 35 -19 33 -3 -1 -7 11 -8 28 -2 18 -7 33 -12 35 -6 2 -7 10
-4 18 3 8 -1 14 -8 14 -7 0 -10 2 -7 6 3 3 0 25 -7 49 -8 24 -11 46 -8 49 4 3
1 6 -6 6 -7 0 -10 3 -8 8 3 4 0 18 -6 32 -10 26 -13 38 -15 83 -1 19 -6 26
-14 21 -10 -5 -10 -4 -2 5 14 15 6 63 -10 54 -8 -4 -8 -2 1 7 7 8 8 22 2 42
-4 17 -6 35 -3 39 3 5 2 9 -3 9 -4 0 -6 25 -5 56 4 56 4 56 -20 44 -22 -11
-22 -11 -3 5 11 9 19 20 18 25 -2 5 -3 83 -4 174 0 124 -3 165 -12 159 -7 -3
-3 4 8 17 l20 23 -20 -6 c-18 -6 -18 -6 -3 6 19 15 18 44 -3 59 -11 8 -10 9 4
4 16 -5 17 -1 14 34 -2 23 -1 43 3 45 4 2 8 23 9 47 5 100 16 182 27 200 3 4
3 8 0 8 -3 0 -8 -4 -11 -10z m-78 -795 c0 -8 -4 -12 -9 -9 -4 3 -8 9 -8 15 0
5 4 9 8 9 5 0 9 -7 9 -15z m63 -215 c0 -5 -5 -10 -11 -10 -5 0 -7 5 -4 10 3 6
8 10 11 10 2 0 4 -4 4 -10z m-20 -76 c0 -8 -19 -13 -24 -6 -3 5 1 9 9 9 8 0
15 -2 15 -3z m155 -423 c3 -5 2 -12 -3 -15 -5 -3 -9 1 -9 9 0 17 3 19 12 6z"/>
<path d="M350 3580 c0 -11 4 -20 9 -20 5 0 7 9 4 20 -3 11 -7 20 -9 20 -2 0
-4 -9 -4 -20z"/>
<path d="M352 3520 c0 -16 4 -30 9 -30 5 0 9 -5 9 -11 0 -5 -5 -7 -10 -4 -13
8 -8 -18 5 -27 6 -4 15 -8 20 -8 7 0 7 3 0 8 -5 4 -10 15 -11 25 -3 65 -5 77
-12 77 -5 0 -9 -13 -10 -30z"/>
<path d="M355 3423 c2 -10 4 -18 5 -18 1 0 4 -29 6 -65 3 -36 5 -71 6 -77 1
-12 12 -17 31 -14 4 0 7 -4 7 -10 0 -6 -10 -8 -22 -5 -13 3 -18 4 -12 1 5 -3
9 -18 8 -34 -2 -24 3 -31 23 -36 14 -3 23 -9 19 -12 -3 -3 0 -13 7 -21 9 -13
9 -14 0 -8 -15 8 -17 -3 -4 -23 12 -19 24 3 16 29 -7 22 -17 67 -19 90 -1 9
-4 20 -7 25 -3 6 -6 24 -7 40 -1 17 -7 32 -12 33 -6 2 -10 8 -10 13 0 6 6 7
13 3 9 -6 9 -4 -1 8 -7 8 -10 23 -6 32 3 9 1 16 -5 16 -6 0 -11 -5 -11 -12 0
-6 -3 -9 -6 -6 -3 3 1 16 8 27 11 18 11 23 -2 31 -22 14 -29 12 -25 -7z m40
-134 c-5 -16 -4 -19 5 -14 9 6 11 4 5 -4 -10 -18 -27 2 -19 22 9 25 17 21 9
-4z m23 -99 c12 -19 11 -20 -8 -8 -20 13 -27 28 -12 28 4 0 13 -9 20 -20z"/>
<path d="M388 3147 c7 -8 9 -17 5 -20 -3 -4 -1 -7 5 -7 27 0 21 32 -7 38 -11
2 -12 0 -3 -11z"/>
<path d="M399 3093 c5 -10 9 -22 9 -28 0 -5 6 -11 14 -13 9 -2 8 0 -2 7 -12 8
-11 10 7 8 18 -1 20 -4 10 -15 -9 -11 -6 -18 12 -33 14 -12 18 -19 10 -19 -10
-1 -8 -5 5 -15 18 -13 18 -14 -2 -12 -11 0 -18 5 -16 9 3 4 -1 8 -8 8 -10 0
-10 2 1 9 8 5 9 11 3 15 -15 9 -21 -5 -15 -36 4 -21 10 -26 29 -24 30 3 38 11
28 28 -5 7 -9 20 -11 28 -1 8 -7 16 -12 18 -6 2 -11 8 -11 13 0 6 4 7 10 4 6
-4 7 2 1 17 -4 13 -13 24 -20 24 -6 1 -16 2 -22 3 -5 0 -7 6 -4 11 3 6 -1 10
-10 10 -12 0 -13 -4 -6 -17z"/>
<path d="M410 3030 c0 -5 5 -10 11 -10 5 0 7 5 4 10 -3 6 -8 10 -11 10 -2 0
-4 -4 -4 -10z"/>
<path d="M446 2941 c-7 -11 26 -111 36 -111 12 0 10 18 -3 25 -6 4 -8 13 -5
20 2 7 -2 22 -10 34 -9 12 -11 21 -5 21 6 0 11 -5 11 -11 0 -5 5 -7 12 -3 7 5
9 2 6 -8 -4 -8 2 -22 13 -31 10 -9 19 -22 19 -28 0 -6 -9 -1 -20 12 -10 13
-19 19 -20 14 0 -6 5 -16 12 -23 8 -8 8 -15 -2 -27 -8 -9 -8 -15 -2 -15 6 0
14 5 17 11 4 6 13 8 20 5 10 -4 11 2 4 27 -5 18 -14 34 -19 35 -6 2 -8 8 -5
13 10 15 -12 45 -34 46 -11 1 -23 -2 -25 -6z"/>
<path d="M500 2805 c-9 -11 -9 -15 -1 -15 7 0 10 -4 6 -9 -3 -5 0 -15 7 -23 7
-7 13 -17 13 -23 1 -5 12 -31 25 -58 18 -35 28 -46 41 -42 16 5 51 -28 62 -58
2 -7 8 -9 12 -5 4 4 0 14 -8 23 -9 8 -19 24 -22 35 -3 11 -13 20 -21 20 -8 0
-14 5 -14 11 0 5 5 7 11 4 6 -4 -2 17 -17 46 -15 30 -29 61 -30 69 -3 14 -31
40 -45 40 -3 0 -12 -7 -19 -15z m37 -24 c-10 -12 -9 -14 8 -7 15 5 17 4 8 -4
-8 -9 -16 -9 -30 -1 -14 8 -14 11 -3 11 13 0 13 1 0 10 -12 7 -10 9 7 7 18 -1
20 -4 10 -16z m31 -43 c8 -10 4 -13 -16 -14 -15 -1 -21 1 -14 3 6 3 10 9 6 14
-8 14 12 11 24 -3z m0 -39 c-2 -6 3 -14 10 -16 8 -3 10 2 6 14 -5 14 -4 15 4
3 7 -9 7 -19 2 -26 -6 -6 -7 -14 -3 -17 3 -4 2 -7 -4 -7 -6 0 -13 8 -17 18 -3
9 -9 23 -12 30 -3 6 -1 12 5 12 6 0 10 -5 9 -11z"/>
<path d="M590 2614 c0 -8 5 -12 11 -9 6 4 10 1 8 -6 -3 -24 1 -35 19 -55 9
-10 25 -36 34 -56 10 -21 23 -38 30 -38 6 0 8 3 5 7 -4 3 -2 12 4 19 6 7 7 19
3 26 -5 7 -9 18 -9 23 0 6 -10 10 -22 10 -13 0 -28 7 -35 15 -11 12 -11 12 2
3 10 -8 21 -9 30 -3 13 8 13 10 -2 10 -9 0 -25 16 -37 35 -21 37 -41 46 -41
19z m37 -46 c-3 -8 -6 -5 -6 6 -1 11 2 17 5 13 3 -3 4 -12 1 -19z m55 -45 c-6
-2 -9 -10 -6 -15 4 -7 2 -8 -5 -4 -13 9 -5 26 12 25 9 0 8 -2 -1 -6z m13 -33
c-3 -5 -12 -10 -18 -10 -7 0 -6 4 3 10 19 12 23 12 15 0z"/>
<path d="M703 2448 c-2 -23 26 -78 39 -78 4 0 8 -6 8 -13 0 -8 17 -32 38 -55
21 -22 36 -45 34 -51 -2 -6 3 -8 12 -5 12 5 13 9 3 25 -6 10 -15 19 -19 19 -5
0 -8 7 -8 16 0 8 -5 12 -11 9 -6 -4 -9 -1 -7 6 3 17 -24 79 -34 79 -5 0 -8 7
-8 16 0 11 -6 15 -20 11 -11 -3 -20 -1 -20 4 0 5 8 9 18 10 10 0 12 3 4 6 -6
2 -10 9 -6 14 3 5 -1 9 -8 9 -8 0 -14 -10 -15 -22z m60 -78 c36 -52 30 -51
-12 0 -17 22 -28 40 -24 40 4 0 21 -18 36 -40z"/>
<path d="M846 2232 c-6 -10 19 -50 27 -42 2 3 -2 16 -9 28 -6 13 -14 20 -18
14z"/>
<path d="M5999 1843 c-7 -21 -18 -48 -26 -60 -8 -12 -12 -26 -9 -32 3 -5 3
-11 -2 -13 -4 -1 -18 -20 -30 -42 -20 -34 -21 -38 -5 -32 16 5 17 5 2 -7 -28
-21 -60 -85 -46 -91 7 -2 4 -5 -6 -5 -10 -1 -17 -6 -15 -13 2 -6 -4 -20 -15
-31 -10 -10 -16 -25 -13 -33 3 -8 2 -13 -2 -10 -5 3 -17 -12 -27 -32 -11 -20
-30 -54 -42 -74 -13 -21 -20 -38 -16 -38 5 0 1 -6 -7 -13 -22 -17 -60 -93 -52
-103 4 -4 1 -4 -5 0 -7 4 -13 3 -13 -2 0 -5 -11 -22 -25 -38 -14 -16 -25 -32
-25 -36 0 -3 -12 -20 -26 -37 -14 -17 -22 -36 -18 -42 4 -7 3 -9 -3 -6 -6 4
-18 -3 -26 -16 -8 -12 -25 -34 -38 -48 -68 -75 -88 -102 -82 -112 3 -6 1 -7
-6 -3 -7 5 -33 -14 -67 -48 -31 -31 -58 -56 -61 -56 -3 0 -16 -11 -29 -25 -13
-14 -27 -25 -33 -25 -5 0 -11 -3 -13 -7 -1 -5 -22 -21 -46 -37 -32 -22 -39
-32 -30 -38 9 -6 6 -7 -8 -3 -14 3 -29 -2 -45 -17 -14 -13 -29 -25 -34 -28 -6
-3 -9 -9 -7 -13 1 -5 -2 -6 -8 -2 -9 6 -118 -49 -130 -66 -3 -4 -14 -9 -25
-11 -11 -2 -19 -9 -18 -15 2 -7 -5 -11 -15 -11 -9 1 -56 -17 -105 -40 -48 -23
-95 -42 -104 -42 -9 0 -14 -3 -10 -6 9 -10 139 27 161 45 11 9 16 11 13 4 -8
-13 30 -6 39 8 3 5 14 9 25 9 10 0 19 5 19 11 0 5 4 8 9 4 12 -7 81 25 99 45
8 8 11 9 7 3 -5 -12 52 13 65 28 3 3 20 11 38 18 17 8 32 17 32 22 0 5 3 8 8
7 9 -3 86 43 90 54 2 5 8 6 13 2 5 -3 9 -1 9 5 0 5 25 27 56 47 31 20 61 45
67 56 7 10 16 18 21 18 15 0 201 200 188 200 -4 0 2 7 12 15 11 8 17 15 13 15
-3 0 5 12 18 26 14 15 22 30 19 35 -3 5 -1 9 4 9 15 0 64 80 58 95 -3 9 0 12
10 8 8 -3 14 1 14 10 0 8 7 20 15 27 8 7 12 16 9 21 -3 5 0 9 7 9 7 0 9 3 6 6
-4 4 2 19 11 33 24 34 132 262 132 278 0 2 -6 1 -12 -2 -7 -4 -6 -1 2 7 22 18
53 105 44 120 -4 7 -3 10 1 5 8 -7 44 91 60 161 9 44 -1 41 -16 -5z m-309
-663 c0 -5 -5 -10 -11 -10 -5 0 -7 5 -4 10 3 6 8 10 11 10 2 0 4 -4 4 -10z m0
-34 c0 -2 -7 -7 -16 -10 -8 -3 -12 -2 -9 4 6 10 25 14 25 6z m-60 -106 c0 -5
-5 -10 -11 -10 -5 0 -7 5 -4 10 3 6 8 10 11 10 2 0 4 -4 4 -10z m-109 -107
c13 -16 12 -17 -3 -4 -10 7 -18 15 -18 17 0 8 8 3 21 -13z m-210 -190 c13 -16
12 -17 -3 -4 -10 7 -18 15 -18 17 0 8 8 3 21 -13z"/>
</g>
</svg>
