<?xml version="1.0" encoding="utf-8"?>
<!-- Generator: Adobe Illustrator 27.0.0, SVG Export Plug-In . SVG Version: 6.00 Build 0)  -->
<svg version="1.1" id="Layer_1" xmlns="http://www.w3.org/2000/svg" xmlns:xlink="http://www.w3.org/1999/xlink" x="0px" y="0px"
	 viewBox="0 0 300 250" style="enable-background:new 0 0 300 250;" xml:space="preserve">
<style type="text/css">
	.st0{fill:#4A94C0;}
</style>
<g>
	<path class="st0" d="M131.3,176.1c0-0.6,0.1-1.2,0.3-1.8c0.2-0.6,0.4-1.2,0.7-1.7l4-7.2c0.1-0.1,0.2-0.1,0.3-0.1h2.2
		c0.2,0,0.2,0.1,0.1,0.2l-3.4,6.2l0,0c0.1-0.1,0.3-0.1,0.5-0.1c0.2,0,0.4-0.1,0.7-0.1c0.6,0,1.2,0.1,1.7,0.3c0.5,0.2,1,0.5,1.4,0.9
		c0.4,0.4,0.7,0.9,0.9,1.4c0.2,0.6,0.3,1.2,0.3,1.9c0,0.8-0.1,1.5-0.4,2.1c-0.3,0.6-0.6,1.1-1,1.5c-0.4,0.4-1,0.7-1.6,0.9
		c-0.6,0.2-1.2,0.3-1.9,0.3c-0.7,0-1.3-0.1-1.9-0.3c-0.6-0.2-1.1-0.5-1.6-0.9c-0.4-0.4-0.8-0.9-1-1.5S131.3,176.8,131.3,176.1z
		 M133.9,176.1c0,0.7,0.2,1.3,0.6,1.8c0.4,0.5,1,0.7,1.7,0.7c0.7,0,1.3-0.2,1.7-0.7c0.4-0.5,0.6-1,0.6-1.8c0-0.7-0.2-1.3-0.6-1.8
		c-0.4-0.5-1-0.7-1.7-0.7c-0.7,0-1.3,0.2-1.7,0.7C134.1,174.8,133.9,175.4,133.9,176.1z"/>
	<path class="st0" d="M143.7,175.7c-0.2,0-0.2-0.1-0.2-0.2v-1.8c0-0.2,0.1-0.2,0.2-0.2h6.2c0.2,0,0.2,0.1,0.2,0.2v1.8
		c0,0.2-0.1,0.2-0.2,0.2H143.7z"/>
	<path class="st0" d="M152.4,176.2c0-0.9,0.2-1.6,0.6-2.3c0.4-0.6,0.8-1.1,1.4-1.4v0c-0.4-0.3-0.8-0.7-1.1-1.2
		c-0.3-0.5-0.5-1.2-0.5-2c0-0.6,0.1-1.1,0.3-1.7c0.2-0.5,0.5-1,0.9-1.4c0.4-0.4,0.9-0.7,1.5-1c0.6-0.2,1.2-0.4,2-0.4
		c0.7,0,1.4,0.1,2,0.4c0.6,0.2,1.1,0.6,1.5,1c0.4,0.4,0.7,0.9,0.9,1.4c0.2,0.5,0.3,1.1,0.3,1.7c0,0.8-0.2,1.4-0.5,2
		c-0.3,0.5-0.7,0.9-1.1,1.2v0c0.5,0.3,1,0.8,1.4,1.4c0.4,0.6,0.6,1.4,0.6,2.3c0,0.7-0.1,1.3-0.4,1.9c-0.2,0.6-0.6,1.1-1,1.5
		c-0.4,0.4-1,0.7-1.6,1c-0.6,0.2-1.3,0.3-2,0.3c-0.7,0-1.4-0.1-2-0.3c-0.6-0.2-1.1-0.5-1.6-1c-0.4-0.4-0.8-0.9-1-1.5
		C152.5,177.5,152.4,176.9,152.4,176.2z M155,176.1c0,0.7,0.2,1.3,0.7,1.8c0.4,0.5,1,0.7,1.8,0.7c0.7,0,1.3-0.2,1.8-0.7
		c0.4-0.5,0.7-1.1,0.7-1.8c0-0.7-0.2-1.3-0.7-1.8c-0.4-0.5-1-0.7-1.8-0.7c-0.7,0-1.3,0.2-1.8,0.7C155.2,174.8,155,175.4,155,176.1z
		 M157.4,171.3c0.6,0,1.1-0.2,1.5-0.6c0.4-0.4,0.6-0.9,0.6-1.5c0-0.6-0.2-1.1-0.6-1.5c-0.4-0.4-0.9-0.6-1.5-0.6s-1.1,0.2-1.5,0.6
		c-0.4,0.4-0.6,0.9-0.6,1.5c0,0.6,0.2,1,0.6,1.5C156.2,171.1,156.7,171.3,157.4,171.3z"/>
	<path class="st0" d="M170.7,165.4c0-0.2,0.1-0.2,0.2-0.2h9.7c0.2,0,0.2,0.1,0.2,0.2v2c0,0.2-0.1,0.2-0.2,0.2h-7.1
		c-0.1,0-0.1,0-0.1,0.1v3.9c0,0.1,0,0.1,0.1,0.1h6c0.2,0,0.2,0.1,0.2,0.2v2c0,0.2-0.1,0.2-0.2,0.2h-6c-0.1,0-0.1,0-0.1,0.1v6.1
		c0,0.2-0.1,0.2-0.2,0.2h-2.2c-0.2,0-0.2-0.1-0.2-0.2V165.4z"/>
	<path class="st0" d="M183.5,165.4c0-0.2,0.1-0.2,0.2-0.2h9.7c0.2,0,0.2,0.1,0.2,0.2v2c0,0.2-0.1,0.2-0.2,0.2h-7.1
		c-0.1,0-0.1,0-0.1,0.1v3.8c0,0.1,0,0.1,0.1,0.1h6c0.2,0,0.2,0.1,0.2,0.2v2c0,0.2-0.1,0.2-0.2,0.2h-6c-0.1,0-0.1,0-0.1,0.1v3.9
		c0,0.1,0,0.1,0.1,0.1h7.1c0.2,0,0.2,0.1,0.2,0.2v2c0,0.2-0.1,0.2-0.2,0.2h-9.7c-0.2,0-0.2-0.1-0.2-0.2V165.4z"/>
	<path class="st0" d="M196.4,165.4c0-0.2,0.1-0.2,0.2-0.2h5.7c1.6,0,2.8,0.4,3.6,1.1c0.8,0.8,1.2,1.7,1.2,3c0,0.9-0.2,1.6-0.5,2.1
		c-0.4,0.5-0.8,0.9-1.3,1.2v0c0.2,0.1,0.5,0.2,0.7,0.4c0.2,0.2,0.5,0.4,0.7,0.7c0.2,0.3,0.4,0.6,0.5,1c0.1,0.4,0.2,0.8,0.2,1.3
		c0,1.5-0.5,2.7-1.4,3.4c-0.9,0.7-2.2,1.1-3.9,1.1h-5.5c-0.2,0-0.2-0.1-0.2-0.2V165.4z M202.3,171.6c0.7,0,1.2-0.2,1.6-0.6
		c0.4-0.4,0.6-0.9,0.6-1.5c0-0.6-0.2-1.1-0.6-1.5c-0.4-0.4-0.9-0.6-1.6-0.6h-3.1c-0.1,0-0.1,0-0.1,0.1v3.8c0,0.1,0,0.1,0.1,0.1
		H202.3z M199.1,178.1c0,0.1,0,0.1,0.1,0.1h3.2c0.8,0,1.3-0.2,1.7-0.6c0.4-0.4,0.6-0.9,0.6-1.6c0-0.6-0.2-1.2-0.6-1.5
		c-0.4-0.4-1-0.6-1.7-0.6h-3.2c-0.1,0-0.1,0-0.1,0.1V178.1z"/>
</g>
<g>
	<path class="st0" d="M74.7,188.7c0.1-0.1,0.2-0.1,0.3,0l1.2,0.8c0.1,0.1,0.1,0.2,0.1,0.3c-0.3,0.5-0.5,1-0.5,1.5
		c0,0.5,0.3,1.1,0.8,1.6c0.4,0.4,0.8,0.7,1.2,0.8c0.5,0.1,0.9,0.1,1.4-0.1c0.2-0.1,0.4-0.2,0.7-0.4c0.2-0.2,0.5-0.4,0.9-0.7
		c0.4-0.3,0.6-0.6,0.8-0.8c0.2-0.2,0.3-0.4,0.5-0.6c0.3-0.5,0.4-0.9,0.3-1.4c-0.1-0.5-0.3-0.9-0.7-1.3c-0.4-0.5-0.9-0.7-1.3-0.8
		c-0.5-0.1-0.9-0.1-1.2,0.1c-0.2,0.1-0.3,0-0.4,0l-0.9-1c-0.1-0.1-0.1-0.2,0-0.3l6.1-5.5c0.1-0.1,0.2-0.1,0.3,0l5.2,5.7
		c0.1,0.1,0.1,0.2,0,0.3l-1,0.9c-0.1,0.1-0.2,0.1-0.3,0l-4.1-4.5c-0.1-0.1-0.1-0.1-0.2,0l-3.2,2.9l0,0.1c0.3,0,0.7,0,1.1,0.2
		c0.5,0.2,0.9,0.5,1.3,1c0.6,0.7,1,1.4,1.2,2.2c0.1,0.8,0,1.5-0.5,2.3c-0.2,0.3-0.4,0.6-0.7,0.9c-0.3,0.3-0.6,0.7-1.1,1.1
		c-0.4,0.4-0.8,0.7-1.1,0.9c-0.3,0.2-0.7,0.4-0.9,0.5c-0.8,0.4-1.7,0.5-2.5,0.2c-0.8-0.2-1.6-0.7-2.3-1.4c-0.4-0.4-0.7-0.9-0.9-1.4
		c-0.2-0.5-0.4-1-0.4-1.4c0-0.5,0-0.9,0.1-1.4C74.1,189.5,74.4,189.1,74.7,188.7z"/>
	<path class="st0" d="M89.7,198.5L89.7,198.5c-0.2-0.1-0.4-0.2-0.7-0.3c-0.3-0.1-0.5-0.3-0.8-0.5c-0.5-0.4-0.8-0.8-1.1-1.4
		c-0.3-0.5-0.4-1-0.5-1.6c0-0.6,0-1.1,0.2-1.7c0.2-0.6,0.5-1.1,1-1.7c0.5-0.6,1-1,1.6-1.3c0.6-0.3,1.1-0.5,1.7-0.5
		c0.6,0,1.2,0.1,1.8,0.3c0.6,0.2,1.1,0.5,1.6,1c0.5,0.4,0.9,0.9,1.2,1.5c0.3,0.5,0.5,1.1,0.5,1.7c0,0.6,0,1.2-0.2,1.8
		c-0.2,0.6-0.5,1.2-1,1.7c-0.4,0.5-0.9,0.9-1.4,1.2c-0.5,0.3-1.1,0.6-1.7,0.8l-7.7,3c-0.1,0-0.2,0-0.3-0.1l-1.2-1
		c-0.1-0.1-0.1-0.2,0-0.3L89.7,198.5z M89.7,196.6c0.6,0.6,1.3,0.8,2.1,0.7c0.7-0.1,1.4-0.5,1.9-1.1c0.6-0.7,0.8-1.4,0.8-2.1
		s-0.4-1.4-1-1.9c-0.6-0.6-1.3-0.8-2.1-0.7c-0.7,0.1-1.4,0.5-2,1.1c-0.6,0.7-0.8,1.4-0.8,2.1C88.7,195.4,89.1,196,89.7,196.6z"/>
	<path class="st0" d="M98.7,202.4c-0.4-0.3-0.7-0.6-1-1c-0.2-0.4-0.4-0.8-0.5-1.2c-0.1-0.4-0.1-0.8,0-1.3c0.1-0.4,0.3-0.8,0.5-1.2
		c0.3-0.4,0.6-0.7,1-0.9c0.4-0.2,0.8-0.4,1.2-0.5s0.8-0.1,1.3,0c0.4,0.1,0.8,0.3,1.2,0.6c0.4,0.3,0.7,0.6,0.9,1
		c0.2,0.4,0.4,0.8,0.5,1.2c0.1,0.4,0.1,0.8,0,1.3c-0.1,0.4-0.3,0.8-0.5,1.2c-0.3,0.4-0.6,0.7-1,0.9c-0.4,0.2-0.8,0.4-1.2,0.5
		c-0.4,0.1-0.8,0.1-1.3,0C99.5,202.8,99.1,202.6,98.7,202.4z M99.4,201.4c0.5,0.3,1,0.5,1.6,0.4c0.5-0.1,1-0.4,1.3-0.9
		c0.4-0.5,0.5-1,0.4-1.6c-0.1-0.5-0.4-1-0.9-1.3c-0.5-0.3-1-0.5-1.6-0.4c-0.5,0.1-1,0.4-1.3,0.9c-0.4,0.5-0.5,1-0.4,1.6
		C98.6,200.6,98.9,201,99.4,201.4z"/>
	<path class="st0" d="M109.2,204.2L109.2,204.2l-3.2,0.3c-0.2,0-0.2-0.1-0.2-0.2l0.8-1.5c0.1-0.1,0.2-0.2,0.3-0.2l3.3-0.4
		c0.1,0,0.3,0,0.4,0.1l1.2,0.7c0.1,0.1,0.2,0.2,0.1,0.3l-7.3,13.1c-0.1,0.1-0.2,0.2-0.3,0.1l-1.3-0.7c-0.1-0.1-0.2-0.2-0.1-0.3
		L109.2,204.2z"/>
	<path class="st0" d="M118.4,215.7L118.4,215.7c-0.2,0-0.4,0-0.7-0.1c-0.3,0-0.6-0.1-0.9-0.3c-0.6-0.2-1-0.6-1.4-1
		c-0.4-0.4-0.7-0.9-0.9-1.4c-0.2-0.5-0.3-1.1-0.3-1.7c0-0.6,0.2-1.2,0.4-1.9c0.3-0.7,0.7-1.3,1.1-1.7c0.5-0.4,1-0.8,1.5-1
		c0.6-0.2,1.1-0.3,1.8-0.3c0.6,0,1.2,0.2,1.9,0.4c0.6,0.3,1.2,0.6,1.6,1c0.4,0.4,0.8,0.9,1,1.4c0.2,0.5,0.3,1.1,0.3,1.8
		c0,0.6-0.2,1.3-0.4,2c-0.2,0.6-0.6,1.1-1,1.6c-0.4,0.5-0.9,0.9-1.3,1.3l-6.5,5.2c-0.1,0.1-0.2,0.1-0.3,0l-1.4-0.6
		c-0.2-0.1-0.2-0.2,0-0.3L118.4,215.7z M117.8,213.9c0.8,0.3,1.5,0.3,2.2,0c0.7-0.3,1.2-0.8,1.5-1.6c0.3-0.8,0.4-1.5,0.1-2.2
		c-0.2-0.7-0.8-1.2-1.5-1.5c-0.8-0.3-1.5-0.3-2.2,0c-0.7,0.3-1.2,0.9-1.5,1.6c-0.3,0.8-0.4,1.5-0.1,2.2
		C116.5,213.1,117.1,213.6,117.8,213.9z"/>
	<path class="st0" d="M125.7,213.4c-0.1,0-0.2-0.1-0.1-0.3l1.2-3.4c0-0.1,0.1-0.2,0.3-0.1l1.3,0.5c0.1,0,0.2,0.1,0.1,0.3l-0.6,1.8
		c0,0.1-0.1,0.2-0.1,0.3c0,0.1-0.1,0.1-0.2,0.2l-1.5,0.8C125.9,213.4,125.8,213.5,125.7,213.4z"/>
	<path class="st0" d="M126.9,223.1c-0.1,0-0.2-0.1-0.2-0.3l0.3-1.2c0-0.1,0.1-0.2,0.1-0.2l7.7-9.1c0.1-0.1,0.2-0.1,0.4-0.1l1.5,0.4
		c0.2,0,0.2,0.1,0.1,0.2l-7.6,9l0,0l4,1.1c0.1,0,0.1,0,0.2-0.1l1.1-3.9c0-0.1,0.1-0.2,0.3-0.2l1.4,0.4c0.1,0,0.2,0.1,0.2,0.3
		l-1.1,3.9c0,0.1,0,0.1,0.1,0.2l1.4,0.4c0.1,0,0.2,0.1,0.2,0.3l-0.3,1.3c0,0.1-0.1,0.2-0.3,0.2l-1.4-0.4c-0.1,0-0.1,0-0.2,0.1
		l-0.6,2.3c0,0.1-0.1,0.2-0.3,0.2l-1.4-0.4c-0.1,0-0.2-0.1-0.2-0.3l0.6-2.3c0-0.1,0-0.1-0.1-0.2L126.9,223.1z"/>
	<path class="st0" d="M139,224.6c0.2-0.9,0.5-1.6,1-2.2c0.5-0.6,1.1-1,1.8-1.2l0,0c-0.4-0.4-0.8-0.8-1-1.5c-0.3-0.6-0.3-1.3-0.2-2.1
		c0.1-0.6,0.3-1.1,0.6-1.6c0.3-0.5,0.7-0.9,1.1-1.2c0.4-0.3,0.9-0.5,1.5-0.7c0.6-0.1,1.2-0.1,1.9,0c0.7,0.1,1.3,0.3,1.8,0.6
		c0.5,0.3,0.9,0.7,1.2,1.1c0.3,0.4,0.5,0.9,0.6,1.5c0.1,0.5,0.1,1.1,0,1.7c-0.1,0.8-0.4,1.4-0.9,1.9c-0.5,0.5-0.9,0.8-1.5,1l0,0
		c0.6,0.4,1,1,1.3,1.7c0.3,0.7,0.4,1.5,0.2,2.4c-0.1,0.7-0.3,1.3-0.7,1.8c-0.3,0.5-0.7,0.9-1.2,1.2c-0.5,0.3-1,0.5-1.6,0.7
		c-0.6,0.1-1.3,0.1-2,0c-0.7-0.1-1.3-0.3-1.9-0.6c-0.5-0.3-1-0.7-1.3-1.2c-0.3-0.5-0.6-1-0.7-1.6C138.9,225.9,138.8,225.2,139,224.6
		z M140.9,224.8c-0.1,0.8,0,1.5,0.4,2.2c0.4,0.6,1,1,1.9,1.1c0.9,0.1,1.6,0,2.2-0.5c0.6-0.4,1-1.1,1.1-1.9c0.1-0.8,0-1.5-0.4-2.1
		c-0.4-0.6-1-1-1.9-1.1c-0.9-0.1-1.6,0-2.2,0.5C141.4,223.4,141,224,140.9,224.8z M144.5,220.7c0.7,0.1,1.4,0,1.9-0.4
		c0.5-0.4,0.8-0.9,0.9-1.6c0.1-0.7,0-1.3-0.4-1.8c-0.4-0.5-0.9-0.9-1.6-1c-0.7-0.1-1.4,0-1.9,0.4c-0.5,0.4-0.8,0.9-1,1.6
		c-0.1,0.7,0,1.3,0.4,1.8C143.2,220.3,143.7,220.6,144.5,220.7z"/>
	<path class="st0" d="M151.8,219.4c-0.1,0-0.2-0.1-0.2-0.2l0.3-3.6c0-0.2,0.1-0.2,0.2-0.2l1.4,0.1c0.2,0,0.2,0.1,0.2,0.2l-0.2,1.9
		c0,0.2-0.1,0.4-0.2,0.5l-1.3,1.2C152,219.3,151.9,219.4,151.8,219.4z M155.3,219.7c-0.1,0-0.2-0.1-0.2-0.2l0.3-3.6
		c0-0.2,0.1-0.2,0.2-0.2l1.4,0.1c0.2,0,0.2,0.1,0.2,0.2l-0.2,1.9c0,0.1,0,0.2-0.1,0.3c0,0.1-0.1,0.1-0.1,0.2l-1.3,1.2
		C155.5,219.7,155.4,219.7,155.3,219.7z"/>
	<path class="st0" d="M159.7,216.2c0-0.2,0.1-0.2,0.2-0.2l1.5,0c0.2,0,0.3,0.1,0.4,0.2l6.8,11.7l0.1,0l0.2-11.6
		c0-0.2,0.1-0.2,0.2-0.2l1.4,0c0.2,0,0.2,0.1,0.2,0.2l-0.2,15c0,0.2-0.1,0.2-0.2,0.2l-1.5,0c-0.2,0-0.3-0.1-0.4-0.2l-6.9-11.6
		l-0.1,0l-0.2,11.5c0,0.2-0.1,0.2-0.2,0.2l-1.4,0c-0.2,0-0.2-0.1-0.2-0.2L159.7,216.2z"/>
	<path class="st0" d="M182,226.3c-0.8,0.1-1.6-0.1-2.2-0.5c-0.6-0.5-1-1.1-1.1-2c-0.1-0.9,0.1-1.6,0.5-2.2c0.5-0.6,1.1-1,2-1.1
		c0.4-0.1,0.8,0,1.2,0.1c0.4,0.1,0.7,0.3,1,0.5c0.3,0.2,0.5,0.5,0.7,0.8c0.2,0.3,0.3,0.7,0.4,1.1c0.1,0.4,0,0.8-0.1,1.2
		c-0.1,0.4-0.3,0.7-0.5,1c-0.2,0.3-0.5,0.5-0.8,0.7C182.8,226.1,182.4,226.2,182,226.3z"/>
	<path class="st0" d="M194.7,214.7L194.7,214.7l-2.1,2.4c-0.1,0.1-0.2,0.1-0.3-0.1l-0.4-1.6c0-0.1,0-0.2,0.1-0.3l2.1-2.5
		c0.1-0.1,0.2-0.2,0.3-0.2l1.3-0.3c0.1,0,0.2,0,0.3,0.2l3.8,14.5c0,0.1,0,0.2-0.2,0.3l-1.4,0.4c-0.1,0-0.2,0-0.3-0.2L194.7,214.7z"
		/>
	<path class="st0" d="M204.5,221.1c-0.3-0.9-0.4-1.7-0.2-2.4c0.2-0.8,0.5-1.4,0.9-1.9l0,0c-0.5-0.1-1.1-0.3-1.6-0.7
		c-0.5-0.4-0.9-1-1.2-1.7c-0.2-0.5-0.3-1.1-0.3-1.7s0.1-1.1,0.3-1.6c0.2-0.5,0.5-0.9,1-1.3c0.4-0.4,1-0.7,1.6-1
		c0.7-0.2,1.3-0.4,1.9-0.3c0.6,0,1.1,0.1,1.6,0.4c0.5,0.2,0.9,0.6,1.3,1c0.4,0.4,0.7,0.9,0.9,1.4c0.3,0.7,0.3,1.4,0.2,2.1
		c-0.1,0.7-0.4,1.2-0.8,1.6l0,0c0.7,0.1,1.4,0.4,2,0.8c0.6,0.5,1.1,1.1,1.4,2c0.2,0.6,0.3,1.3,0.3,1.9c0,0.6-0.2,1.2-0.4,1.7
		c-0.3,0.5-0.6,1-1.1,1.4c-0.5,0.4-1,0.7-1.7,1c-0.7,0.2-1.3,0.4-1.9,0.4c-0.6,0-1.2-0.1-1.7-0.3c-0.5-0.2-1-0.6-1.4-1
		C205.1,222.2,204.8,221.7,204.5,221.1z M207.4,215c0.7-0.3,1.2-0.7,1.4-1.3c0.2-0.6,0.2-1.2,0-1.9c-0.2-0.6-0.6-1.1-1.2-1.4
		c-0.6-0.3-1.2-0.3-1.9,0c-0.7,0.3-1.2,0.7-1.4,1.3c-0.3,0.6-0.3,1.2,0,1.9c0.2,0.6,0.6,1.1,1.2,1.4
		C206,215.2,206.7,215.3,207.4,215z M206.3,220.3c0.3,0.8,0.8,1.3,1.4,1.7c0.7,0.3,1.4,0.3,2.2,0c0.8-0.3,1.4-0.8,1.6-1.5
		c0.3-0.7,0.3-1.4,0-2.2c-0.3-0.8-0.8-1.3-1.4-1.6c-0.7-0.3-1.4-0.3-2.2,0c-0.8,0.3-1.4,0.8-1.6,1.5
		C206.1,218.8,206.1,219.5,206.3,220.3z"/>
	<path class="st0" d="M217.1,210.8c-0.4,0.2-0.9,0.3-1.3,0.4c-0.4,0-0.8,0-1.2-0.2c-0.4-0.1-0.8-0.4-1.1-0.6
		c-0.3-0.3-0.6-0.7-0.8-1.1c-0.2-0.4-0.3-0.9-0.3-1.3c0-0.4,0-0.9,0.2-1.3c0.1-0.4,0.4-0.8,0.6-1.1c0.3-0.3,0.7-0.6,1.1-0.8
		c0.4-0.2,0.9-0.3,1.3-0.3c0.4,0,0.9,0,1.3,0.2c0.4,0.1,0.8,0.4,1.1,0.6c0.3,0.3,0.6,0.7,0.8,1.1c0.2,0.4,0.3,0.9,0.3,1.3
		c0,0.4,0,0.9-0.2,1.3c-0.1,0.4-0.4,0.8-0.6,1.1C217.9,210.3,217.6,210.6,217.1,210.8z M216.6,209.7c0.5-0.3,0.9-0.7,1.1-1.2
		c0.2-0.5,0.1-1.1-0.1-1.6c-0.3-0.6-0.7-0.9-1.2-1.1c-0.5-0.2-1.1-0.2-1.6,0.1c-0.5,0.3-0.9,0.7-1.1,1.2c-0.2,0.5-0.1,1.1,0.1,1.6
		c0.3,0.6,0.7,0.9,1.2,1.1C215.5,210,216.1,210,216.6,209.7z"/>
	<path class="st0" d="M225.7,213.2c-0.1-0.1-0.1-0.2,0-0.3l1-1c0.1-0.1,0.2-0.1,0.3,0c0.2,0.2,0.4,0.3,0.7,0.4
		c0.2,0.1,0.5,0.2,0.8,0.2c0.3,0,0.6,0,0.9,0c0.3-0.1,0.7-0.2,1-0.4c0.7-0.4,1.1-1,1.3-1.7c0.1-0.7,0-1.4-0.4-2
		c-0.4-0.7-1-1.2-1.7-1.4c-0.7-0.2-1.4,0-2.2,0.4l-0.6,0.4c-0.1,0.1-0.2,0.1-0.3-0.1l-0.7-1.1c-0.1-0.1-0.1-0.2,0.1-0.3l0.6-0.3
		c0.7-0.4,1.1-0.9,1.2-1.6c0.2-0.6,0-1.3-0.4-2c-0.4-0.6-0.9-1-1.5-1.2c-0.6-0.2-1.2,0-1.9,0.4c-0.6,0.4-1,0.8-1.1,1.3
		c-0.1,0.5-0.1,1,0,1.6c0,0.1,0,0.2-0.1,0.3l-1.3,0.4c-0.1,0.1-0.2,0-0.3-0.1c-0.2-0.4-0.2-0.8-0.2-1.3c0-0.5,0.1-0.9,0.2-1.3
		c0.2-0.4,0.4-0.9,0.7-1.3c0.3-0.4,0.8-0.8,1.3-1.1c0.6-0.4,1.2-0.6,1.7-0.7c0.6-0.1,1.1-0.1,1.6,0c0.5,0.1,1,0.3,1.4,0.7
		c0.4,0.3,0.8,0.8,1.1,1.3c0.4,0.7,0.6,1.3,0.6,2c0,0.7-0.2,1.3-0.5,1.8l0,0c0.3,0,0.6,0,0.9,0c0.3,0,0.7,0.2,1,0.3
		c0.4,0.2,0.7,0.4,1,0.7c0.3,0.3,0.7,0.7,0.9,1.1c0.4,0.6,0.6,1.2,0.7,1.8c0.1,0.6,0.1,1.2-0.1,1.7c-0.1,0.6-0.4,1.1-0.8,1.6
		c-0.4,0.5-0.8,0.9-1.4,1.2c-1.1,0.7-2.1,0.9-3.1,0.8C227.2,214.4,226.3,213.9,225.7,213.2z"/>
	<path class="st0" d="M231.1,199.9c-0.1,0.1-0.2,0.1-0.3-0.1l-2.1-2.9c-0.1-0.1-0.1-0.2,0.1-0.3l1.1-0.8c0.1-0.1,0.2-0.1,0.3,0.1
		l1.1,1.5c0.1,0.1,0.1,0.2,0.1,0.2c0,0.1,0,0.1,0,0.2l-0.2,1.7C231.3,199.7,231.2,199.8,231.1,199.9z"/>
	<path class="st0" d="M240.9,205.1c-0.1-0.1-0.1-0.2-0.1-0.3l-0.3-9c0-0.6-0.1-1.1-0.2-1.5c-0.1-0.5-0.4-0.9-0.7-1.2
		c-0.4-0.5-1-0.8-1.6-0.9c-0.6-0.1-1.2,0.1-1.8,0.6c-0.6,0.5-0.9,1-0.9,1.6c0,0.6,0.1,1.2,0.5,1.8c0.1,0.1,0,0.2-0.1,0.3l-1.3,0.7
		c-0.1,0.1-0.2,0-0.3-0.1c-0.3-0.4-0.4-0.8-0.6-1.3c-0.1-0.5-0.2-1-0.1-1.5c0.1-0.5,0.2-1,0.5-1.5c0.3-0.5,0.7-1,1.2-1.4
		s1.1-0.7,1.6-0.9c0.5-0.2,1.1-0.2,1.6-0.2c0.5,0,1,0.2,1.5,0.5c0.5,0.3,0.9,0.6,1.3,1.1c0.4,0.5,0.8,1.1,0.9,1.7
		c0.2,0.6,0.3,1.3,0.3,2.1l0.2,7.7l0,0l4.6-3.9c0.1-0.1,0.2-0.1,0.3,0l0.8,1c0.1,0.1,0.1,0.2,0,0.3l-6.3,5.3c-0.1,0.1-0.2,0.1-0.3,0
		L240.9,205.1z"/>
	<path class="st0" d="M250.3,196.9c-0.1-0.1-0.1-0.2-0.2-0.3l-1.4-8.9c-0.1-0.6-0.2-1-0.4-1.5c-0.2-0.4-0.5-0.8-0.8-1.1
		c-0.5-0.5-1.1-0.7-1.7-0.7c-0.6,0-1.2,0.3-1.7,0.8c-0.5,0.5-0.8,1.1-0.7,1.7c0,0.6,0.2,1.1,0.7,1.7c0.1,0.1,0.1,0.2,0,0.3l-1.2,0.8
		c-0.1,0.1-0.2,0.1-0.3-0.1c-0.3-0.3-0.5-0.7-0.7-1.2c-0.2-0.5-0.3-0.9-0.3-1.4c0-0.5,0.1-1,0.3-1.5c0.2-0.5,0.5-1,1-1.5
		c0.5-0.5,1-0.9,1.5-1.1c0.5-0.2,1-0.4,1.6-0.4c0.5,0,1.1,0.1,1.6,0.3c0.5,0.2,1,0.5,1.4,0.9c0.5,0.5,0.9,1,1.1,1.6
		c0.3,0.6,0.4,1.3,0.5,2l1.1,7.6l0,0l4.1-4.4c0.1-0.1,0.2-0.1,0.3,0l1,0.9c0.1,0.1,0.1,0.2,0,0.3l-5.6,6c-0.1,0.1-0.2,0.1-0.3,0
		L250.3,196.9z"/>
	<path class="st0" d="M250.6,181.7c-0.1,0.1-0.2,0.1-0.3,0l-2.9-2.2c-0.1-0.1-0.1-0.2,0-0.3l0.8-1.1c0.1-0.1,0.2-0.1,0.3,0l1.5,1.1
		c0.2,0.1,0.3,0.3,0.3,0.4l0.3,1.7C250.7,181.4,250.7,181.5,250.6,181.7z M252.7,178.8c-0.1,0.1-0.2,0.1-0.3,0l-2.9-2.2
		c-0.1-0.1-0.1-0.2,0-0.3l0.8-1.1c0.1-0.1,0.2-0.1,0.3,0l1.5,1.1c0.1,0.1,0.2,0.1,0.2,0.2c0,0.1,0.1,0.1,0.1,0.2l0.3,1.7
		C252.8,178.6,252.8,178.7,252.7,178.8z"/>
	<path class="st0" d="M251.9,173.5c-0.1-0.1-0.2-0.2-0.1-0.3l4.7-8c0.1-0.1,0.2-0.2,0.3-0.1l1.2,0.7c0.1,0.1,0.2,0.2,0.1,0.3
		l-3.7,6.3c0,0.1,0,0.1,0,0.2l3.9,2.3c0.1,0,0.1,0,0.2,0l3.2-5.4c0.1-0.1,0.2-0.2,0.3-0.1l1.2,0.7c0.1,0.1,0.2,0.2,0.1,0.3l-3.2,5.4
		c0,0.1,0,0.1,0,0.2l4.1,2.4c0.1,0,0.1,0,0.2,0l3.7-6.3c0.1-0.1,0.2-0.2,0.3-0.1l1.2,0.7c0.1,0.1,0.2,0.2,0.1,0.3l-4.7,8
		c-0.1,0.1-0.2,0.2-0.3,0.1L251.9,173.5z"/>
</g>
<g>
	<path class="st0" d="M114.6,44.8c-0.5,0.2-1,0.4-1.5,0.5c-0.5,0.1-1,0.2-1.5,0.2c-0.5,0-1,0-1.4,0c-0.5-0.1-0.9-0.2-1.2-0.3
		c-0.1-0.1-0.2-0.2-0.2-0.3l0.4-1.5c0-0.1,0.1-0.2,0.3-0.1c0.6,0.2,1.3,0.3,2.1,0.3c0.8,0,1.6-0.2,2.5-0.5c1-0.4,1.7-1,2-1.7
		c0.4-0.7,0.4-1.4,0.1-2.1c-0.1-0.3-0.3-0.6-0.5-0.8c-0.2-0.2-0.5-0.4-0.8-0.5c-0.3-0.1-0.7-0.1-1.1-0.1c-0.4,0-1,0.1-1.6,0.3
		l-0.8,0.2c-2.9,0.8-4.9,0.1-5.9-2.1c-0.3-0.6-0.4-1.2-0.4-1.8c0-0.6,0.1-1.2,0.4-1.7c0.2-0.5,0.6-1,1.1-1.5
		c0.5-0.4,1.1-0.8,1.8-1.1c0.8-0.4,1.7-0.6,2.5-0.7c0.9-0.1,1.6,0,2.3,0.1c0.1,0,0.2,0.1,0.2,0.3l-0.2,1.5c0,0.1-0.1,0.2-0.3,0.2
		c-0.7-0.1-1.4-0.1-2-0.1c-0.6,0.1-1.2,0.2-1.8,0.5c-0.9,0.4-1.5,0.9-1.7,1.5c-0.3,0.6-0.3,1.3,0,2c0.3,0.6,0.7,1,1.3,1.2
		c0.6,0.2,1.5,0.1,2.7-0.2l0.7-0.2c1.5-0.4,2.7-0.4,3.7-0.1c1,0.3,1.7,1.1,2.2,2.3c0.3,0.6,0.4,1.2,0.4,1.9c0,0.6-0.1,1.2-0.4,1.8
		c-0.3,0.6-0.7,1.1-1.2,1.6C116.2,44,115.5,44.5,114.6,44.8z"/>
	<path class="st0" d="M117.7,26.9c0-0.1,0-0.2,0.2-0.3l8.9-2.8c0.1,0,0.2,0,0.3,0.1l0.4,1.4c0,0.1,0,0.2-0.1,0.3l-7,2.2
		c-0.1,0-0.1,0.1-0.1,0.2l1.4,4.3c0,0.1,0.1,0.1,0.2,0.1l6-1.9c0.1,0,0.2,0,0.3,0.1l0.4,1.4c0,0.1,0,0.2-0.1,0.3l-6,1.9
		c-0.1,0-0.1,0.1-0.1,0.2l1.4,4.5c0,0.1,0.1,0.1,0.2,0.1l7-2.2c0.1,0,0.2,0,0.3,0.1l0.4,1.4c0,0.1,0,0.2-0.1,0.3l-8.9,2.8
		c-0.1,0-0.2,0-0.3-0.1L117.7,26.9z"/>
	<path class="st0" d="M135,22.2c0-0.2,0.1-0.2,0.2-0.3l1.4-0.3c0.1,0,0.3,0,0.3,0.2l8.2,13.6c0.1,0.1,0,0.2-0.1,0.3l-1.6,0.3
		c-0.1,0-0.3,0-0.3-0.2l-1.8-3.1l-6.1,1.3l-0.5,3.5c0,0.2-0.1,0.3-0.2,0.3l-1.6,0.3c-0.1,0-0.2,0-0.2-0.2L135,22.2z M140.4,31
		l-3.8-6.4l0,0l-1,7.4L140.4,31z"/>
	<path class="st0" d="M152,35.1c-0.5,0.1-1.1,0.1-1.6,0c-0.5-0.1-1-0.1-1.5-0.3c-0.5-0.1-0.9-0.3-1.4-0.5c-0.4-0.2-0.8-0.4-1.1-0.6
		c-0.1-0.1-0.1-0.2-0.1-0.3l0.9-1.3c0.1-0.1,0.2-0.1,0.3-0.1c0.5,0.3,1.2,0.6,2,0.9c0.8,0.3,1.6,0.3,2.5,0.2c1.1-0.1,1.9-0.4,2.4-1
		c0.5-0.5,0.8-1.2,0.7-2c0-0.3-0.1-0.6-0.3-0.9c-0.1-0.3-0.3-0.5-0.6-0.7c-0.3-0.2-0.6-0.3-1-0.4c-0.4-0.1-0.9-0.2-1.6-0.2l-0.8,0
		c-3.1-0.1-4.7-1.4-5-3.8c-0.1-0.7,0-1.3,0.2-1.9c0.2-0.6,0.5-1.1,0.9-1.5c0.4-0.4,0.9-0.8,1.5-1.1c0.6-0.3,1.3-0.5,2-0.5
		c0.9-0.1,1.8,0,2.6,0.1c0.8,0.2,1.6,0.5,2.2,0.8c0.1,0.1,0.2,0.2,0.1,0.3l-0.6,1.3c-0.1,0.1-0.2,0.1-0.3,0.1
		c-0.7-0.3-1.3-0.6-1.9-0.7c-0.6-0.1-1.2-0.2-1.9-0.1c-0.9,0.1-1.6,0.4-2.1,0.9c-0.4,0.5-0.6,1.1-0.6,1.9c0.1,0.6,0.4,1.2,0.9,1.5
		c0.5,0.4,1.4,0.6,2.6,0.6l0.8,0c1.5,0.1,2.7,0.4,3.5,1c0.8,0.6,1.3,1.6,1.4,2.8c0.1,0.7,0,1.3-0.2,1.9c-0.2,0.6-0.5,1.1-0.9,1.6
		c-0.4,0.5-1,0.8-1.7,1.1C153.8,34.8,153,35,152,35.1z"/>
	<path class="st0" d="M165.4,34.4c-1.3,0-2.4-0.3-3.3-0.9c-0.9-0.6-1.6-1.5-2-2.7c-0.1-0.2-0.1-0.5-0.2-0.7
		c-0.1-0.2-0.1-0.5-0.1-0.9c0-0.3-0.1-0.7-0.1-1.2c0-0.5,0-1,0-1.6c0-0.6,0-1.2,0-1.6c0-0.5,0-0.8,0.1-1.2c0-0.3,0.1-0.6,0.1-0.9
		c0-0.2,0.1-0.5,0.2-0.7c0.4-1.2,1-2.1,1.9-2.7c0.9-0.6,2-0.9,3.3-1c1.3,0,2.4,0.3,3.3,0.9c0.9,0.6,1.6,1.5,2,2.7
		c0.1,0.2,0.1,0.5,0.2,0.7c0.1,0.2,0.1,0.5,0.1,0.8c0,0.3,0.1,0.7,0.1,1.2c0,0.5,0,1,0,1.6c0,0.6,0,1.2,0,1.6c0,0.5,0,0.8-0.1,1.2
		c0,0.3-0.1,0.6-0.1,0.9c0,0.2-0.1,0.5-0.2,0.7c-0.4,1.2-1,2.1-1.9,2.7C167.9,34.1,166.8,34.4,165.4,34.4z M165.4,32.5
		c0.9,0,1.6-0.2,2.1-0.6c0.5-0.4,0.9-1,1.2-1.7c0-0.1,0.1-0.3,0.1-0.5c0-0.2,0.1-0.5,0.1-0.8c0-0.3,0.1-0.7,0.1-1.1
		c0-0.4,0-0.9,0-1.5c0-0.6,0-1,0-1.5c0-0.4-0.1-0.8-0.1-1.1c0-0.3-0.1-0.6-0.1-0.8c0-0.2-0.1-0.4-0.1-0.5c-0.3-0.7-0.7-1.3-1.2-1.7
		c-0.6-0.4-1.3-0.6-2.1-0.6c-0.9,0-1.6,0.2-2.1,0.6c-0.5,0.4-0.9,1-1.1,1.7c0,0.1-0.1,0.3-0.1,0.5c0,0.2-0.1,0.5-0.1,0.8
		c0,0.3-0.1,0.7-0.1,1.1c0,0.4,0,0.9,0,1.5c0,0.6,0,1,0,1.5c0,0.4,0.1,0.8,0.1,1.1c0,0.3,0.1,0.6,0.1,0.8c0,0.2,0.1,0.4,0.1,0.5
		c0.3,0.7,0.7,1.3,1.2,1.7C163.9,32.3,164.6,32.5,165.4,32.5z"/>
	<path class="st0" d="M175.6,19.1c0-0.2,0.1-0.2,0.2-0.2l1.4,0.1c0.2,0,0.3,0.1,0.4,0.3l5.8,12.2l0.1,0l1.2-11.5
		c0-0.2,0.1-0.2,0.2-0.2l1.4,0.1c0.2,0,0.2,0.1,0.2,0.2L185,35.2c0,0.2-0.1,0.2-0.2,0.2l-1.4-0.1c-0.2,0-0.3-0.1-0.4-0.3l-5.8-12.2
		l-0.1,0l-1.2,11.5c0,0.2-0.1,0.2-0.2,0.2l-1.4-0.1c-0.2,0-0.2-0.1-0.2-0.2L175.6,19.1z"/>
	<path class="st0" d="M193.8,35.6c0-0.1,0.1-0.2,0.2-0.3l7.1-5.5c0.4-0.3,0.8-0.7,1.1-1.1c0.3-0.4,0.5-0.8,0.6-1.3
		c0.2-0.7,0.1-1.3-0.2-1.8c-0.3-0.6-0.8-0.9-1.6-1.1c-0.7-0.2-1.3-0.1-1.8,0.2c-0.5,0.3-0.9,0.8-1.2,1.4c-0.1,0.1-0.2,0.2-0.3,0.1
		l-1.3-0.6c-0.1-0.1-0.2-0.2-0.1-0.3c0.2-0.4,0.4-0.8,0.7-1.2c0.3-0.4,0.7-0.7,1.1-0.9c0.4-0.2,0.9-0.4,1.5-0.5
		c0.6-0.1,1.2,0,1.8,0.1c0.7,0.2,1.2,0.4,1.7,0.7c0.5,0.3,0.8,0.7,1.1,1.2c0.3,0.5,0.4,1,0.5,1.5c0.1,0.5,0,1.1-0.1,1.7
		c-0.2,0.7-0.5,1.3-0.9,1.8c-0.4,0.5-0.9,1-1.5,1.5l-6.1,4.7l0,0l5.9,1.5c0.1,0,0.2,0.1,0.2,0.3l-0.3,1.3c0,0.1-0.1,0.2-0.3,0.2
		l-8-2c-0.1,0-0.2-0.1-0.2-0.3L193.8,35.6z"/>
	<path class="st0" d="M206.1,37.5c0-0.2,0-0.3,0.1-0.5c0-0.2,0.1-0.5,0.2-0.8c0.1-0.4,0.2-0.8,0.4-1.4c0.2-0.6,0.4-1.3,0.7-2.1
		c0.3-0.9,0.6-1.6,0.8-2.1c0.2-0.5,0.4-1,0.5-1.3c0.2-0.3,0.3-0.6,0.4-0.8c0.1-0.2,0.2-0.3,0.3-0.5c0.6-0.8,1.3-1.3,2.2-1.5
		c0.8-0.2,1.8-0.2,2.8,0.2c1,0.4,1.8,0.9,2.3,1.6c0.5,0.7,0.8,1.6,0.7,2.6c0,0.2,0,0.3-0.1,0.5c0,0.2-0.1,0.5-0.2,0.8
		c-0.1,0.4-0.2,0.8-0.4,1.4c-0.2,0.6-0.4,1.3-0.7,2.1c-0.3,0.9-0.6,1.6-0.8,2.1c-0.2,0.5-0.4,1-0.5,1.3c-0.2,0.3-0.3,0.6-0.4,0.8
		c-0.1,0.2-0.2,0.3-0.3,0.5c-0.6,0.8-1.3,1.3-2.2,1.5c-0.8,0.2-1.8,0.2-2.8-0.2c-1-0.4-1.8-0.9-2.3-1.6
		C206.3,39.4,206,38.5,206.1,37.5z M208,37.8c0,0.5,0.1,1,0.4,1.4c0.3,0.4,0.7,0.7,1.3,0.9c0.5,0.2,1,0.2,1.5,0.1
		c0.5-0.1,0.9-0.4,1.2-0.8c0.1-0.1,0.2-0.2,0.3-0.4c0.1-0.1,0.2-0.4,0.3-0.7c0.1-0.3,0.3-0.7,0.5-1.2c0.2-0.5,0.4-1.2,0.7-2
		c0.3-0.8,0.5-1.5,0.7-2c0.2-0.5,0.3-0.9,0.4-1.3c0.1-0.3,0.1-0.6,0.2-0.7c0-0.2,0-0.3,0-0.4c0-0.5-0.1-1-0.4-1.4
		c-0.3-0.4-0.7-0.7-1.3-0.9c-0.5-0.2-1-0.2-1.5-0.1c-0.5,0.1-0.9,0.4-1.2,0.8c-0.1,0.1-0.2,0.2-0.3,0.4c-0.1,0.1-0.2,0.4-0.3,0.7
		c-0.1,0.3-0.3,0.7-0.5,1.2c-0.2,0.5-0.4,1.2-0.7,2c-0.3,0.8-0.5,1.5-0.7,2c-0.2,0.5-0.3,0.9-0.4,1.3c-0.1,0.3-0.1,0.6-0.2,0.7
		C208,37.5,208,37.7,208,37.8z"/>
	<path class="st0" d="M216.9,42.9c0.1-0.1,0.1-0.2,0.2-0.2l8-4.1c0.5-0.3,0.9-0.5,1.3-0.8c0.4-0.3,0.6-0.7,0.8-1.1
		c0.3-0.6,0.3-1.2,0.1-1.8c-0.2-0.6-0.6-1.1-1.3-1.4c-0.7-0.3-1.3-0.4-1.8-0.2c-0.5,0.2-1,0.6-1.4,1.2c-0.1,0.1-0.2,0.1-0.3,0.1
		l-1.1-0.9c-0.1-0.1-0.1-0.2,0-0.3c0.2-0.4,0.5-0.7,0.9-1.1c0.4-0.3,0.8-0.5,1.3-0.7c0.5-0.2,1-0.2,1.6-0.2c0.6,0,1.2,0.2,1.8,0.5
		c0.6,0.3,1.1,0.6,1.5,1.1c0.4,0.4,0.7,0.9,0.9,1.4c0.2,0.5,0.3,1,0.2,1.6c0,0.5-0.2,1.1-0.4,1.6c-0.3,0.6-0.7,1.2-1.2,1.6
		c-0.5,0.4-1.1,0.8-1.7,1.1l-6.9,3.4l0,0l5.5,2.6c0.1,0.1,0.2,0.2,0.1,0.3l-0.6,1.2c-0.1,0.1-0.2,0.2-0.3,0.1l-7.5-3.5
		c-0.1-0.1-0.2-0.2-0.1-0.3L216.9,42.9z"/>
	<path class="st0" d="M228.3,46.6c0.1-0.1,0.2-0.2,0.3-0.1l1.4,0.4c0.1,0,0.2,0.1,0.2,0.3c-0.1,0.2-0.1,0.5-0.1,0.8
		c0,0.3,0.1,0.5,0.1,0.8c0.1,0.3,0.2,0.5,0.5,0.8c0.2,0.3,0.5,0.5,0.8,0.7c0.7,0.4,1.4,0.5,2.1,0.3c0.7-0.2,1.2-0.6,1.6-1.3
		c0.4-0.7,0.6-1.5,0.4-2.2c-0.2-0.7-0.6-1.3-1.4-1.7l-0.6-0.3c-0.1-0.1-0.2-0.2-0.1-0.3l0.7-1.1c0.1-0.1,0.2-0.2,0.3-0.1l0.6,0.3
		c0.7,0.4,1.3,0.5,2,0.3c0.6-0.2,1.2-0.6,1.6-1.3c0.4-0.6,0.5-1.2,0.3-1.9c-0.1-0.6-0.5-1.1-1.2-1.5c-0.6-0.4-1.2-0.5-1.7-0.4
		c-0.5,0.1-1,0.4-1.4,0.8c-0.1,0.1-0.2,0.1-0.3,0l-1-1c-0.1-0.1-0.1-0.2,0-0.3c0.3-0.3,0.6-0.6,1-0.8c0.4-0.2,0.8-0.4,1.3-0.4
		s1,0,1.5,0.1c0.5,0.1,1,0.3,1.6,0.6c0.6,0.3,1.1,0.7,1.4,1.2c0.4,0.5,0.6,0.9,0.7,1.4c0.1,0.5,0.2,1,0.1,1.6
		c-0.1,0.5-0.3,1.1-0.6,1.6c-0.4,0.7-0.9,1.1-1.5,1.4c-0.6,0.3-1.2,0.4-1.8,0.5l0,0c0.2,0.2,0.3,0.5,0.4,0.8
		c0.1,0.3,0.2,0.7,0.2,1.1c0,0.4,0,0.8-0.1,1.2c-0.1,0.4-0.3,0.9-0.5,1.3c-0.3,0.6-0.8,1.1-1.2,1.4s-1,0.6-1.6,0.8
		c-0.6,0.1-1.1,0.2-1.7,0.1c-0.6-0.1-1.2-0.3-1.8-0.7c-1.1-0.6-1.8-1.4-2.2-2.4C228.1,48.5,228,47.5,228.3,46.6z"/>
</g>
<g>
	<path class="st0" d="M78.3,41.3c0.4,0,0.7,0.1,1.1,0.3c0.3,0.2,0.5,0.6,0.6,1c0,0.1,0.3,1.4,0.8,4.1c0.5,2.7,1.1,6.2,1.9,10.7
		c0.7,4.4,1.5,9.6,2.2,15.3c0.7,5.8,1.3,11.8,1.8,18c0.1,1.5,0.7,9.3,0.8,13.7c0.1,4.4,1,15.2,0.3,22.7c-0.6,7-1.8,14.4-2.5,16.5
		c1.4,0.3,3.1,0.5,4.9,0.5c3.7,0,8.1-0.6,12.3-1.2c-0.1-0.6-0.2-1.2-0.2-1.8c-0.2-1.5-0.4-3-0.4-4.5c-0.1-1.5-0.2-3-0.3-4.6
		c-1.5-0.2-2.7-0.7-3.7-1.4c-1.1-0.9-1.7-2-1.5-3.4c0.1-1,0.6-1.9,1.4-2.7c0.9-0.8,2-1.3,3.6-1.5l0.1-7.1c0.2-6.2,0.5-12.2,1-18
		c0.5-5.8,1.2-11,2-15.8c0.9-5.5,2-10.3,3.4-14.1c1.4-4.3,3.1-7.3,5-9c1.3-1.2,2.7-1.8,4.2-1.8c0.2,0,0.3,0,0.5,0l0.1,0
		c1.8,0.2,3.4,1.1,4.6,2.9c1.4,2.2,2.2,5,2.4,8.6c0.1,3.7-0.4,7.5-1.7,11.4c-0.9,3.1-2.4,6.1-4.5,9c-1.6,2.2-3.4,4.2-5.4,6.1
		c-0.4,3.5-0.7,7.2-0.9,11c-0.3,3.8-0.4,7.7-0.5,11.6c0,0.9,0,2.1-0.1,3.6c-0.1,1.4-0.1,3.1,0,4.9c1.2-0.7,2.4-1.5,3.7-2.3
		c1.3-0.8,3-2.1,4.9-4.3c4.5-5.1,5.6-11.2,7.5-14.9c0.1-0.2,0.2-0.4,0.2-0.5c0.7-1.4,1.5-2.6,2.6-3.7c2.2-2.1,4.9-3.1,8.1-3.1
		c0.5,0,0.9,0,1.4,0.1c1.6,0.1,3,0.6,4.2,1.3c1.2,0.7,2,1.3,3.3,2.4c0.9,0.8,1.3,1.3,2,2c0.8,0.6,1.3,1.1,2.1,1.1c0.1,0,0.3,0,0.4,0
		c0.7,0,1.2-0.1,1.7-0.4c0.5-0.3,0.9-0.6,1.2-1.4c0-1,0-2,0-3c0.1-3.3,0.2-6.4,0.4-9.4c0.2-3.5,0.5-6.8,0.9-9.8
		c0.4-3,0.9-5.7,1.4-8.2c1.4-6,3.2-10.2,5.5-12.5c1.6-1.7,3.3-2.5,5.2-2.5c0.2,0,0.4,0,0.6,0c1.3,0.1,2.3,0.5,3,1.3
		c0.8,0.7,1.4,1.6,1.8,2.7c0.4,1.1,0.7,2.2,0.8,3.4c0.1,1.2,0.1,2.4,0.1,3.6c-0.2,3.6-1.1,7.4-2.5,11.5c-1.1,2.8-2.2,5.3-3.3,7.5
		c-1.1,2.1-2.3,4-3.4,5.6c-0.2,3.9-0.3,7.7-0.3,11.5c0,3.8,0.1,7.3,0.3,10.5c1-2.8,2.1-5.4,3.4-7.9c1.3-2.5,2.7-4.7,4.3-6.8
		c2.1-2.7,4.3-4.9,6.7-6.5c2.2-1.4,4.3-2.1,6.4-2.1c0.3,0,0.5,0,0.8,0c2,0.2,3.6,0.9,4.8,2.3c1.2,1.4,1.8,3.1,1.9,5.2
		c0,1.8-0.4,3.5-1.2,5.3c-0.9,1.8-2.1,3.4-3.6,4.8c-1.9,1.7-4.2,3.1-7,4.2c2.5,0.5,4.4,1.6,5.6,3.2c1.1,1.5,1.6,3.5,1.5,6
		c0,1-0.2,2.1-0.4,3.1c-0.2,1.1-0.4,2.1-0.6,3.2c-0.6,2.4-0.8,4.1-0.8,5.2c0.8,0,1.6,0,2.4,0c0.4,0,0.8,0,1.2,0
		c0.8-0.9,1.7-1.9,2.5-3.1c0.9-1.3,1.8-2.7,2.7-4.1c0.9-1.4,1.6-2.6,2.1-3.7c1.1-2.1,2.1-4.3,3-6.4c0.9-2.1,1.6-4,2.2-5.7
		c0.6-1.7,1.3-3.6,1.9-5.7c0.1-0.2,0.1-0.3,0.2-0.4c0.1-0.4,0.2-0.8,0.3-1.2c0.4-1.5,0.6-2.2,0.6-2.3c0.4-1,1.1-1.6,2.3-2
		c0.9-0.3,1.7-0.4,2.6-0.4c0.3,0,0.7,0,1,0.1c1.2,0.1,2.3,0.5,3.2,1.1c0.9,0.6,1.2,1.5,0.9,2.5c-0.2,0.8-0.4,1.7-0.6,2.6
		c-0.2,0.8-0.3,1.7-0.5,2.7c-0.2,1-0.3,2-0.4,3.2c-0.3,3.2-0.2,5.5,0.2,6.9c0.4,1.2,1.1,1.8,1.8,1.8c0.1,0,0.2,0,0.3,0
		c0.9-0.2,2-0.9,3.2-2.4c1.2-1.4,2.4-3.3,3.5-5.5c0.7-1.4,1.3-2.8,1.8-4.2c0.5-1.4,1-2.6,1.4-3.7c0.4-1.1,0.7-2.3,1.1-3.7
		c0.2-0.5,0.6-1,1.2-1.3c0.6-0.3,1.3-0.6,2.1-0.7c0.5-0.1,1.1-0.1,1.6-0.1c0.3,0,0.6,0,0.9,0c0.8,0.1,1.6,0.2,2.3,0.5
		c0.7,0.3,1.3,0.7,1.6,1.1c0.4,0.5,0.5,1,0.4,1.7c-0.3,1.4-0.6,2.7-0.9,3.8c-0.3,1.2-0.5,2.5-0.8,4c-0.3,1.5-0.5,3.1-0.8,4.7
		c-0.5,3.4-0.8,6.3-0.9,8.7c-0.1,2.4,0.1,4,0.4,4.7c0.2,0.3,0.3,0.5,0.5,0.5c0.3,0,0.6-0.3,1.2-0.9c1-1.1,2.4-3.5,4.2-7.2
		c0.8-1.8,2-4.2,2.8-5.9c0.6-1.4,1.4-3.4,2-4.8c-1.1-1.2-2-2.6-2.9-4.1c-1.3-2.1-2.3-4.5-3-7.1c-0.7-2.6-0.9-5.6-0.6-9
		c0.2-2.1,0.8-4,1.8-5.6c0.5-0.8,1.1-1.6,1.8-2.2c0.7-0.6,1.4-1.1,2.2-1.6c1.2-0.6,2.4-0.9,3.7-0.9c0.2,0,0.5,0,0.7,0
		c1.9,0.1,2.9,0.5,4,1.2c1.1,0.8,1.9,1.7,2.4,3c0.5,1.2,0.7,2.6,0.7,4.1c0,1.5-0.2,3.1-0.6,4.6c-0.9,3.5-2.1,6-3.9,10
		c1,1.6,2.1,2.8,3.4,4.1c1.4,1.3,2.8,2.6,4.2,3.9c0.8,0.7,1.6,1.4,2.3,2.1c0.8,0.7,1.5,1.4,2.3,2.2c2.1-1.4,4-2.8,5.7-4.3
		c1.7-1.5,2.9-3.3,3.7-5.5c0.1-0.4,0.4-0.7,0.8-0.8c0.2-0.1,0.4-0.1,0.6-0.1c0.2,0,0.3,0,0.5,0.1c0.4,0.1,0.7,0.4,0.8,0.7
		c0.2,0.4,0.2,0.7,0.1,1.1c-0.9,2.5-2.3,4.6-4.1,6.3c-1.9,1.7-3.9,3.3-6.1,4.8c1.3,1.6,2.3,3.4,2.9,5.4c0.7,1.9,0.9,4.2,0.8,6.8
		c-0.3,3.1-1.2,5.7-2.9,8c-1.4,2-3.3,3.6-5.7,4.8c-2,0.9-3.9,1.3-5.9,1.3c-0.4,0-0.7,0-1.1,0c-2.4-0.2-4.3-1.1-5.8-2.7
		c-1.5-1.6-2.1-3.7-1.9-6.3c0.3-4,2.1-7.5,5.2-10.7c0.6-0.6,1.2-1.2,1.9-1.8c0.7-0.6,1.4-1.1,2.1-1.6c-0.6-0.6-1.2-1.2-1.9-1.8
		c-0.7-0.6-1.3-1.3-2.1-2c-1.3-1.2-2.7-2.6-4.1-3.9c-0.5,1.2-1.1,2.6-1.5,3.7c-0.7,1.8-1.9,4.2-2.8,6c-2.1,4.4-3.9,7.3-5.9,9.8
		c-1,1.2-1.7,2-2.9,3c-1.1,0.9-2.3,1.3-3.7,1.3c-0.2,0-0.3,0-0.5,0c-0.1,0-0.6-0.1-0.7-0.1c-1.6-0.4-2.8-1.2-3.6-2.7
		c-1.2-1.9-1.8-4.8-1.9-8.7c0-1.2,0-2.5,0.1-3.9c0.1-1.4,0.2-2.9,0.4-4.6c-0.7,1.3-1.5,2.5-2.2,3.6c-0.7,1.1-1.5,2-2.3,2.8
		c-1.1,1.2-2.2,2.1-3.6,2.9c-1.1,0.6-2.4,0.9-3.8,0.9c-0.2,0-0.5,0-0.7,0c-2.7-0.2-4.8-1.3-6.3-3.4c-1.1-1.6-1.7-3.6-2-6.2
		c-0.3,0.7-0.6,1.4-0.9,2.2c-0.9,2.1-1.9,4.3-3,6.5c-1.4,2.7-2.7,5-4.1,7c-0.7,1-1.3,1.9-2,2.7c1.8,0.1,3.6,0.1,5.4,0.3
		c21.4,1.4,45,2.4,64.3,14.5c4,2.5,13.1,9.5,12.6,13c-8.2-5.3-21.1-10.6-27.7-12.5c-13.2-3.9-18.7-4.7-53.5-5.5
		c-1.4,0-2.9-0.1-4.3-0.1c-22.1,0-43.6,4-53.7,5c-10.7,1-12.3,0.6-19.7,1c0,0.4,0,0.8-0.1,1.2c-0.2,2.8-0.8,5.1-1.7,6.7
		c-0.8,1.4-1.7,2.2-2.5,2.6c-0.8,0.3-1.4,0.4-1.9,0.4c-0.1,0-0.1,0-0.2,0c-2.8-0.2-4.9-2.4-6.5-6.4c-0.4-1.1-0.8-2.3-1.1-3.6
		c-2.3,0.1-4.6,0.2-6.8,0.2c-5.1,0-10-0.3-13.5-1.3c-1.7,4.6-3.4,8.4-5.7,12.2c-8.1,14.1-19.1,21.5-31.8,21.5c-0.6,0-1.2,0-1.7,0
		c-13.9-0.7-20.3-10.6-20.8-20.3c0-0.3,0-2.2,0-2.4c0.5-9.9,5-17.2,12.8-21.1c4.1-2.1,9.2-3.1,15-3.1c6.2,0,13.2,1.2,20.7,3.9
		c2.3-8.5,3.1-16.2,3.1-23.2c0.1-8-0.3-26.1-0.9-32.1c-0.6-6-1.2-11.5-1.9-16.6L72,68.2c-3.5,7.4-7.5,13.2-12,17.4
		c-5.9,5.4-12.4,8.1-19.6,8.1c-0.5,0-0.8-0.2-1.2-0.5s-0.5-0.7-0.5-1.2c0-0.4,0.2-0.8,0.5-1.2c0.3-0.3,0.7-0.5,1.2-0.5
		c11.7,0,21.2-7.9,28.6-23.6c1.4-3,2.6-5.9,3.5-8.8c1-2.9,1.7-5.4,2.3-7.7c0.6-2.2,1.2-4.8,1.7-7.6C76.8,41.8,77.3,41.3,78.3,41.3
		 M165.5,86.2c0.6-1.1,1.3-2.3,1.9-3.6c0.6-1.3,1.2-2.7,1.7-4.2c0.6-1.8,1.2-3.6,1.5-5.4c0.4-1.7,0.6-3.2,0.7-4.5
		c0.1-1.3,0.1-2.3-0.1-3c-0.1-0.5-0.3-0.8-0.5-0.8c-0.1,0-0.2,0-0.2,0.1c-0.3,0.2-0.8,1-1.3,2.4c-0.5,1.3-1.1,3.4-1.7,6.1
		c-0.4,1.9-0.8,4-1.1,6.1C166,81.6,165.7,83.8,165.5,86.2 M113.3,90.3c1.3-1.5,2.5-3.1,3.6-5c1.2-1.9,2.1-3.9,2.9-6.2
		c0.4-1.2,0.7-2.5,0.9-4.1c0.2-1.5,0.4-3,0.5-4.4c0.1-1.4,0.1-2.6,0-3.6c-0.1-1-0.3-1.7-0.6-1.9c-0.1-0.1-0.2-0.1-0.2-0.1
		c-0.3,0-0.6,0.3-0.9,0.8c-0.5,0.7-1.1,2.2-1.8,4.3c-0.6,1.8-1.2,3.8-1.7,6.1c-0.5,2.3-1,4.8-1.5,7.5L113.3,90.3 M250.3,97.8
		c1.5-3.5,2.4-5.7,2.9-7.5c0.4-1.4,0.5-2.5,0.5-3.7c0.1-1.2-0.1-2.2-0.3-3c-0.2-0.5-0.3-0.6-0.6-0.9c-0.1-0.1-0.4-0.2-0.6-0.2
		c-0.3,0-0.5,0.1-0.7,0.3c-0.2,0.2-0.6,0.8-0.8,1.3c-0.2,0.5-0.5,1.2-0.7,2.1c-0.2,0.9-0.4,1.9-0.5,3.3c-0.1,1.7-0.1,3.2,0.1,4.6
		C249.7,95.4,249.9,96.6,250.3,97.8 M160,125c-1.1,0-2-0.1-2.9-0.3c-1-0.3-1.6-0.6-1.6-1.1c-0.2-1.7-0.4-3.8-0.6-6.4
		c-0.1-2.6-0.2-5.4-0.3-8.5c0-0.8,0-1.7,0-2.5c-0.1,0.1-0.2,0.1-0.3,0.2c-0.5,0.4-1.2,0.7-1.8,0.7c-0.2,0-0.4,0-0.6,0
		c-0.6,0-1.2-0.1-1.9-0.3c-0.5-0.2-1.2-0.5-1.6-0.9c0.2,1.2,0.2,2.5,0.1,3.8c-0.3,3.2-1.3,5.9-3.2,8.1c-1.1,1.2-2.3,2.1-3.7,2.6
		c-1.1,0.5-2.3,0.7-3.6,0.7c-0.3,0-0.6,0-0.9,0c-1.8-0.2-3.5-0.6-4.9-1.4c-1.4-0.8-2.6-1.8-3.7-3c-0.7-0.9-1.3-2-1.7-3.1
		c-0.6,1.3-1.1,2.5-1.5,3.3c-1.1,2-2.5,3.9-4.3,5.7c-1.2,1.2-3.2,2.8-4.6,3.7c-1.4,0.9-2.7,1.7-4.1,2.4c0.5,0.7,0.9,1.5,1.4,2.2
		c0.4,0.8,0.8,1.6,1.2,2.5c0.5,1.3,1,2.6,1.4,4.1c0.3,1,0.5,2,0.7,3c6.5-0.7,14.4-1.5,28.2-3.2c6.6-0.8,18.2-2.6,31.3-3.3
		c0-1,0-2,0.3-3.1c0.3-1.2,0.6-2.5,0.9-3.9c0.5-1.9,0.8-3.7,1.1-5.5c0.3-1.8,0-3.2-0.8-4.3c-0.9-1.3-2.7-2-5.4-2.2
		c-0.4,0-0.7-0.2-1-0.4c-0.2-0.3-0.4-0.6-0.4-1c0-0.5,0.3-1,0.8-1.3l0.5-0.4c1.7-0.6,3.2-1.4,4.4-2.3c1.2-0.9,2.3-1.9,3.1-2.9
		c0.8-1,1.5-2.1,1.9-3.2c0.4-1.1,0.7-2.1,0.9-3.1c0.2-1.5,0.3-2.7,0.1-3.3c-0.2-0.7-0.5-1.1-0.9-1.2c-0.1,0-0.2,0-0.3,0
		c-0.4,0-0.8,0.1-1.3,0.4c-0.6,0.4-1.3,0.9-2,1.5c-0.7,0.6-1.3,1.2-1.9,1.9c-0.6,0.7-1.1,1.3-1.5,1.8c-2.1,2.8-3.9,6-5.5,9.7
		c-1.6,3.7-2.8,7.5-3.7,11.6c-0.2,0.7-0.8,1.3-1.8,1.6c-1.1,0.3-2.2,0.5-3.4,0.6C160.3,125,160.2,125,160,125 M140.7,116.2
		c0.1,0,0.2,0,0.3,0c1.1-0.1,2.1-0.7,3-1.9c0.9-1.1,1.5-2.8,1.7-4.8c0.1-1.2,0.1-2.3-0.1-3.3c-0.2-1.1-0.6-2-1.1-2.8
		c-0.5-0.8-1.1-1.4-1.8-1.9c-1,0.4-1.9,0.9-2.6,1.5c-0.7,0.6-1.4,1.4-1.8,2.1c-0.5,0.8-0.8,1.6-1.1,2.5c-0.2,0.9-0.3,1.8-0.3,2.7
		c0,2.2,0.4,3.7,1.3,4.7C138.9,115.8,139.7,116.2,140.7,116.2 M251.6,137.3c0.1,0,0.1,0,0.2,0c0.7-0.1,1.5-0.4,2.4-1.1
		c0.9-0.7,1.7-1.5,2.5-2.5c0.8-1,1.5-2.1,2-3.3c0.6-1.2,0.9-2.4,1-3.5c0.1-1.1,0-2.2-0.4-3.1c-0.3-1-0.9-1.9-1.6-2.8
		c-2.1,1.5-4,3.2-5.5,5.1c-1.5,1.9-2.4,4.2-2.7,6.9c-0.1,1.6,0,2.7,0.4,3.3C250.5,137,251,137.3,251.6,137.3 M101.2,129.1l-0.1-3.1
		c-0.7,0.1-1.2,0.3-1.6,0.6c-0.3,0.3-0.5,0.6-0.6,0.9c0,0.2,0,0.4,0.1,0.5c0.1,0.1,0.2,0.2,0.3,0.4c0.2,0.2,0.5,0.3,0.8,0.4
		C100.5,128.8,100.9,128.9,101.2,129.1 M112,141.2c0.8-0.1,1.5-0.2,2.2-0.3c-0.4-2.3-1-4.4-1.9-6.3c-0.1-0.3-0.3-0.6-0.4-1
		c-0.1-0.4-0.3-0.7-0.5-1.1c0.1,1.7,0.2,3.4,0.3,5.2C111.8,138.9,111.9,140,112,141.2 M43.2,175.9c10.2,0,19-10.7,23.1-20.3
		c1.2-2.8,2.3-5.9,3.3-9.1c0.3-1.1,0.5-1.6,0.9-2.9c-2-1-5.6-2.5-7.5-2.9c-3.3-0.7-6.4-1.2-9.3-1.3c-0.8,0-1.6-0.1-2.4-0.1
		c-5.2,0-9.7,0.9-13.4,2.8c-6.7,3.3-10.3,9.4-10.8,18c-0.1,1.7,0.1,3.6,0.3,4.8c1.4,6.5,6.7,10.6,15,11
		C42.7,175.9,42.9,175.9,43.2,175.9 M114.2,152.3c0.1,0,0.1,0,0.2-0.1c0.1-0.2,0.3-0.9,0.4-2c0-0.2,0-0.5,0.1-0.7
		c-0.5,0-1,0.1-1.5,0.1c0,0.2,0.1,0.4,0.1,0.6c0.2,0.8,0.3,1.4,0.5,1.8C114,152.2,114.1,152.3,114.2,152.3 M78.3,38.8
		c-2.2,0-3.8,1.3-4.2,3.5c-0.6,2.7-1.1,5.2-1.7,7.4c-0.6,2.2-1.3,4.7-2.3,7.5c-0.9,2.8-2.1,5.6-3.4,8.5c-7,14.9-15.6,22.1-26.3,22.1
		c-1.1,0-2.2,0.4-3,1.3c-0.8,0.8-1.3,1.9-1.3,3c0,1.1,0.4,2.2,1.3,3c0.8,0.8,1.8,1.3,3,1.3c7.8,0,15-2.9,21.4-8.8
		c3.2-3,6.2-6.9,9-11.5c0.3,2.7,0.6,5.5,0.9,8.4c0.6,5.6,0.9,23.5,0.9,31.8c0,6.9-0.8,13.5-2.4,19.9c-6.6-2.1-13-3.1-18.9-3.1
		c-6.2,0-11.6,1.1-16.2,3.4c-8.8,4.4-13.7,12.4-14.2,23.3c0,0.3,0,2.3,0,2.7c0.5,10.7,7.9,21.9,23.2,22.7c0.6,0,1.3,0,1.9,0
		c13.6,0,25.4-7.9,34-22.7c2-3.5,3.6-6.8,5.1-10.5c3.1,0.6,7.1,0.9,11.9,0.9c1.5,0,3.1,0,4.9-0.1c0.2,0.7,0.4,1.3,0.7,1.9
		c1.9,5,4.8,7.7,8.6,8.1c0.1,0,0.3,0,0.4,0c0.8,0,1.7-0.2,2.8-0.6c1.5-0.5,2.8-1.7,3.9-3.7l0,0l0,0c0.9-1.8,1.5-4,1.9-6.6
		c1.6-0.1,2.9-0.1,4.2-0.1c3.4-0.1,6.5-0.1,13.4-0.8c2.8-0.3,6.5-0.8,10.7-1.3c11.3-1.5,26.8-3.6,42.7-3.6c1.4,0,2.9,0,4.2,0.1
		c34.8,0.9,39.9,1.6,52.9,5.4c5.9,1.7,18.6,6.8,27.1,12.2l3.3,2.1l0.6-3.9c0.9-6.3-13.2-15.1-13.8-15.5c-1.5-1-3.1-1.9-4.7-2.7
		c0.6-0.2,1.2-0.4,1.8-0.7l0,0l0,0c2.8-1.3,5-3.2,6.7-5.6c1.9-2.6,3.1-5.7,3.4-9.2c0.2-3-0.1-5.7-0.9-7.9c-0.5-1.3-1.1-2.6-1.8-3.9
		c1.5-1.1,3-2.3,4.3-3.6c2.2-2,3.8-4.4,4.8-7.3c0.4-1,0.3-2.1-0.1-3c-0.5-1-1.3-1.7-2.3-2.1c-0.4-0.2-0.9-0.2-1.3-0.2
		c-0.6,0-1.1,0.1-1.6,0.3c-1,0.4-1.8,1.3-2.2,2.3c-0.6,1.7-1.6,3.2-3,4.4c-1.1,1-2.4,2-3.7,3c-0.3-0.3-0.6-0.5-0.9-0.8
		c-0.8-0.7-1.6-1.4-2.3-2.1l0,0l0,0c-1.4-1.2-2.8-2.5-4.1-3.7c-1-0.9-1.7-1.7-2.3-2.6l0,0c1.5-3.3,2.6-5.8,3.4-9
		c0.4-1.8,0.7-3.5,0.7-5.3c0-1.8-0.3-3.5-0.9-5c-0.7-1.7-1.8-3.1-3.3-4.1c-1.6-1.1-3.1-1.6-5.3-1.7c-0.3,0-0.6,0-0.9,0
		c-1.6,0-3.3,0.4-4.8,1.2l0,0l0,0c-0.9,0.5-1.8,1.2-2.7,1.9c-0.9,0.8-1.6,1.7-2.3,2.7c-1.2,1.9-2,4.2-2.2,6.7
		c-0.2,2.8-0.2,5.3,0.2,7.7c-1-0.4-2-0.6-3.1-0.7c-0.3,0-0.7,0-1,0c-0.7,0-1.3,0-2,0.1c-1.1,0.2-2.1,0.5-3,1
		c-1.4,0.8-2.1,1.9-2.3,2.7l0,0.1l0,0.1c-0.4,1.3-0.7,2.5-1.1,3.6c-0.4,1.1-0.8,2.3-1.3,3.6c-0.5,1.3-1.1,2.7-1.7,4
		c-1,2-2.1,3.7-3.2,5c-0.4,0.5-0.8,0.8-1,1.1c-0.2-0.7-0.4-2.2,0-5.5l0,0l0,0c0.1-1,0.2-2,0.4-2.8c0.2-1,0.4-1.9,0.5-2.7
		c0.2-0.9,0.4-1.7,0.6-2.5c0.5-2.1-0.2-4-1.9-5.2c-1.2-0.9-2.7-1.4-4.4-1.6c-0.4,0-0.9-0.1-1.3-0.1c-1.1,0-2.3,0.2-3.4,0.5
		c-2.4,0.7-3.4,2.2-3.9,3.3c-0.1,0.3-0.3,0.8-0.8,2.8c-0.1,0.3-0.1,0.6-0.2,0.9c-0.1,0.2-0.2,0.4-0.2,0.6l0,0l0,0
		c-0.7,2.1-1.3,4-1.9,5.6c-0.6,1.7-1.3,3.5-2.2,5.6c-0.8,2-1.8,4.1-2.9,6.2c-0.5,1-1.2,2.2-2,3.5c-0.8,1.4-1.7,2.7-2.6,3.9
		c-0.4,0.5-0.7,1-1.1,1.4c0.1-0.4,0.2-0.9,0.3-1.4l0-0.1l0-0.1c0.2-1,0.4-2.1,0.6-3.1c0.2-1.2,0.4-2.4,0.4-3.5
		c0.1-3.1-0.6-5.7-2-7.6c-0.5-0.7-1.1-1.3-1.8-1.8c1-0.7,2-1.4,2.8-2.2c1.8-1.6,3.2-3.5,4.2-5.5c1-2.1,1.5-4.3,1.5-6.5
		c-0.1-2.7-0.9-5-2.5-6.8c-1.6-1.9-3.8-3-6.5-3.2c-0.3,0-0.7,0-1,0c-2.6,0-5.2,0.9-7.8,2.5c-2.6,1.8-5.1,4.2-7.4,7.1
		c-1.2,1.6-2.3,3.2-3.4,5c0-3.3,0.1-6.6,0.3-10c1-1.5,2.1-3.3,3.1-5.2c1.2-2.2,2.3-4.8,3.5-7.8c1.6-4.3,2.5-8.4,2.7-12.3
		c0.1-1.3,0-2.6-0.1-4c-0.1-1.5-0.5-2.9-1-4.1c-0.6-1.4-1.4-2.6-2.4-3.6c-1.2-1.1-2.7-1.8-4.6-1.9c-0.3,0-0.5,0-0.8,0
		c-2.7,0-5,1.1-7.1,3.3c-2.6,2.7-4.6,7.2-6.1,13.7c-0.6,2.5-1.1,5.3-1.5,8.4c-0.4,3-0.7,6.4-0.9,10c-0.2,3-0.4,6.2-0.4,9.5
		c0,0.8,0,1.6,0,2.4c-0.1,0-0.1,0-0.3,0c-0.1,0-0.1,0-0.2,0c-0.1-0.1-0.4-0.3-0.7-0.5c-0.4-0.3-0.6-0.6-1-0.9
		c-0.3-0.3-0.6-0.6-1-0.9l0,0l0,0c-1.3-1.1-2.2-1.8-3.6-2.6c-1.5-0.9-3.3-1.5-5.3-1.6c-0.5,0-1.1-0.1-1.6-0.1
		c-3.9,0-7.2,1.3-9.9,3.8c-1.3,1.3-2.4,2.7-3.1,4.4c-0.1,0.2-0.2,0.4-0.3,0.6c-0.6,1.2-1.1,2.6-1.6,4c-1.2,3.3-2.6,7.1-5.5,10.3
		c-1.3,1.5-2.7,2.7-4.2,3.6c0-0.1,0-0.1,0-0.2c0.1-1.4,0.1-2.7,0.1-3.6c0.1-3.9,0.3-7.7,0.5-11.5c0.2-3.4,0.5-6.8,0.8-10
		c1.9-1.8,3.5-3.7,5-5.8c2.2-3.1,3.8-6.4,4.8-9.8c1.3-4.1,1.9-8.2,1.8-12.2l0,0l0,0c-0.3-4-1.2-7.2-2.8-9.8l0,0l0,0
		c-1.6-2.4-3.9-3.8-6.5-4l-0.1,0c-0.2,0-0.5,0-0.7,0c-2.1,0-4.1,0.8-5.9,2.5c-2.2,2-4.1,5.3-5.7,10.1c-1.4,4-2.5,8.9-3.5,14.5
		c-0.8,4.8-1.5,10.2-2,16c-0.5,5.8-0.8,11.9-1,18.2l-0.1,5.2c-1.1,0.4-2,0.9-2.8,1.7c-1.3,1.2-2.1,2.7-2.2,4.3
		c-0.2,2.2,0.7,4.2,2.5,5.6c0.8,0.6,1.8,1.1,2.8,1.5c0.1,0.9,0.1,1.8,0.2,2.6c0.1,1.4,0.2,2.7,0.4,4.1c-3.9,0.6-6.9,0.8-9.4,0.8
		c-0.6,0-1.2,0-1.8-0.1c0.7-3.5,1.4-9,1.9-14.2c0.5-5.9,0.2-13.8-0.1-19c-0.1-1.6-0.1-3-0.2-4c-0.1-4.4-0.7-12.3-0.8-13.8
		c-0.5-6.2-1.1-12.4-1.8-18.2c-0.7-5.8-1.5-11-2.2-15.4c-0.7-4.5-1.4-8.1-1.9-10.7c-0.5-2.6-0.7-3.5-0.7-3.8v-0.1L82.4,42
		c-0.3-1-0.8-1.9-1.6-2.4C80.1,39.1,79.2,38.8,78.3,38.8L78.3,38.8z M173.5,108.7c1.1-2.1,2.3-4,3.6-5.7l0,0l0,0
		c0.3-0.5,0.8-1,1.3-1.6c0.6-0.6,1.2-1.2,1.8-1.8c0.1-0.1,0.2-0.2,0.3-0.2c0,0.2,0,0.4-0.1,0.6c-0.1,0.8-0.3,1.6-0.7,2.5
		c-0.3,0.8-0.9,1.7-1.5,2.5c-0.7,0.9-1.6,1.7-2.6,2.5C174.9,107.9,174.2,108.4,173.5,108.7L173.5,108.7z M140.7,113.7
		c-0.2,0-0.4-0.2-0.7-0.5c-0.2-0.2-0.6-0.9-0.7-3l0,0l0,0c0-0.6,0.1-1.3,0.2-2c0.2-0.7,0.4-1.3,0.8-1.8c0.3-0.6,0.8-1.1,1.3-1.6
		c0.1-0.1,0.3-0.2,0.5-0.4c0.1,0.1,0.1,0.2,0.2,0.2c0.3,0.5,0.6,1.2,0.7,1.9c0.2,0.8,0.2,1.7,0.1,2.7c-0.1,1.6-0.5,2.7-1.1,3.5
		C141.5,113.3,141.1,113.6,140.7,113.7C140.7,113.7,140.7,113.7,140.7,113.7L140.7,113.7z M237.3,121.2c0.1-2.1,0.4-4.5,0.8-7.2
		c0.3-1.6,0.5-3.2,0.8-4.6c0.3-1.5,0.5-2.8,0.8-3.9c0.1-0.3,0.2-0.7,0.2-1c0.3,0.5,0.6,1,0.8,1.5c0.7,1.1,1.4,2.2,2.2,3.2
		c-0.1,0.4-0.3,0.7-0.5,1.1c-0.3,0.8-0.7,1.6-1,2.3c-0.5,1.3-1.4,3-2.1,4.6c-0.2,0.4-0.4,0.8-0.6,1.2
		C238.2,119.5,237.7,120.4,237.3,121.2L237.3,121.2z M138.1,123.7c1.6,0,3.1-0.3,4.5-0.9c1.7-0.7,3.3-1.8,4.6-3.3l0,0l0,0
		c2.2-2.6,3.5-5.8,3.8-9.5c0-0.1,0-0.3,0-0.4c0.2,0,0.5,0,0.8,0c0.1,0,0.1,0,0.2,0c0.1,2.7,0.1,5.3,0.3,7.7c0.1,2.7,0.3,4.9,0.6,6.6
		c0.1,1.1,0.9,2.6,3.5,3.3c1.1,0.3,2.3,0.4,3.6,0.4c0.2,0,0.4,0,0.5,0c1.5,0,2.9-0.3,4.2-0.7c2.4-0.8,3.3-2.3,3.5-3.5
		c0.5-2.3,1.1-4.6,1.9-6.8c0.6,0.6,1.4,0.9,2.3,1c2.7,0.2,3.5,1,3.6,1.2c0.4,0.5,0.5,1.3,0.3,2.4c-0.3,1.7-0.6,3.5-1.1,5.2
		c-0.4,1.4-0.7,2.7-1,4c-0.1,0.4-0.1,0.8-0.2,1.2c-10.1,0.7-19.3,1.9-25.5,2.7c-1.4,0.2-2.6,0.3-3.7,0.5c-9.5,1.2-16.1,1.9-21.5,2.5
		c-1.5,0.2-3,0.3-4.3,0.5c-0.1-0.3-0.1-0.6-0.2-0.8c-0.4-1.5-0.9-3-1.5-4.4c-0.4-1-0.9-2-1.4-2.8c0,0,0,0,0-0.1
		c0.6-0.4,1.3-0.8,1.9-1.2c1.5-1,3.6-2.6,5-4c1.7-1.7,3.1-3.5,4.2-5.5c1.1,1.2,2.4,2.3,3.9,3c1.7,0.9,3.7,1.5,5.9,1.7
		C137.3,123.7,137.7,123.7,138.1,123.7L138.1,123.7z M236.7,135.4c1.4-1.1,2.2-2.1,3.1-3.3l0,0l0,0c2.2-2.8,4.1-6,6.2-10.2
		c0.2-0.5,0.5-1,0.7-1.6c0.7-1.5,1.5-3.2,2.1-4.6c0-0.1,0.1-0.1,0.1-0.2c0.5,0.5,1,0.9,1.5,1.4c0.6,0.6,1.2,1.2,1.8,1.7
		c-0.7,0.6-1.4,1.2-2,1.8c-3.5,3.6-5.5,7.7-5.9,12.2c-0.1,1.7,0,3.3,0.5,4.7C242.1,136.6,239.4,135.9,236.7,135.4L236.7,135.4z
		 M199.1,131.3c1.2-1.8,2.4-3.9,3.5-6.2c0.4-0.9,0.9-1.7,1.3-2.6c0.1,0.1,0.1,0.2,0.2,0.3c1.9,2.7,4.7,4.3,8.2,4.6
		c0.3,0,0.6,0,0.9,0c1.8,0,3.5-0.4,5-1.2c1.4-0.7,2.6-1.7,3.8-2.9c0.1,4.4,0.8,7.7,2.2,10c0,0,0,0.1,0.1,0.1
		c-7.4-0.9-14.7-1.4-21.6-1.8l-2.8-0.2C199.6,131.4,199.4,131.3,199.1,131.3L199.1,131.3z M252.2,134.5c0-0.3,0-0.6,0-1.1
		c0.2-2.2,0.9-4,2.1-5.5c0.8-1,1.7-2,2.8-2.9c0.2,0.5,0.2,1.1,0.1,1.8c-0.1,0.8-0.3,1.7-0.8,2.6c-0.5,1-1.1,1.9-1.7,2.8
		c-0.7,0.8-1.4,1.5-2.1,2.1C252.5,134.3,252.4,134.4,252.2,134.5L252.2,134.5z M29.9,164.3c-0.2-1.1-0.4-2.8-0.3-4.1
		c0.4-7.7,3.5-12.9,9.4-15.8c3.4-1.7,7.5-2.5,12.3-2.5c0.7,0,1.5,0,2.2,0.1c2.8,0.1,5.8,0.6,8.9,1.3c1.1,0.2,3.1,1,4.9,1.8
		c-0.1,0.2-0.1,0.5-0.2,0.7c-1,3.1-2.1,6.1-3.2,8.8c-3.9,9-12,18.8-20.7,18.8c-0.2,0-0.4,0-0.6,0C35.6,172.9,31.1,169.8,29.9,164.3
		L29.9,164.3z"/>
</g>
</svg>
