<?xml version="1.0" encoding="UTF-8"?>
<svg id="Layer_1" data-name="Layer 1" xmlns="http://www.w3.org/2000/svg" width="1763.6392" height="472.6649" viewBox="0 0 1763.6392 472.6649">
  <defs>
    <style>
      .cls-1 {
        fill: #b29448;
      }
    </style>
  </defs>
  <g>
    <path class="cls-1" d="M62.3754,164.1716l-1.8343-103.3485,7.9502-9.7845-11.0076-6.1149V10.6777l58.0957-1.2232,7.9492,21.4042-7.3381,53.8141,2.4464,170.6166-6.727,4.8927,4.8917,18.3458,7.3391,105.1828-9.7845,17.1226-19.5689,17.1235-16.5115,2.4454.6111,12.2308-45.2528,36.6915L0,444.2516v-31.7988l26.907-11.0076,26.907-17.7346,9.1734-12.8419-1.2232-5.5038,2.4464-66.657v-23.8496l-.6121-8.5613-.6111-37.9147,3.0575-33.634-3.6695-30.5766Z"/>
    <path class="cls-1" d="M245.2906,217.9857v-14.0651l1.2232-4.8917-2.4464-105.1828v-3.6695l-3.6686-11.0076,1.2232-29.9645-1.8353-38.5268,31.1887-.6111,40.9721,1.2232,15.8994,6.1149,6.727-7.3381,65.4338-.6121v31.1887l-5.5038,27.5181-23.8496.6121-36.0804-6.1159-21.4032,1.2232-8.5613,1.8353h-4.2806l-1.8353,22.0143-1.2222,29.9655-7.3391,4.2806,9.1734,9.1724,1.2232,75.8303,35.4683-1.2232h8.5613l39.1379-2.4464,3.6695,25.6839-1.8343,15.2883-4.8927,20.181h-20.7921l-9.7845-4.2806-3.0575,1.8343-47.6991-1.2232v11.6187l1.8343,25.6848-.6111,51.3687,1.8343,26.907,2.4464,25.6839-1.2232,18.9578,3.0575,8.5613v29.9645l-24.4607,1.2232-43.4185-4.2806,3.0575-72.1608,8.5613-26.295-7.9502-11.0076,1.8343-62.3763,1.2232-66.657Z"/>
    <path class="cls-1" d="M1029.2286,7.0091l23.2375,7.9492-6.1149,151.6597,1.2232,29.3534v18.3458l1.8343-4.8927,9.1734-23.8496,10.3956-16.5115,24.4617-58.7068,10.3956-26.295,17.1226-17.1235-2.4454-15.2883,18.9569-44.6407,37.3036,14.6762,18.9569,14.6772-17.7337,32.4109-37.3036,61.7643-1.8343,3.0575,1.8343,1.8343-44.0296,83.7795,3.0575,4.8927,36.0804,82.5564,21.4032,47.088,20.7921,34.8572-3.0575,8.5613,8.5613,1.8343,17.7337,39.749-44.0296,24.4617-15.2883-.6121-17.7346-45.2528-32.4109-72.7719,3.0575-7.9502-20.7921-33.634.6121-1.2232-24.4617-50.7566v100.291l2.4464,29.3534.6111,29.9645.6121,6.727,2.4464,11.6187-.6121,31.1887-32.4109,1.2232-32.4109-.6121.6111-63.5985,1.8353-.6121-.6121-2.4464,10.3965-24.4607-7.3391-8.5613,1.2232-9.7845v-3.6695l3.6695-132.0898-5.5038-33.0229-3.0575-77.0525,1.2232-48.9223-6.727-43.4185,44.6417-6.1149Z"/>
    <path class="cls-1" d="M1307.9781,273.0239l-4.2806-66.657.6121-43.4185,4.8917-12.8419-3.0575-18.9578-3.6695-98.4558,7.9502-22.6264,55.0373,1.2232-.6111,54.4262-1.8343,19.5689-6.1159,22.0143.6121,11.0076,6.1149,13.454-4.2806,23.2375.6111,20.7921.6121,22.6264,1.2232,45.8649-4.2806,72.1608,4.2806,71.5487.6111,9.1734,6.727,5.5038,4.8917.6111,20.181-7.3381,50.1455-21.4042,2.4454-39.749,1.8353-77.6646-3.6695-74.6062v-50.7566l-2.4464-77.0525,1.2232-43.4185,30.5766-.6121,28.1302.6121,3.6695,29.9645-1.8343,33.0229-6.727,3.6686,6.1149,6.727-4.2806,39.7499-1.2232,33.634-.6111,8.5613-6.1159,10.3956,6.1159,6.1159,3.0575,17.7337-1.2232,135.7593,3.6695,71.5497,8.5613,47.6991-59.3189,9.7845-4.8917-33.0229-1.2232-4.2806-46.476,23.8496-19.5689,10.3956-38.5268-.6111-36.6915-31.7998-.6111-30.5766,1.8343-28.7413,8.5613-11.0076-6.1149-6.727-.6121-80.11Z"/>
    <path class="cls-1" d="M1707.9898,289.5354l-20.7921-25.0728-12.2308-5.5038-47.0871-43.4185-29.3534-28.7423-.6121-38.5258,29.9655-42.8074,31.1877-36.0804-1.2232-6.727,15.8994-21.4032,12.2308-7.9502c1.2232-2.4454-1.2232-5.5038-.6111-7.3381l14.6762-24.4607,18.3458,1.8343,36.0804,28.7413-16.5115,24.4617-15.8994,15.8994-5.5038,11.0076-34.8572,40.9731-6.1149,8.5613-1.2232,4.2806-18.3458,24.4607,11.6187,14.0651,11.6187,16.5115,9.7845,6.1149,56.8725,53.2039,16.5115,12.2299,1.2232,47.6991-22.0153,36.0804-33.0229,40.361-24.4607,33.0229c-2.4464,4.2806-4.2806,9.1724-6.1149,12.8419l.6111-2.4464-6.727,19.5689-16.5115,20.181-50.1445-31.1887,9.1724-22.6264,11.6187-10.3956c6.1159-8.5613,10.3965-15.2883,15.9004-23.8496,3.6686-6.1159,6.727-11.6197,10.3956-17.7346l17.1226-7.9502-1.2222-6.727,39.749-61.1522Z"/>
  </g>
  <g>
    <path class="cls-1" d="M911.8214,209.1774c.9771,7.2343,5.8935,13.3041,6.8122,20.9321,1.3233,10.9878-1.5075,23.4078-8.3683,32.2635-2.6561,3.4283-11.7486,8.746-8.363,13.2215,2.6371,3.486,7.8339-3.8471,9.929-6.3563,9.4458-11.3122,14.2003-22.1553,12.7109-37.1777-.4792-4.8344-4.2986-19.2594-7.7174-22.4605-1.6214-1.5182-3.8671-1.2452-4.0085-1.4012-.4534-.4998,4.8101-7.7058,4.9995-12.0866.1058-2.4499-2.6673-14.0632-4.0646-14.9835-.9373-.6174-3.4938.1506-3.8527,1.507,1.6262,5.5896,4.1309,10.0163,2.7088,16.1684-.7068,3.0578-11.5109,14.4497-9.6586,16.1855,2.8167,2.6393,6.8352-4.8642,8.8727-5.8121Z"/>
    <path class="cls-1" d="M911.8313,269.2381c-1.4915,1.0016,5.0987,19.4219-5.92,20.3335.2362-.952.6629-1.5192.241-2.5743-1.6764-4.1918-5.7614-11.3205-8.3329-15.1467-1.4745-2.194-2.6484-5.217-5.7221-5.5344,1.337-2.2536,5.3512-3.2108,6.8317-5.466.6323-.9632.6466-3.1241.2714-3.9344,1.7708,2.3995,5.3283,6.5626,8.1718,6.5089,5.1903-1.4194-5.894-12.6871-7.2098-15.1855-5.4585-10.3652-2.5527-17.156.8231-27.4364,7.1668,4.9627,9.2556,14.6112,6.6207,22.4916-.6926,2.0714-5.0222,8.0634-3.6652,9.4706,3.4019,3.5279,9.774-12.4962,9.9106-15.047.4618-8.6287-4.6635-17.1205-10.9028-22.7285-1.2075-1.0854-7.6844-6.9453-8.8818-3.8764,1.8003-3.7671,3.8229-8.4438,3.9571-12.5916,2.6474,1.5192,4.6203,4.561,7.6046,5.6049,5.8454,2.0449-2.3273-7.551-3.1615-8.523-2.1896-2.5518-9.5088-10.5685-12.725-9.5997-6.0897,1.8341,6.2662,9.9621,6.2675,11.0649l-6.8673,10.1654c-.2731-5.3715-5.3057-7.061-5.0089-13.0604.2121-4.2879,9.871-16.9767,7.9589-18.9017,2.8203,1.5898,8.5176,5.3126,11.362,2.9142,4.3049-3.6299-5.7259-7.0973-8.3991-7.77.8604-1.0094,5.5528-11.543,6.894-10.6414,3.5684,6.2437,5.128,9.8988,3.2866,17.257-.6423,2.5663-6.0495,12.2943-5.9503,13.2658.0857.8405,1.601,1.6554,2.1837,2.3936,6.7879-8.0802,14.2117-18.9843,8.5877-29.7244-1.3535-2.585-6.2273-6.4525-6.897-8.73-.9478-3.2231.2587-7.8106-.276-11.3536-.8467-5.6108-5.1687-10.7484-10.3039-13.1182-4.6821,4.761,1.6389,7.2862,3.6599,10.9209,6.4333,11.5699-4.1171,17.3918-3.1617,27.7961-.8729.6499-11.484-4.7638-11.8474-2.408-.4354,2.3195.132,1.7934,1.2162,2.7097,1.729,1.4613,7.5694,5.3182,9.6451,6.4883-5.3617-.7434-5.6448,4.2821-8.8717,6.7755.567-4.0063-3.7897-3.9244-5.1921-7.0172-3.5453-7.819,8.8995-13.5163,7.0681-19.4769-2.2056-7.1785-9.4025,8.4461-10.7587,7.124-12.9537-30.8617,13.2107-5.2587,19.1369-6.8211,3.1199-2.1528,1.3806-3.9024-1.0492-5.6141-2.0677-1.4566-14.8119-7.8052-17.0805-8.4174-13.0468-3.5217-12.9192,18.4033-2.9964,22.3112-4.3967,1.8946-8.0413-1.0801-11.5685-3.1759-26.3168-15.6379-2.8924-17.4701,12.2375-24.2693,19.6589-8.8341,5.2809-7.0391.1254-16.9271-1.4999-2.8772-2.2243-7.7119-2.6366-10.9742-.5574-4.4106,1.7367-10.6568-3.8207-11.9259.873.1448,2.1803-.1678,3.606.4659,6.1064,2.7144,10.637,9.3401,10.9387,15.9394-.8176.9028-10.118-8.1015-8.6852-1.6467,1.8874,8.5029,11.2081,9.2109,11.7349,18.5834.1359,2.415-1.5123,14.3309,1.5175,15.0776,3.8983.9609,4.0209-2.0143,4.3112-5.3795,2.1606-25.0413-6.0577-52.1754-36.504-50.8435-.3394,5.8274,8.0037,6.1823,12.8267,7.7449-.5831-.1121-1.333.0491-1.9686.001-.8686,8.4178,3.9866,23.565-.9919,30.5143-4.4474,6.2078-16.538,6.7739-23.6825,7.2598,1.277-4.9847,8.7941-6.0798,11.2689-10.7256,1.3769-2.5848,1.996-8.2229,1.5575-11.085-.1804-1.1771.5014-1.825-1.4926-1.4522-9.6403,1.8024-12.7056,20.8409-19.9739,23.0265-1.9075.5737-12.4818,2.8452-8.6459-1.7046,2.3424-2.7783,6.8668-4.705,9.0436-7.1062,1.973-2.1767,7.131-11.9639,7.2846-14.6654.1946-3.4178-7.2537.4884-8.6262,1.2373-8.3163,4.5378-5.9575,7.4389-8.7223,14.7139-4.2493,11.1806-23.5035,11.1345-19.4451,1.2832,1.2393-3.0078,10.303-14.5278,13.009-16.3446,4.9536-3.3257,12.4097-1.4268,18.4974-4.1248,3.6063-1.5985,5.3455-1.7755,2.2928-5.0056,4.2386.0647,25.6047,8.7669,27.638,6.7751,1.9891-8.77-6.6264-6.4981-10.0673-12.8911-2.7603-5.1291.0648-18.1265-5.2356-18.1538-6.861-.0355,4.1307,16.9916-9.4335,14.1417-8.4907-1.784-18.6345-13.849-16.8056,4.6423l10.9379,4.4977c-6.9163-.9142-11.7942,1.4657-16.7633,5.8222l7.4444-27.073c1.6932-2.5632,7.2771-4.0521,10.0386-5.6529.5907-.3423,1.9388-.027,1.2504-1.6504-1.5184-3.5821-11.4914-7.7324-15.2552-12.172-1.6928-1.9969-.6519-5.1896-4.8468-3.7137-1.271.4473-1.384,1.1457-1.6032,2.309-.9499,5.0378.4626,12.8884.0394,18.4447-1.7971,23.5993-12.8507,31.6348-28.1778,46.9343-2.0062,2.0026-3.4284,5.2629-5.5131,7.1822-1.8478,1.7014-16.1571,10.7487-17.664,9.2924-.2316-5.8676,6.7228-6.4749,10.3839-8.6881,4.2082-2.5438,8.4105-8.1139,8.3998-13.0853-.0027-1.2556.1304-1.9446-1.4983-1.4575-.7284.2177-12.7354,6.7914-13.2947,7.2989-2.5114,2.2798-3.7833,8.071-5.5852,10.9862-3.2424,5.2459-8.1514,9.8409-14.1917,11.7315-1.8156-2.2467,8.4288-11.9122,9.7151-14.1884,3.2085-5.6778,2.6399-13.6175-1.3359-18.7293-1.8792-.0099-7.9053,12.541-8.6129,14.777-2.946,9.3084-1.4574,20.4679-13.6352,25.3647-12.0848,4.8595,1.1402-8.2821,2.4416-10.1958,4.5403-6.676,2.6915-14.2988,4.5239-21.7162-.1788-3.7282-13.1808,7.6456-14.3556,12.0662-2.4371,9.171,4.4644,21.0834-8.5838,24.5962-12.1667,3.2753-1.7134-20.6269,1.0444-25.2156,6.491-10.8002,26.9217-30.0758,40.1814-30.3793,8.9963-.2058,12.2792,6.9447,24.1935,4.4432,3.5847-.7527,11.2561-4.8542,10.7963-9.2538-5.6393.152-11.5928.4231-17.1928,1.0364-2.1299.2331-4.0277,1.6701-6.0649,1.8104-.9711.0666-7.3421-.8455-5.3575-2.8378,1.5593-1.5653,21.4768-4.2069,25.3049-4.7198,5.116-.6856,12.2321-.3226,16.6188-1.1251,4.2753-.782,6.1767-8.8527,3.4824-11.1329-2.0305-1.7182-11.7043-2.1819-14.813-2.42,1.7831-3.8922,7.0133-4.5239,9.1023-8.0088,2.4812-4.1392,1.6521-9.6557,1.7442-14.2623-.684-.9061-9.4944,7.5319-10.3061,8.7646-3.4163,5.1888-1.2625,13.0227-9.9218,13.0226-8.0068,0-7.6902-5.3853-5.9441-12.1269,1.8825-7.2674,8.7017-12.2571,16.0726-13.2792,5.9882-.8306,22.8469,1.1699,28.1878,3.7955,13.1067,6.4435,11.2737,17.2119,17.2475,26.6636.9205,1.4562,1.9608,3.5108,4.1466,3.1853-.095-10.9279-5.7328-24.792-14.7745-31.5028-10.1746-7.5516-39.5035-7.193-43.526-12.4985-2.6982-3.5593,2.7835-8.4507,1.0631-11.2106,3.169,5.6429,6.8695,13.8016,14.4303,14.5015,2.1919.2029,4.2977-.8851,5.6656-.6764.7716.1175,7.676,5.6491,7.3882.4201-.3041-5.5279-7.5562-15.716-13.3764-16.9531-2.6673-.567-5.6419.4245-8.1728-.6967-3.2712-1.4489-7.9498-8.4557-12.8154-9.7024-3.3333-.8539-10.1504.2065-11.6675-.6667-.5024-.2891-5.2373-6.0787-8.1863-7.9388-14.0216-8.8446-22.8877-3.3286-36.8637-5.4725-6.1962-.9504-7.2521-5.36-16.6158-3.5897-2.5652.4851-4.9481,2.8739-7.0605,2.711-2.4956-.1922-5.76-4.5991-10.0103-4.8024-1.9038-.091-9.8542,1.5483-10.2903,3.3317-1.1637,4.7612,9.1152,2.4044,10.3699,2.3975,8.0298-.0425,10.0251,10.7349,18.9839,12.4115,6.2456,1.1689,14.3323-3.9977,17.3011-3.5359,5.9394.9241,11.1469,12.3796,19.2404,8.8066,3.8797-1.7128-5.0335-6.3787-5.6941-8.9423,5.8723.02,14.1352,9.2535,18.7516,3.8815-2.7882-.1249-3.5999-2.4923-4.9281-4.3816,4.0769-2.2824,12.6532,9.9826,13.5206,10.1978,2.8207.7,5.8813-.9897,8.4522-.779,1.7076.1398,8.7486,3.4116,9.8912,4.5765,1.4675,1.4957.9411,3.5751,1.6858,4.9011-.1981-.317-5.5922-1.1525-7.2731-2.0674-3.9284-2.1382-4.998-7.5052-11.4789-5.6726,2.1842,3.1215,14.4411,22.3573,5.4427,22.2769-5.2989-.0475-12.6756-14.2995-16.3233-16.0451-1.3372-.6397-5.8303,1.4788-6.4695,2.4612-1.8827,2.893,13.6697,20.5126,14.9152,25.1709,2.136,7.9884-.1522,19.5828-9.4035,21.3387-.2607-10.0525,8.1995-22.5533-2.0178-30.472-1.9147-1.4838-10.4323-5.7226-9.1185-.764.9627,3.6336,3.081,9.4326,4.4452,13.1008,2.4589,6.6109,6.2816,7.9722,4.4867,16.4704-.5508,2.6077-7.5209,14.3115-10.6264,11.3519,1.2019-6.7049,4.9833-12.6265,3.8776-19.7914-.3855-2.4985-6.4452-12.5865-8.8124-10.2297.8114,4.3624-.8534,9.9303-.6435,13.898.3477,6.5735,6.7158,9.8292,2.0367,17.984-2.0034,3.4913-15.5076,10.5744-19.8751,13.4295-4.4866,2.9332-15.5806,12.9703-20.3539,11.9008-4.2736-.9574-.5909-18.5446,7.0181-20.2329,2.3599-.5237,4.08,1.1691,7.1415.3881,1.2713-.3244,10.692-5.2491,10.8513-5.8998.7492-3.0565-9.3723-4.2843-11.2365-4.0735-4.1171.4656-9.468,10.0302-12.9793,10.418-6.4857.7164-1.641-8.3515,1.0165-10.7005,3.6572-3.2329,6.7656-2.1387,10.4205-3.3339,7.9857-2.6119,15.9836-8.8092,14.7506-17.9692-1.2459-1.2216-15.9761,5.695-17.6209,7.4019-3.0828,3.1988-3.6717,10.209-9.0164,10.999-1.848-2.0718,9.5543-19.3446,11.8453-21.7851,6.2077-6.6129,7.826-1.0727,14.2695-1.4189,11.4044-.6124,20.4047-16.8868.5368-9.2347-1.6764.6458-7.0408,5.1129-7.9045,4.3407,2.831-4.1309,5.1709-8.6563,9.7301-11.2663,6.2815-3.596,8.0241-1.144,14.4809-1.2595,13.5643-.2431,7.4004-7.9118-2.9892-5.865-.8539.1124-.5938-1.8007-.4883-1.9243,2.2286-2.6107,22.5914-8.1451,24.2222-10.6475,1.1914-1.8282-.3764-4.292-2.2187-4.7147-5.6041-1.2863-34.2543,12.081-43.2758,12.4653-8.9709.3822-15.6283-12.8501-22.702-17.4504,3.8758-10.3533-3.2557-3.5332-6.8013-3.8734-3.8912-.3733-13.3367-8.7054-20.8692-9.6192-5.2635-.6387-20.0417,3.5827-12.2345,7.2214,2.9536,1.3769,6.4398-3.525,10.199-3.1768,1.8941.1754,15.5128,7.8939,14.456,9.4153-5.9097.7446-17.9964,18.338-21.1931,18.4063-3.6229.0771-14.7555-7.5717-20.6998-6.7851-1.7884.2366-3.0237,2.9081-4.4896,1.4795,4.2327-3.4627,14.6987-14.8062,19.9826-13.8936,2.6198.4524,5.4173,3.2137,9.2717,3.3705,2.4373.0992,13.479-2.2113,11.7261-5.4816-2.8708-5.3565-7.0404.6557-11.8861.5236-3.4543-.0941-8.5046-3.9062-12.0499-5.1329-14.5588-5.0367-33.0038-2.0752-42.7099,10.428,6.2159.5531,11.2264-4.2209,16.7888-6.2729,6.5762-2.4262,11.3358-2.6946,18.2329-1.4313,1.2455.2281,3.1026.2567,1.4921,1.8868-2.0987,2.1239-24.1978-3.9252-25.6526,6.7908,6.7607,1.0383,10.9233-1.1057,16.6908-3.4683,1.4569-.5968,2.8707-.5558,2.0497,1.04-.5071.9863-15.0861,11.1707-17.7721,13.5603-2.3606,2.0994-16.0051,15.5373-15.7012,17.3122.3765,2.1998,4.2733,4.2183,6.8126,3.051,5.0028-2.2999,15.5495-17.2041,21.2443-20.8305,4.0066,4.5451,11.2252,7.2342,16.1966,11.2182,1.3543,1.0852,8.7301,7.3197,6.9864,9.1167-6.6102-2.0362-9.3228-10.7887-17.7546-10.6464-.495,4.049.8104,6.7418,3.9997,9.1419,6.9045,5.196,15.6379,1.862,21.5862,6.9055,2.755,2.3361,9.6005,14.1767,5.9795,16.8821-5.9221-3.7945-6.1956-9.7812-13.1132-12.7865-2.1144-.9186-15.5531-4.5951-16.4816-3.6774-3.0473,3.0116,5.4623,11.1375,8.1972,12.7778,6.6926,4.014,9.4965,1.4001,14.7917,2.9185,7.3985,2.1215,11.8039,27.0226,1.7195,22.5461-1.3674-.6069-7.3364-5.4128-8.9307-6.7495-4.2436-3.5581-19.6843-18.5607-21.1653-22.8169-2.2934-6.5908,1.3867-10.0855,1.4449-14.9549.0467-3.9174-2.8386-8.7795-1.986-13.093-7.121,1.8049-8.8686,8.0308-7.4467,14.5832.9014,4.1544,9.1349,11.2368.1654,10.5629-4.5705-.3432-25.8258-11.3959-27.7463-15.4873-2.4586-5.2384,5.0388-16.0652,8.3835-20.308-4.9867-2.1527-6.7565,4.5123-11.557,5.6056-2.915.6639-5.434.0132-8.1732-.7857l6.3766-4.8618c10.0058-7.3216,25.7578,8.591,32.1067-3.8347-10.8115-.9928-29.4218-7.2655-38.0358,1.8804-3.3693,3.5776-1.168,5.6631-1.4382,5.8522-.7487.524-11.4795-.8808-17.7032,3.4625-4.9592,3.461-7.8322,11.4818-.5085,7.25,2.6495-1.5309,3.3753-5.128,8.105-5.6836,2.8178-.3309,13.1111,1.5658,13.9161,4.3851,1.4792,5.1803-4.4084,7.8917-8.515,8.7434-2.7693.5745-17.3048.1093-13.5961,5.1377.8415,1.1405,16.754,1.338,20.5147,2.1448,6.2584,1.3429,29.0556,13.3837,31.3311,18.6577,1.9078,4.4219-7.5322-3.2602-8.1773-3.6034-15.2005-8.087-9.6868,3.785.2505,6.5351,3.3971.9402,8.9978.6668,11.856,1.9252,1.7202.7573,10.8251,10.2209,8.9045,12.0778-5.2224-.5265-10.1707-2.9608-14.8193-5.3035-3.5449-1.7864-10.6199-7.43-13.3225-8.2404-1.7986-.5394-1.3544.3204-1.49,1.4483-1.1075,9.211,10.2387,15.446,18.3063,15.9778,5.4764.3608,13.8158-2.749,17.2521,2.8937-7.669-.6483-11.9786-1.4728-19.1181,2.0694-8.5741,4.2538,2.9391,7.535,8.7053,6.6037,8.5015-1.373,6.6137-10.5303,15.8549-.9275,3.0032,3.1206,13.1735,14.368,14.7665,17.4747,4.0744,7.9466-9.64-3.5433-10.624-4.1037-8.7874-5.0056-17.3973-.2717-22.4099,7.4555,8.8412,5.9999,23.0188-1.759,31.1596,1.3997,6.3423,2.4608,8.0625,13.6,10.2781,19.4426-3.5934-1.9127-2.4787-6.9394-5.9626-9.1528-2.4795-1.5751-8.9346-3.2126-11.7865-1.9934,1.5918,2.3359,3.0272,4.6633,4.9054,6.8098,4.7996,5.4846,15.3148,9.6142,14.8014,17.3583-.6764,10.2037-14.2777,3.4543-17.2506-3.3293-1.7281-3.9425-2.1547-12.7652-4.3674-15.8121-.9529-1.3125-11.5106-6.73-12.8954-5.4987l2.1837,7.0494,10.638,14.2512c-7.3102-1.095-26.7588-14.0208-27.6177-20.9109-.9558-7.6645,4.1947-12.4767.1476-23.3178-2.2205-5.9477-4.6421-1.6073-6.631,2.5259-4.243,8.8175-2.7187,14.1428,3.5101,21.3551-19.683-1.9893-8.1589-21.7377-14.8162-33.8934-6.4438,1.6379-6.6173,11.1355-5.2328,16.2879,1.0253,3.8147,4.209,5.1296,4.2528,8.8921-12.0977-4.059-13.0499-24.6075-5.9387-33.4453,1.3944-1.733,3.8926-2.0022,4.5329-4.2412.9066-3.1704.2648-6.5653.4196-9.7812-2.0471-1.9374-5.4659,4.5954-6.0948,6.1298-1.5969,3.8973-.968,10.1265-4.752,10.3386-2.5195-2.7822,13.2169-27.9331,11.7046-33.2118-.3706-1.2935-2.9964-3.2621-4.3065-3.2629-5.1623-.0029-11.1455,17.7391-16.2761,20.0108,1.7206-5.7774.8482-10.4337-2.5535-15.4223-1.3679-.8502-3.0976-6.638-4.8464-5.8825-2.9332,1.2669-2.8937,9.3571-2.4246,12.0535,1.0904,6.2685,9.2608,8.9219,7.3859,16.0514-2.3943,9.1058-16.4706,7.3451-18.1614-1.4172l6.7752-37.3463c-1.3811.2414-5.1412-.4799-5.8308.0909-.466.386-2.1902,8.7372-3.6631,11.4162-4.9636,9.0267-14.2667,11.361-24.0686,11.7461.1605.9385-.2406,3.6143-.0008,3.8622.5433.5613,13.1498-.457,15.7437,1.0194.4564,7.5775,2.1736,20.9518-9.0287,20.1042-5.8316-.4414-7.0498-4.8984-9.3829-5.4851-4.6773-1.1759-5.0577,4.2146-6.7353,6.616-3.6976,5.2921-11.6097,5.228-16.9384,7.5923-3.6802,1.6328-7.1979,5.4812-11.1486,6.9689-.9112-1.0852,9.8725-14.7586,10.8237-17.9503.4515-1.5147-.1276-1.5503-1.4799-1.4583-9.7413.6632-19.3288,24.1047-18.2309,32.9663,1.1713,1.2043,18.6053-11.5803,21.6876-13.0928,5.0959-2.5006,13.7952-5.7994,19.3773-6.1783,8.3044-.5637-4.3291,4.5328-4.9032,4.8854-3.4829,2.1382-5.1864,6.0975-5.5707,10.0377-.1253,1.2847-.6488,4.1761,1.4633,3.373,8.0962-3.0781,10.1248-14.6394,17.5761-17.6279,5.6941-2.2839,22.604-3.4373,28.74-2.6187,8.1589,1.0884,12.9052,7.699,13.4078,15.4071l-7.6234-7.5222c-2.7983-1.3529-7.1753-1.756-10.1318-.7112,2.0206,2.8552,5.0414,6.7454,7.9551,8.6598,6.5934,4.3324,15.3444,3.015,16.6718,13.7084.8781,7.0737-6.4363,5.9108-12.2951,5.2461-14.1023-1.5996-7.6903-13.9867-12.106-22.024-.7028-1.2793-5.9353-5.1109-6.6533-5.0766-2.2903.1092-.4087,11.2858-.0189,12.6018,1.81,6.1126,7.1572,9.713,10.3875,14.4896-4.05.5629-9.2582-1.2687-12.3513-3.8511-6.6494-5.5516-3.3691-15.5931-13.586-19.6004-1.0863-.4262-5.921-2.2254-5.6059.6396.2282,2.0742,1.6495,7.2433,2.4493,9.2389,4.4491,11.0997,17.4737,9.9508,19.216,14.0806.8176,1.9379-3.3312,2.3942-4.3252,2.3402-5.3469-.2908-29.0258-9.6245-33.1004-13.0786-4.6343-3.9289-4.1242-9.8241-5.8816-14.5923-.2814-.7629.159-1.9704-1.5691-1.3073-4.7683,1.8297-9.0694,9.8783-13.9827,12.4402-5.906,3.0797-11.8034,2.0451-17.1303,7.6787-3.2695,3.4578-10.2488,18.9532-2.9583,19.5835,5.064-4.4782,2.5177-10.1976,6.8999-15.0239,2.7508-3.0296,10.3385-5.2847,14.3665-5.3438,9.6876-.1425,22.9779,11.7974,30.9375,16.9706.0013,2.8362-16.5118,14.8377-19.9068,16.206-1.6373.66-7.0838,1.1845-7.4995,1.8458-.5352.8514.0908,4.186-.3267,5.9729-1.4779,6.3252-15.91,11.5429-19.5303,15.7082-.8661.9964-1.0303,2.1314-1.0036,3.3761-2.2244-1.2513-4.2487-8.2059-5.8769-9.2509-1.7504-1.1231-4.5845.5158-4.7053,1.9794-.0905,1.0945,9.49,18.1213,10.6863,19.2945,1.2481,1.2239,2.0017,1.7107,3.8537,1.555-14.7817,15.3784.2005,7.1744.974,7.7401.4141.3029,3.3641,8.1747,3.6896,9.4691,2.7607,10.9849,1.6804,22.4222-2.511,32.8444-1.1944,2.9705-8.9429,15.3845-8.8708,16.3059.091,1.1652,3.2493,2.5635,4.2627,3.3434l5.4029-8.6772c2.0266,4.5528,6.4316,7.0804,5.7561,12.8131-.5135,4.3577-7.7383,13.6854-7.7562,14.7852-.0978,6.0135,8.4463.2625,8.4247-4.3502,10.3004,9.4879,2.4835,16.6957-.6587,26.4944-1.078,3.3612,2.664,3.3149,4.6182,1.5987,1.6083-1.4128,3.2923-5.3076,4.4994-9.2349-.0267,4.2043,4.9035,12.8853,4.7792,16.4113-.1024,2.9007-4.0516,12.5116-3.8198,13.5814.439,2.0281,3.3299,2.0952,4.8002-.031.4989-.7214.9616-2.1254,1.3638-3.92,2.622,3.1191,13.6601,7.8763,15.9502,10.3663,6.4596,7.024,14.2062,25.9395,12.3669,35.2869-.8786,4.4647-6.1829,3.7991-6.7773,4.4704-1.3287,1.5014-.6091,6.1552,3.8758,5.3245,8.1532-1.51,8.0954-8.7137,7.9025-15.6294-.5044-18.0735-7.5112-22.0344-13.7016-35.9679-.465-1.0465-1.8095-1.8786-.1859-2.7685,2.7726-1.52,19.6491,1.3149,19.7437,2.928-4.5723,5.9802-8.8358,9.4966-6.2247,17.7666,1.9094,6.0464,7.1787,3.6301,10.5932.0656,2.5556-2.6681,5.2279-12.9774,7.1058-13.3931,2.6897,1.938,15.3332,5.7646,17.1736,3.8054.2414-.2571-.2785-3.0101.1291-4.2166,1.1358-3.3613,22.2342-4.0448,26.5114-4.5015,1.5388,1.4419-5.1835,9.2467-6.9736,10.1486-1.1711.5901-8.7196-.6348-11.2744-.4607-10.7628.7337-26.4474,1.4566-27.2105,14.9942-.9823,17.427,20.6825,2.3339,21.7542-2.9123.6846-3.352.6776-6.7253-3.285-5.1625-1.1324.4468-4.1118,6.1324-6.5392,8.1128-9.3725,7.6467-7.4878-1.7569-2.3564-6.1877,5.9153-5.1076,26.5324-5.1045,26.1027,5.1661-.5746,13.74-27.2992,13.5168-37.1336,13.148-2.9739-.1113-5.5173-1.0795-8.8192-1.0383-5.8959.0735-3.8768,2.3916-.0864,3.9671,5.927,2.4635,20.356,4.8686,26.7114,4.7811,4.8682-.0668,12.3583-3.2964,16.669-.8539,2.4407,1.3828,9.3956,16.913,12.036,21.1154,8.9066,14.1758,24.3256,29.3727,38.0174,39.2141,3.5856,2.5774,7.0398,6.3763,11.7388,4.4684.3389,1.7425-8.0492,3.6301-4.9494,5.3342,3.7083,2.0385,13.16-2.8873,16.815-4.8376,2.7764-1.4815,11.4414-5.2615,5.8712-7.8011-3.2914-1.5004-11.1905,5.8395-15.2103,6.3829-5.6897-6.1656-13.8077-10.4334-20.3042-16.0253-31.5405-27.1488-51.6434-64.1781-5.5842-89.7878,3.4926-1.9422,32.8606-16.7338,34.2143-15.3281.6156,13.8855-11.4178,15.7364-20.7407,20.8031-17.0604,9.2719-35.0001,16.6576-31.3253,39.5044.7074,4.3982,9.0256,23.9683,14.073,24.0059,6.5916.0491-3.2316-13.4061-4.2225-16.2368-6.8473-19.565,7.5447-31.6601,26.3086-33.0878,2.9863,8.6277,3.7108,17.7872,7.2643,26.2903,3.906,9.3466,13.848,25.5006,21.0861,32.5834,2.6076,2.5517,6.7915,6.9269,10.2602,4.9509l-8.8817,10.1349c5.0391,5.7143,8.5287-3.0773,12.8237-5.2972-1.9546,5.8404,14.6437,15.4581,19.4717,17.2254,4.0773,1.4922,10.4483.2222,6.5701-2.7695-1.7874-1.3789-6.108-3.2216-8.5816-4.9483-5.1569-3.6001-10.6506-8.7545-16.4646-10.4888,1.8769-3.7369,13.2862-10.4954,9.9158-15.063-1.4388-1.9501-2.3101-.9037-3.9165.1166-4.2357,2.6897-6.2598,8.0813-10.9222,10.1121-2.0813-6.0004-7.6295-10.1587-11.0362-15.8193-12.046-20.0158-8.3927-44.8576,7.097-62.1414,5.4329-6.0622,6.4181-5.0041,11.2465.5437,8.1123,9.3206,15.7182,23.6878,15.4468,36.256-.1476,6.8319-4.7707,16.2627-4.7816,21.5075-.0052,2.4325,3.5611,4.1164,5.525,2.998,1.4103-.8032,7.8195-12.6073,8.9186-14.9646,4.647-9.9664,7.2433-20.7054,10.1204-31.2384,25.6283,2.1088,36.6001,23.3881,19.5992,43.941-3.1169,3.7682-19.8723,20.179-24.6441,16.0022,2.6332-2.0513,7.7474-11.0542,9.8601-12.1841,1.7813-.9528,6.0509,4.345,8.874-.8834-8.9641-7.8026-13.0213-18.0067-5.8865-28.5716,4.296.6086,5.2129,6.6752,4.8491,10.0621-.5705,5.311-7.1209,9.1392-1.4115,13.1633,6.6175-7.4349,8.905-17.7926,3.2946-26.4661-2.0688-3.1984-5.1339-6.901-8.6542-3.9601-6.0166,5.0264-8.8767,19.4097-6.4992,26.5927,1.1787,3.5615,7.2131,8.3353,1.8077,7.974l-26.9582,27.834c8.2715,3.9331,14.1485-7.4325,19.2477-12.5772.6629,12.7074,13.3956,2.1456,18.7183-1.9706,1.5794-1.2215,3.6474-4.1429,4.9774-4.8068,2.3768-1.1868.4429,1.9955.9169,2.8589.599,1.0907,3.1868,3.8966,4.498,5.8515,2.7707,4.1306,5.4314,6.0503,7.2054,11.818,1.2185,3.9623,1.6911,19.0842,2.6103,19.7342,3.141,2.2215,15.9334-8.2079,18.6034-10.7036-2.9132-8.9885-9.0857,3.5083-12.6865,1.0122-2.2873-1.5854-7.4892-32.2466-18.6925-31.5585,9.8978-11.0763,16.6765-19.6526,15.8208-35.387-1.0093-18.5592-12.936-24.0244-28.2988-31.3071-10.3729-4.9169-24.6236-5.9244-23.0434-21.4493,21.0341,7.8079,57.0241,20.5552,60.0882,46.1183.9652,8.0527.1477,16.3025-3.3081,23.6691-2.129,4.5385-12.4247,17.494-12.467,20.7875-.0147,1.1366.4764,3.1818,1.5936,3.3958,4.1672.798,16.6407-17.4751,18.7464-21.2993,1.4509-2.6355,6.4718-15.4906,7.3659-16.0193,3.1952-1.8895,10.4503.6157,14.2783.538l36.0746-3.9009c-3.443,10.3024,4.16,13.1125,13.364,12.6144,22.2622-1.205,40.7433-25.3632,39.9271-46.5325-1.2755.0628-2.8599-.3337-3.9993.4329-1.036.6968-3.0699,12.5476-4.1151,15.3347-3.6305,9.68-17.5542,24.0648-28.1376,25.6535-3.1217.4686-9.6552.4736-11.8516-1.9368-1.7048-1.8712.0194-5.9928-3.2039-5.5898.7179-1.7632,8.1846-1.0966,8.8745-1.9332.5947-.721-.1718-3.4903-1.6051-3.7952-13.9988.8491-48.4158,7.897-58.6115-3.4494-2.1902-2.4375-3.7958-7.3285-2.9879-10.5034.1499-.5896,8.9477-4.6259,10.6726-6.1613.7946-.7071,2.1233-.588,1.2001-2.7114-1.659-3.8159-19.5778,2.032-22.2817-6.2595-.4293-1.3166-.3885-3.9217,1.0711-3.9217h14.8044c.3796,0,6.7757,1.1876,7.4564,1.3999,5.7421,1.7899.2543,11.7618.9089,17.5138,2.062,18.118,30.9867,17.2558,19.6128-1.8138-1.3958-2.3402-8.4756-6.9429-9.7129-5.4719-2.4976,2.9693,6.5425,9.8894,5.9158,14.0261-.4696,3.1007-7.8851-1.6073-8.9018-2.8638-6.2392-7.712,9.2486-20.3,12.8409-18.499,4.5942,2.3031,2.2025,14.1843,11.8378,15.6696,9.2154,1.4205,8.0382-13.8175,2.5444-17.1155-9.2317-5.5414-.686,7.2369-.5228,10.2164.1984,3.6213-5.2843.3602-5.9285-2.9115-2.7752-14.0956,13.1885-16.06,23.6663-14.0216,1.8579,1.8104-5.5283,10.021-6.744,12.2738-3.0552,5.6611-6.205,15.484-6.4403,21.8488-.138,3.7309,3.0233,2.9455,4.0827,1.4888.6986-.9608,3.3732-11.7912,4.9735-14.9576,6.3315-12.5272,12.6611-16.2616,24.3324-22.3269-3.1467,2.0844,2.032,9.8767,2.4108,12.9016.6706,5.3566-2.5134,13.9382-6.3048,17.8616-1.9476,2.0153-16.6456,8.3967-9.7406,10.5069,7.1503,2.1851,17.5113-9.3895,19.3953-15.5614,1.4349-4.7001,3.1402-29.1322-5.2458-25.9766,1.8415-.9552,10.5368-6.9132,11.8341-5.8139.5087,3.4426,1.3129,10.2656,5.9849,7.3137,1.3632-.8615-.5439-10.9885-1.0406-13.1236.9641,5.5394,11.4133-2.4685,11.8335-1.9379-.648,7.5515-1.7,12.2477-8.9724,15.8857-2.806,1.4037-12.2702,3.0336-12.6923,3.5311-.4567.5381-.1368,3.6704.886,4.3816,4.1163,2.8624,21.487-6.9854,23.9491-11.4937,1.0399-1.904,3.0812-8.8883,2.8279-10.8483-.3553-2.7488-2.8634-1.5385-3.0203-3.3822,6.9623-1.3717,11.2094-12.6108,10.9238-18.8901-.095-2.0912-1.8318-4.1964-1.7836-4.8665.0572-.7912,6.9715-6.7088,7.5484-13.682.211-2.55-1.3571-14.9886-5.8393-11.9786ZM794.3939,31.9004c4.8835,2.3326,12.0638,4.0485,11.8286,10.6506-4.2593,2.4814-13.6949-8.2643-11.8286-10.6506ZM719.3712,11.5471c-5.6482,2.0174-10.5447,2.4469-14.7802-2.4121,2.25-5.313,17.1443-.6916,14.7802,2.4121ZM736.1586,11.0776c2.3602-2.2172,9.2587-2.5885,10.8492.4678-3.6695,1.3061-7.3327,1.3351-10.8492-.4678ZM894.0662,211.1146c-.782,2.0097,4.8399,5.6402,5.9038,7.2901.618,1.9861-1.6709,1.3343-2.9679,2.8238-8.3292,9.5657-4.8127,25.9917,1.9988,35.4162-1.1734-.7975-7.553,2.9216-8.8824,3.8749,1.7733-5.6117-3.1095-11.8885-3.8413-18.0259-1.9912-16.6966,1.5763-18.3799,7.789-31.3791ZM736.0063,301.9177l-9.9728-7.9379c-11.6676-12.9456-12.1535-31.2756-8.2245-47.9949,1.8693-7.955,7.6561-16.7541,8.5219-23.7623.0018-.0152.0027-.0309.0047-.046.0971-.3653.171-.7748.0554-.5601,1.1815-12.116-6.3038-28.563,4.3598-38.3736.2155-.1983.4121-.389.6069-.5789,16.9927-14.5027,14.1655-10.3217,14.1655-10.3217,0,0,4.9396-6.1177,6.7246-6.9449,11.7632-5.4524,27.5276-11.139,40.4202-8.3003.8796.1937.0923-.8469.7664-1.2595,3.5617-2.1804,9.5023-3.8293,9.5023-3.8293,2.0783-.7443,3.743-.7913,4.7391-.7801,8.6602.0957,25.6513,3.5236,33.6662,11.164,2.3002,2.1927,3.0264,1.2822,4.3636.2958,10.2043.2834,24.5495,12.6221,24.1429,22.7746-.1839,4.5951,2.3129-1.8696,2.5088-2.8972.7079-3.7127,7.6538,1.5912,8.4097,3.389.7715,1.8351-1.4147,5.7763-1.5345,8.2544-.1997,4.1236,2.3971,11.2002,5.507,13.9787,1.2226,1.0923,3.3767.7468,3.422,1.4884.0854,1.3985-2.9876,5.8942-3.7284,7.9672-3.0961,8.664-4.1439,16.5592-3.0932,25.8215.3636,3.2054,3.9511,19.2261,8.7783,17.0549-2.8594,2.0504-9.9025,9.8879-10.6244,13.2966-.8465,3.9969-1.1459,11.6676,4.7027,9.9529-2.1542-2.8111,3.8221-18.7275,6.8976-16.4652,1.4469,1.0644,7.4204,23.0908,13.8278,23.2611-2.4784,4.3793-9.8155,3.7657-10.3624,8.7136-.9518.0369-3.7408-7.5254-4.69-8.4968-.8887-.9095-3.8227-.776-4.5488-.3437,2.0672-1.6722,11.7375-8.6129,9.7274-10.5389-3.4606-.1831-7.8817,2.0939-10.8516,3.8699-3.2496,1.9432-6.3504,4.7372-8.4876,8.0389l-4.4918,12.316-66.5023,8.5098-68.7086-10.716ZM674.9076,33.2915c1.333-4.026,9.6141-14.1838,13.8078-14.551,3.9156-.3428,13.0883,15.8467,13.6658,19.7021.6115,4.0826-.9966,10.0734-5.7003,10.8899-.6471-5.7123,2.192-13.3874-3.4441-17.1865-8.8911,3.8353-.2134,13.814.3406,17.911.9641,7.1309-9.6993,7.3475-11.4956-.4377-2.8889-12.5214,9.4404-13.2569,6.6933-25.4651-5.3859-.0961-8.9336,7.9061-9.6594,12.3926-.2287,1.4129.9714,6.1888-.2417,6.9618-4.1028,2.6146-5.1485-6.6468-3.9664-10.2171ZM481.5246,194.6642c3.4469-.2782,9.7208-8.3993,10.8514-2.4338.9569,5.0456-2.1013,11.3384-6.9067,13.0622,2.0906-2.693-4.8365-9.3857-3.9448-10.6284ZM505.9271,308.2213l-2.8366-13.2374-5.5509-7.0937c-.6843-.039-1.4154.1717-2.1933.7216-.4341-.4692,2.7783-7.9856,2.776-10.1707-.0041-4.1923-3.979-15.5413-9.6938-14.0561,7.4061-13.5394,10.6004-31.0786,4.7071-45.7816-1.3238-3.3028-1.8025-5.2465-5.6892-6.0308,4.7645-4.6732,9.3147-8.4612,9.8977-15.4638.2199-2.6436-.9654-10.2073-.5604-11.1604,1.1078-2.6056,13.0012-9.3832,15.8314-11.639,1.78,6.9195,2.3725,9.2339,3.6883,1.6766,2.1842-12.5457,24.977-23.4077,37.2602-22.0213.2572,1.6823.0682,2.1372-1.0147,3.3549-6.1453,6.9105-4.9895,6.4441,1.0731,2.0216,7.0553-5.1459,21.8647-4.091,30.5363-6.3449.4647,1.8636-1.3807,1.9586-1.5055,3.2415-.6134,6.3084-.7714,8.1209.346,3.5671,1.4693-5.9852,11.3253-4.4342,17.183-3.7204,2.958.3605,22.0039,7.751,23.968,9.4848,4.2601,3.7601-3.4106,4.2156-7.041,4.7435-2.5014.3639-.0368,3.7835,1.3547,3.0229,3.632-1.9856,16.9688,1.4872,20.6801,3.6726,1.9516,1.1492,1.8931,2.0456,2.2587,4.0708s2.9376,4.5248,6.1645,6.7157c18.0427,12.2497,26.3469,32.609,24.1967,53.8821-2.8139,27.84-9.3417,29.7571-22.4925,50.9361-.139.2237-.274.4484-.4066.6735l-11.5085,9.8919-23.0079,8.5098-39.3971,5.0428-69.0238-8.5098ZM546.6641,354.4813c-.6358-4.3725.9442-9.7663,5.9109-10.6466.6361,4.3725-.9442,9.7664-5.9109,10.6466ZM894.748,316.8907c-3.5368,1.6467-9.4.8946-8.5775,5.6272-.5106-2.1939-3.0852-11.6985-5.2583-11.5182-7.5088.6228-.1135,11.6481-1.6994,13.4051-4.295,1.4594-7.1625,2.1969-11.4715,2.9036,2.5348-.6082,1.3671-5.8128,1.8552-7.9844,1.8513-8.2376,17.5177-10.8862,19.104-14.2165.4634-.973-1.0483-3.5186-1.9999-3.6678-1.7457-.2737-8.617,4.4962-9.4072,3.6367-.2705-5.0189,1.8268-10.0764,5.4107-13.6056.7306-.7196,2.1706-.6628,2.4795-.9207-1.2713,1.8266,8.6922,22.6672,10.4868,23.1916,9.5679-.1787-.931-11.3313.3685-12.5304,4.3831,1.0035,7.0208-3.548,10.8678-3.3866-1.1708,9.5736-3.0895,14.8433-12.1587,19.066Z"/>
    <path class="cls-1" d="M730.5694,457.3113c-4.3896-1.3752-16.4316,5.862-21.8437,7.328-20.0705,5.4368-42.6377,1.6286-59.9453-9.3783-4.1994-2.6706-21.1501-18.2105-22.6669-18.4632-1.9601-.3265-1.2591.4104-1.7166,1.2661-2.7768,5.1945-5.3707,19.2738,2.1513,21.5767,3.2535.996,12.137,1.4807,10.9147-3.4391.5212-.4949,8.4393,5.0271,10.1891,5.9794,20.5113,11.162,41.2991,13.0902,64.0406,7.308,3.8086-.9684,19.728-6.3695,20.5055-9.9153.2375-1.0706-.6768-1.9641-1.6288-2.2623ZM627.5038,449.9c.4709-7.5888,5.5678,1.9277,7.9805,4.3551-4.5213-.0239-8.3373,1.394-7.9805-4.3551Z"/>
    <path class="cls-1" d="M572.3138,430.5365c-4.9302-6.8426-4.5007-21.1137,2.038-27.0726,15.6449-14.2576,15.1618,4.8752,3.2511,11.9058-3.751,2.2142-9.7395,1.1223-4.7191,7.8435,4.759,1.1524,17.8035-13.2486,19.4082-17.641.9413-2.5767,2.5496-10.1235.5114-12.107-3.4233-3.331-13.5025.5469-17.2084,2.5003-22.7946,12.0156-15.2023,49.4297,12.9058,46.5584,2.1274-.2174,6.6308-1.2074,4.5451-3.7427-.7201-.8751-15.1927-.5574-20.732-8.2448Z"/>
    <path class="cls-1" d="M621.2467,428.5657c-.1281-1.7483-2.4285-5.0256-4.5381-3.9063-3.347,1.7757-5.5696,17.7833-6.8971,21.8543-6.8631-1.4913-13.2237-10.6421-11.395-17.4537.3903-1.4546,4.3099-8.8473,6.4679-6.767,1.8775,6.466-4.1382,8.8745-3.938,14.5299,9.2877.3407,12.2308-14.1531,7.9564-19.9359-2.3142-3.1308-11.7515,2.3501-13.9404,4.8696-9.5123,10.9493,5.5313,31.1121,17.7885,33.0702,6.309,1.0079,3.5252-6.5756,4.237-11.451.606-4.1497,4.4968-11.5624,4.2588-14.81Z"/>
    <path class="cls-1" d="M833.3745,407.7899c-1.5547-.0836-7.6176,8.5146-11.3487,10.1553-10.1793,4.4764-28.1469-2.1252-31.1299-13.0571-3.0664-11.237,11.4503-4.6288,15.5369,2.192,1.6589,2.7686,2.4358,9.0258,2.797,9.3606.4398.4077,3.7416-.1482,4.8979.0474,1.1212-12.877-13.3925-25.8354-26.2075-24.2845-8.2749,1.0014-1.6244,16.2525,1.6981,20.7241,8.6134,11.5922,30.2304,16.7719,40.8389,5.5428,1.3889-1.4702,7.116-10.4547,2.9172-10.6807Z"/>
    <path class="cls-1" d="M529.3375,393.2896c-1.4802-4.6336,2.4788-13.6772-2.3331-15.1179-8.418-2.5205-3.6107,2.8999-4.0428,8.2777-1.5015.3998-.7715-1.1759-1.3033-1.5474-2.6575-1.8561-6.2278-2.6126-8.8889-4.4176-10.7176-7.2688-17.9142-18.5638-19.285-31.446-.5415-5.0881,1.5943-16.3706.7085-19.0975-2.3888-7.3533-5.4835,3.7968-5.7473,6.6403-1.7647,19.02,3.478,36.3822,20.1944,46.9873,4.1455,2.6299,11.0501,8.0476,15.3091,3.8541.4963,5.3855.4647,11.2478,5.0061,14.955,1.6806,1.3721,8.8772,5.9076,8.8555,1.0119-.0065-1.4087-7.5672-7.2644-8.4732-10.0999Z"/>
    <path class="cls-1" d="M677.9283,406.7919c4.005,3.409,16.2488-10.4391,17.9609-13.8445,2.738-5.4463,3.7521-16.383,2.5372-22.2585-.46-2.2244-7.4335-13.6745-9.3108-14.1725-3.0082-.7979-8.3773,9.2853-9.3881,11.8492-2.9184,7.4017-2.2847,16.0605,1.3652,23.2419,2.4419,4.8046,6.6458,6.6944,5.4959-.5578-.757-4.7736-3.2474-6.5379-2.6412-12.7152.2167-2.2087,3.3815-13.1719,6.7962-10.2878.4119.3479,2.7528,9.1281,2.8685,10.2883.4814,4.8284-1.0094,9.6756-3.4147,13.8693-3.3018,5.7569-9.6994,8.7411-12.269,14.5876Z"/>
    <path class="cls-1" d="M810.7166,426.1871c-3.2477-.137-4.8408,4.2721-7.5176,6.2183-6.7115,4.8794-17.3437,6.626-24.5394,1.935-2.3975-1.563-10.5515-10.578-5.4826-12.0368,5.0229-1.4455,6.4036,14.8996,11.3202,11.6086.4512-.302.967-3.9788.8338-5.0585-1.2548-10.1821-17.88-19.949-18.5126-5.9316-.8757,19.4058,31.1863,26.0137,42.8849,11.9891,1.5764-1.8898,6.0635-8.5109,1.0134-8.7239Z"/>
    <path class="cls-1" d="M639.9258,378.7234c4.8984,3.8356,2.094,18.5238,3.9165,21.3234,2.9888,4.5916,5.4584-7.1843,5.4843-9.2807.1019-8.2484-9.3659-30.2949-16.3284-14.0151-4.644,10.859-1.5993,18.8866,5.4686,27.6033,1.3536,1.6694,11.9233,13.2348,12.7937,13.5904.5273.2154,2.8612-.3984,2.9513-.5159,2.325-3.0311-8.8167-12.5286-10.8023-15.0197-5.7726-7.2422-12.1983-15.9002-3.4838-23.6856Z"/>
    <path class="cls-1" d="M506.26,102.544c.6177.8395,4.6677,1.0038,5.6249-.1629,1.0259-1.2503,1.6532-7.4274,2.2335-9.4553,9.9718,1.6467,21.5242-4.4323,24.6482-14.0219-3.1979-3.715-6.5859,4.4678-10.5317,7.0828-1.774,1.1756-10.8631,5.2557-12.1667,4.0319-.2445-6.1921,6.061-9.1694,8.8778-13.5569-1.0731-7.0242-9.2115,1.0391-11.2874,3.9365-1.9659,2.7442-8.5961,20.5185-7.3986,22.1458Z"/>
    <path class="cls-1" d="M524.9506,85.1756c7.515-.0622,6.0429-8.5228,7.5788-13.3794,2.8447-8.9941,12.7725-22.3867,22.7474-24.1715,10.3766-1.8567,27.2367,4.2299,30.855-9.907-5.2732-1.0308-7.9725,4.7567-12.5775,5.6097-6.9443,1.2863-12.9001-2.4748-22.4938,1.1276-16.8254,6.3178-18.2169,19.7035-26.1147,32.0066.2622,1.7169-.3698,8.3237.0047,8.7139Z"/>
    <path class="cls-1" d="M549.6258,413.0878c-6.0652-6.7729-7.235-19.913,3.9365-21.7853,2.6967,5.8612-7.7505,8.4975-6.7931,11.9267,1.8383,6.5848,11.9727-4.7055,12.6283-9.5975,1.0941-8.1656-2.6318-9.1774-9.7727-6.68-16.6337,5.8172-10.1043,31.8002,4.982,36.74,2.7706.9072,8.0238,1.1496,6.7752-2.7632-.3514-1.1018-9.3575-5.1623-11.7562-7.8407Z"/>
    <path class="cls-1" d="M849.3134,392.4174c-.5369.0134-1.9254.6646-2.3601,1.0875-1.4024,1.3643-1.2249,4.3453-3.8517,6.3779-4.3673,3.3794-12.4097,2.522-16.6643-.8136-6.5283-5.1182-1.9655-11.0662,1.9751-5.8125,1.4766,1.9686,2.7603,9.5985,7.4815,6.3359,7.5519-5.2188-17.6618-22.3946-18.7581-9.6609-1.0681,12.4056,15.207,20.2762,25.8395,15.6399,3.8084-1.6607,12.2499-13.3003,6.338-13.1542Z"/>
    <path class="cls-1" d="M737.1471,450.8806c5.5695,2.3509,8.3971-1.575,12.8185-3.3921.0135,16.4494-18.7382-1.9859-25.6358,5.3234.0159,1.2044,10.9152,5.3279,12.3174,5.3279h17.2718c1.8167-7.0961,1.7374-15.8957-2.4831-22.2792-2.1518-.4778-12.9157,12.4158-14.2887,15.0201Z"/>
    <path class="cls-1" d="M507.9847,358.0561c-.9346-2.4423-2.4228-15.5566-6.805-9.9071-2.6471,3.4126,3.6639,18.1468,6.9513,21.3882,2.3792,2.3459,9.503,6.0161,12.8044,6.8067,1.9366.4638,13.6892,1.8662,14.7072,1.243.5555-.3398,1.6773-3.3472.1997-4.2476-1.2382-.7546-10.3626-.8101-13.8476-1.9101-6.7571-2.1326-11.5373-6.911-14.0099-13.3732Z"/>
    <path class="cls-1" d="M659.1789,454.2464c.3903.4568,9.4689,4.8017,10.8654,5.3309,4.8687,1.8452,8.205,3.7337,12.7417-.0581,1.0172-3.323,17.0993-16.1562,16.8365-17.3252-.3659-1.6279-3.0282-2.843-4.901-2.0082-3.1607,1.4087-10.822,10.687-14.3294,13.1062-7.0551,4.8661-7.7797-1.454-13.8164-1.9825-1.677-.1468-9.5788.383-7.3969,2.9368Z"/>
    <path class="cls-1" d="M470.1699,218.8826c-7.9761,9.2527-8.9924,20.4438-2.8818,30.9036,2.3951,4.0998,12.7836,18.0256,16.1996,9.3101-8.7302-5.9924-16.9672-15.6984-14.5703-26.9362,1.0967-5.1416,8.3923-7.9879,1.2525-13.2775Z"/>
    <path class="cls-1" d="M481.7012,223.0456c-1.4457-2.8783-9.0442-13.7989-12.5012-12.8988-5.1978,1.3535,4.2277,9.7396,5.2476,11.2999,3.514,5.3747,6.0857,13.7814,5.0354,20.1271-.507,3.0635-4.6418,7.1346-2.434,10.257,4.2251,5.9753,8.0651-11.822,8.2028-14.3721.2492-4.6177-1.4867-10.3038-3.5506-14.4131Z"/>
    <path class="cls-1" d="M869.3864,347.6873c-.4618-3.4663-2.4238-4.5241-5.4431-2.9261-9.0034,4.765-15.1752,12.697-16.2639,22.8026-.5014,4.6533,0,10.6413,0,15.4997,0,1.824,4.9347,1.824,4.9347,0v-14.5309c0-.8054,2.4631-7.3003,3.0854-8.5963,2.8345-5.9038,7.3445-10.1448,13.687-12.2489Z"/>
    <path class="cls-1" d="M659.6869,427.112c1.4753,2.8874,18.3015,18.5689,21.2288,19.8644,2.6461,1.171,5.6262.3651,4.7589-2.7202-.5539-1.9699-17.1527-16.5395-20.1138-19.0263-1.4881-1.2499-3.4316-2.6146-5.4019-2.9482-.5142-.7332,14.0137-9.9231,7.3849-11.6083-2.7174-.6908-14.7132,12.1994-20.1487,10.1836-2.8537-1.0583-5.9362-5.598-9.6035-6.0463-2.8111-.3436-4.515,1.9177-3.0714,4.382.657,1.1214,12.2671,8.7836,14.1668,8.9047,4.036.257,6.7033-4.493,10.2793-4.8312-.0193,1.2896-.0936,2.6439.5205,3.8458Z"/>
    <path class="cls-1" d="M827.3247,50.4259c4.0277,1.9101,8.1567,5.2131,10.8932,8.6826,3.1938,4.0494,4.5348,11.4457,10.4433,11.5359-.0604-15.7446-18.6538-27.9513-33.5462-28.0831-.3939,5.7596,7.8816,5.812,12.2097,7.8646Z"/>
    <path class="cls-1" d="M509.4237,343.0816c-1.8616-.71-13.1882-3.7858-14.0579-3.1063-.1346.105-1.265,2.6301-.0402,3.3716,2.0657,1.251,8.0072,1.5178,11.1421,2.6358,6.6404,2.3683,11.3849,6.9497,14.0291,13.3548,2.5737,6.235.2969,12.9428,9.3803,11.6102-2.9601-13.5541-6.6098-22.5864-20.4535-27.8661Z"/>
    <path class="cls-1" d="M705.638,413.9843c3.5497,2.074,9.5078,6.1947,12.7307,2.0159l-26.1136-15.9875c-1.1898,1.0707-1.9122,1.2148-1.0294,2.9272.7029,1.3634,12.261,9.7875,14.4123,11.0444Z"/>
    <path class="cls-1" d="M504.1253,331.1563c.2956-1.2253,1.3122-2.4957.6509-3.7801-1.5647-3.0392-21.3072-11.5532-23.2513-9.6967-.4362,2.6422.7624,3.3662,2.6202,4.6838,2.4861,1.7635,18.0509,10.1738,19.9802,8.793Z"/>
    <path class="cls-1" d="M845.3761,71.7345c-1.8746.5779-2.4766,3.047-.6636,4.2487,1.2974.8599,7.2271,1.5008,10.3924,3.3617,4.8821,2.8696,4.9382,6.4732,7.8462,8.767,3.3453,2.6387,4.0907-1.6251,2.7346-4.6247-.4106-.9084-5.7335-7.3197-6.6304-8.0198-2.2769-1.7775-11.0397-4.5468-13.6793-3.7329Z"/>
    <path class="cls-1" d="M549.9201,54.9602c-2.3085,1.3074-14.4274,11.6316-12.1403,13.7469,6.3906,1.6118,7.4777-3.6097,11.8267-7.2731,1.8661-1.572,8.4642-5.0336,8.7297-5.4701.5479-.9004.0233-2.5768.161-3.7153-3.1085-.3227-5.9843,1.2433-8.5772,2.7116Z"/>
    <path class="cls-1" d="M625.6323,418.9625c1.7536.8633,11.1299-6.0085,12.509-7.6107,1.9451-2.26.9107-4.685-1.1745-6.4739-2.3244,2.6004-18.8781,10.3714-11.3345,14.0846Z"/>
    <path class="cls-1" d="M490.063,172.1662c2.9215.5171,17.4005-9.3335,19.5179-12.4599,9.1202-13.4646-4.2287-27.0338-15.2199-12.5288.418-2.997-3.4409-15.4357-7.4629-9.7362-2.3665,3.3535,4.5767,21.7842,8.4351,23.7871,8.711,4.5223-.3812-10.386.014-13.076,1.6791-.4405.4688,1.9961,1.5199,2.0053.994.0086,9.0092-3.8317,9.3404-1.4561-.0822,3.7576.7917,7.5561-1.9612,10.6118-3.2547,3.6126-18.7264,6.3049-16.8046,11.1146.0578.1444,2.2955,1.6803,2.6215,1.738Z"/>
    <path class="cls-1" d="M488.9222,183.0042c4.5236-2.4715.3275-8.7523-1.4807-12.5761-.5889-1.2459-4.9958-9.331-5.4187-9.6962-1.0484-.9055-3.8999-1.4886-4.4455-.9549-.8534.8346,3.0942,10.7981,3.9427,12.5885.7554,1.594,6.1985,10.6377,7.4022,10.6387Z"/>
    <path class="cls-1" d="M484.4824,305.0907c1.3243-.7395,14.277,8.4846,11.6909-.3181-.6353-2.1622-19.8425-13.3248-23.5269-10.3482-1.3653-1.3575,7.1471-9.7208,5.9236-12.593l9.322,5.8427c5.1703-6.4661-5.4623-9.0118-10.3305-13.0977-2.7415-2.301-7.4632-10.8628-9.4529-3.4227-1.1519,4.3074,5.0567,5.8048,7.4717,8.2554l-3.3743,3.4528-4.4924,7.6826c-1.8762-5.8748-4.0633-9.3025-2.9191-15.9275.8099-4.6906,9.3036-11.2088,8.6664-14.443-1.1241-5.7092-6.4951.3793-8.4465,2.8952,1.8471-2.8815-3.1855-8.7829-4.3965-11.5797-4.5733-10.5615-4.2977-23.7968,1.357-33.8875,2.3118-4.1254,13.914-16.1218,13.6959-18.5772-.6566-7.3941-8.6011,3.543-10.929,4.34-1.817,5.5196-8.4128,10.4412-10.6328,17.1722-3.2524,9.8605-2.2779,24.2616,1.5645,33.8682.8812,2.2036,5.8541,12.4319,9.0684,9.0207-5.8528,7.8079-8.4999,17.7554-2.8364,26.5138,1.8964,2.9327,4.473,2.2793,4.7748,2.594.6981.7276-1.7429,6.6056-1.8751,8.3236-.2925,3.7997,1.8565,9.1708,4.0498,12.2949,1.7875,2.5458,4.3734,5.2303,5.6078.9134.8996-3.147-6.5649-12.2395-3.7894-17.7026l11.826,6.7934c.1374,1.7172-2.1754.6666-3.4769,1.8925-.9263.8724-5.066,12.3225-5.3106,14.1582-1.3039,9.789,3.2257,18.4032,12.7377,21.7124,1.4685-5.704-5.5471-8.3241-6.6925-13.2745-2.275-9.8306,4.71-14.0871,4.7256-22.554Z"/>
    <path class="cls-1" d="M744.5714,427.1685c-5.2922,4.2126-9.0218,9.1679-15.0152,13.3552-3.9601,2.7666-23.9399,14.4372-27.5103,14.679-1.9781.1339-15.0813-6.808-11.8227.9605,1.2744,3.0384,8.4251,6.1708,11.7894,5.8402,2.4416-.2399,13.0729-5.9999,16.0526-7.5716,6.8008-3.5878,33.3163-20.3926,34.6867-27.0468.3142-1.5264-.7135-2.686-.807-4.1195-1.4728-1.0331-6.0636,2.8603-7.3735,3.903Z"/>
    <path class="cls-1" d="M470.869,166.2708c1.7009-7.6132,16.3682-10.9382,16.6169-11.9498.2204-.8972-.1906-2.225-.0441-3.2623-3.7313-.9074-7.5423,2.2189-10.8566,1.9324-4.2606,3.7677-9.2286,5.5136-10.6336,12.3279-.3104,1.5048-.6252,10.5514-.2202,10.9262.1437.1327,3.6382.1292,3.945-.0047,1.5388-.6722.7157-7.835,1.1926-9.9697Z"/>
    <path class="cls-1" d="M468.7947,183.6091c3.9396-3.9628,12.4284-5.3187,12.7253-11.2435-.8838-.8311-10.4103,2.999-11.8436,3.8749-8.2022,5.0118-14.4687,16.8227-9.0886,25.8708,1.8508,3.1125,1.5346,2.1501,4.154,1.2534,2.227-6.7653-3.4884-12.1705,4.0529-19.7556Z"/>
  </g>
</svg>